<?xml version="1.0" encoding="UTF-8"?>
<svg version="1.1" xmlns="http://www.w3.org/2000/svg" width="591" height="422">
<path d="M0 0 C1.010625 0.556875 2.02125 1.11375 3.0625 1.6875 C3.701875 2.120625 4.34125 2.55375 5 3 C5 3.66 5 4.32 5 5 C5.56460938 5.23976562 6.12921875 5.47953125 6.7109375 5.7265625 C9.47889003 7.26641322 11.39425756 9.12933621 13.625 11.375 C14.78902344 12.53128906 14.78902344 12.53128906 15.9765625 13.7109375 C17.80583558 15.78034681 18.81999609 17.54256066 20 20 C20.66 20.33 21.32 20.66 22 21 C31.06513839 34.45457382 34.49149541 53.43714119 31.58398438 69.26464844 C28.12955569 84.68953946 21.03049755 95.92182018 10 107 C9.02933594 108.02287109 9.02933594 108.02287109 8.0390625 109.06640625 C-1.94075927 118.80653797 -18.08735601 124.32861775 -31.80273438 124.41796875 C-32.81658203 124.40378906 -33.83042969 124.38960937 -34.875 124.375 C-35.93783203 124.36339844 -37.00066406 124.35179687 -38.09570312 124.33984375 C-53.02278679 124.02790715 -68.73821421 119.39382542 -80 109 C-80 108.34 -80 107.68 -80 107 C-80.60070312 106.73316406 -81.20140625 106.46632813 -81.8203125 106.19140625 C-87.96759397 102.83133305 -92.71405199 95.01258571 -96 89 C-96 88.01 -96 87.02 -96 86 C-96.66 86 -97.32 86 -98 86 C-98.65077296 83.95990245 -99.29539824 81.91784331 -99.9375 79.875 C-100.29714844 78.73804688 -100.65679687 77.60109375 -101.02734375 76.4296875 C-105.8010666 59.59704228 -103.46145066 40.98218069 -95.72265625 25.43359375 C-87.36113379 10.63300414 -73.97749952 -1.11355281 -58 -7 C-57.30648437 -7.2784375 -56.61296875 -7.556875 -55.8984375 -7.84375 C-37.38913484 -14.18979663 -16.20728609 -10.31697286 0 0 Z " fill="#E17D29" transform="translate(329,171)"/>
<path d="M0 0 C2.16546572 1.82027996 2.16546572 1.82027996 4.4765625 3.40625 C5.04246094 3.86515625 5.60835937 4.3240625 6.19140625 4.796875 C6.19140625 5.456875 6.19140625 6.116875 6.19140625 6.796875 C6.75214844 6.99796875 7.31289063 7.1990625 7.890625 7.40625 C11.082435 9.33542548 12.9093114 12.03947007 15.00390625 15.046875 C15.44114014 15.67311768 15.87837402 16.29936035 16.32885742 16.94458008 C29.37584821 36.05448571 36.23211145 59.4205579 31.92578125 82.5234375 C28.09461457 99.60065918 28.09461457 99.60065918 24.19140625 105.796875 C23.86011719 106.6321875 23.52882813 107.4675 23.1875 108.328125 C22.13893018 110.92693333 20.84609231 112.99570023 19.25390625 115.296875 C17.6151797 117.68767413 16.06181541 120.02495488 14.62890625 122.546875 C11.54990806 127.36617651 7.0174292 130.86195609 2.64453125 134.46484375 C1.06361442 135.7548441 1.06361442 135.7548441 0.19140625 137.796875 C-0.79859375 138.126875 -1.78859375 138.456875 -2.80859375 138.796875 C-3.46859375 139.786875 -4.12859375 140.776875 -4.80859375 141.796875 C-7.06710837 143.05637618 -9.28659267 144.20025808 -11.62109375 145.296875 C-16.6335952 147.69237734 -16.6335952 147.69237734 -21.47265625 150.41796875 C-38.85826182 160.68070916 -64.99699072 158.39657731 -83.80859375 153.796875 C-93.65491615 150.9347142 -102.88230822 146.63131708 -110.9375 140.26171875 C-112.72019014 138.86608451 -114.55136416 137.61556761 -116.43359375 136.359375 C-120.13985865 133.73516905 -123.23276259 130.54268075 -125.80859375 126.796875 C-125.80859375 126.136875 -125.80859375 125.476875 -125.80859375 124.796875 C-126.79859375 124.466875 -127.78859375 124.136875 -128.80859375 123.796875 C-130.37373663 121.76069864 -131.75918524 119.77556245 -133.12109375 117.609375 C-133.51627197 116.98442139 -133.9114502 116.35946777 -134.31860352 115.71557617 C-140.3019894 106.00032855 -144.27628683 96.14246668 -145.80859375 84.796875 C-146.18224302 82.7549607 -146.55727078 80.71329823 -146.93359375 78.671875 C-148.49860506 68.99613049 -147.56219858 60.41950402 -145.80859375 50.796875 C-145.62554687 49.73082031 -145.4425 48.66476563 -145.25390625 47.56640625 C-141.07486783 26.38745228 -127.21038115 7.2114013 -109.80859375 -5.203125 C-106.55007258 -7.35344396 -103.22604312 -9.31707983 -99.80859375 -11.203125 C-99.03 -11.64527344 -98.25140625 -12.08742187 -97.44921875 -12.54296875 C-65.65295956 -29.6360558 -26.87108191 -22.13433435 0 0 Z M-99.80859375 4.796875 C-100.66710937 5.34472656 -101.525625 5.89257812 -102.41015625 6.45703125 C-108.17085017 10.2771893 -112.54320963 14.38003742 -116.80859375 19.796875 C-117.44023437 20.56644531 -118.071875 21.33601563 -118.72265625 22.12890625 C-121.7940977 25.93976879 -124.09963833 29.18414364 -125.80859375 33.796875 C-126.45029632 35.17380764 -127.09611585 36.54882932 -127.74609375 37.921875 C-132.09791838 47.82455097 -133.3916834 57.13857689 -133.37109375 67.921875 C-133.36940186 69.19708008 -133.36770996 70.47228516 -133.3659668 71.78613281 C-133.16889811 82.17079602 -131.39987495 90.52768466 -126.80859375 99.796875 C-126.34453125 100.7353125 -125.88046875 101.67375 -125.40234375 102.640625 C-124.27773662 104.75269204 -123.08217124 106.77279649 -121.80859375 108.796875 C-121.25171875 109.8075 -120.69484375 110.818125 -120.12109375 111.859375 C-119.47140625 112.8184375 -119.47140625 112.8184375 -118.80859375 113.796875 C-118.14859375 113.796875 -117.48859375 113.796875 -116.80859375 113.796875 C-116.58171875 114.333125 -116.35484375 114.869375 -116.12109375 115.421875 C-110.01290362 126.47479047 -98.94497642 132.73632504 -87.80859375 137.796875 C-86.63296875 138.374375 -85.45734375 138.951875 -84.24609375 139.546875 C-75.72048867 142.64709503 -66.93480225 143.15934952 -57.93359375 143.109375 C-56.35433105 143.10200317 -56.35433105 143.10200317 -54.74316406 143.09448242 C-39.77046387 142.86898995 -26.60370485 138.64842045 -13.80859375 130.796875 C-13.80859375 130.136875 -13.80859375 129.476875 -13.80859375 128.796875 C-13.12796875 128.590625 -12.44734375 128.384375 -11.74609375 128.171875 C1.13345184 122.14315153 9.30847733 106.50556946 14.19140625 93.796875 C21.018835 74.80808878 19.67354129 53.00644468 11.19140625 34.796875 C6.89463726 26.43460788 -0.48926251 12.90331875 -9.80859375 9.796875 C-10.83517508 8.82418246 -11.83409177 7.82173884 -12.80859375 6.796875 C-25.68454962 -3.60168177 -40.30600581 -7.38157567 -56.55859375 -7.390625 C-57.70070313 -7.40287109 -58.8428125 -7.41511719 -60.01953125 -7.42773438 C-74.87195693 -7.45334201 -87.39712625 -3.36650347 -99.80859375 4.796875 Z " fill="#DE7D2D" transform="translate(350.80859375,160.203125)"/>
<path d="M0 0 C1.66611905 -0.042721 3.33382885 -0.04063832 5 0 C8.21829969 3.21829969 7.0625 12.80046188 7.0625 17.1875 C7.041875 18.445625 7.02125 19.70375 7 21 C7.66 20.67 8.32 20.34 9 20 C9.46853709 17.96820406 9.46853709 17.96820406 9.6328125 15.52734375 C9.71660156 14.62822266 9.80039063 13.72910156 9.88671875 12.80273438 C10.00466797 11.38444336 10.00466797 11.38444336 10.125 9.9375 C10.21136719 8.98810547 10.29773438 8.03871094 10.38671875 7.06054688 C10.59954368 4.70764908 10.80357031 2.35431405 11 0 C12.66611905 -0.042721 14.33382885 -0.04063832 16 0 C19.05062012 3.05062012 18.0625 11.93505289 18.0625 16.0625 C18.04669585 17.70838931 18.02768522 19.35426767 18 21 C18.66 21.33 19.32 21.66 20 22 C19.67 25.3 19.34 28.6 19 32 C19.33 32 19.66 32 20 32 C20.02505615 31.06615479 20.0501123 30.13230957 20.07592773 29.17016602 C20.17086928 25.71674811 20.27011258 22.2635104 20.37231445 18.81030273 C20.41571813 17.31360731 20.45738913 15.81686061 20.49731445 14.32006836 C20.55488616 12.17285688 20.61861716 10.02590479 20.68359375 7.87890625 C20.72025146 6.5854126 20.75690918 5.29191895 20.79467773 3.95922852 C21 1 21 1 22 0 C23.33043625 -0.0983721 24.66593344 -0.13078592 26 -0.1328125 C26.804375 -0.13410156 27.60875 -0.13539063 28.4375 -0.13671875 C29.283125 -0.13285156 30.12875 -0.12898437 31 -0.125 C32.2684375 -0.13080078 32.2684375 -0.13080078 33.5625 -0.13671875 C34.366875 -0.13542969 35.17125 -0.13414062 36 -0.1328125 C36.7425 -0.13168457 37.485 -0.13055664 38.25 -0.12939453 C40 0 40 0 41 1 C41.22903452 2.68529512 41.39544343 4.37917987 41.53515625 6.07421875 C41.6225708 7.12754395 41.70998535 8.18086914 41.80004883 9.26611328 C44.88127388 49.43382293 44.88127388 49.43382293 36.5390625 61.4609375 C34.74418108 63.25581892 32.95899992 64.13431629 30.6875 65.25 C28.6583637 66.31686765 28.6583637 66.31686765 27 68 C26.49382086 70.3265822 26.49382086 70.3265822 26.6796875 73.03125 C26.72984009 74.6404834 26.72984009 74.6404834 26.78100586 76.28222656 C27.16569622 82.81295649 27.65527108 89.32970708 28.22680664 95.84667969 C28.43831956 98.25934848 28.64263211 100.67254483 28.84570312 103.0859375 C28.97875255 104.64586871 29.11220208 106.20576586 29.24609375 107.765625 C29.3065538 108.47414612 29.36701385 109.18266724 29.42930603 109.91265869 C29.7348901 113.3838967 30.09201858 116.83994252 30.53222656 120.296875 C30.97511233 123.80297692 31.23222941 127.21809425 31.3125 130.75 C31.36857422 132.38195312 31.36857422 132.38195312 31.42578125 134.046875 C30.90306711 137.67230518 29.8248125 138.75692068 27 141 C23.03031924 142.98484038 18.2997949 142.33907693 14.125 141.25 C11.53647174 139.72733632 11.0772185 138.77460836 10 136 C9.27669442 127.85101504 10.23192781 119.50159028 10.9375 111.375 C11.06801758 109.79332031 11.06801758 109.79332031 11.20117188 108.1796875 C11.59929265 103.41403441 12.02924905 98.65468008 12.52734375 93.8984375 C14.86994322 79.03483414 14.86994322 79.03483414 11.09765625 65.4140625 C8.77222665 63.92910421 6.56699371 62.98423593 4 62 C1.27821006 59.82897226 0.15387593 57.51975971 -1.125 54.3125 C-1.45757812 53.50425781 -1.79015625 52.69601563 -2.1328125 51.86328125 C-4.62810527 43.62431908 -4.0368381 35.25953042 -3.75 26.75 C-3.72292969 25.50347656 -3.69585937 24.25695312 -3.66796875 22.97265625 C-3.40825787 14.95513008 -2.29883428 7.68772953 0 0 Z M31 3 C30.01 3.495 30.01 3.495 29 4 C28.88260801 10.88699657 29.00826196 17.74807786 29.375 24.625 C29.40585693 25.32367188 29.43671387 26.02234375 29.46850586 26.7421875 C29.6187685 30.81879822 29.6187685 30.81879822 32 34 C33.09911549 30.70265354 33.1139456 28.27041255 33.09765625 24.80078125 C33.09443359 23.59228516 33.09121094 22.38378906 33.08789062 21.13867188 C33.07951172 19.87603516 33.07113281 18.61339844 33.0625 17.3125 C33.05798828 16.03826172 33.05347656 14.76402344 33.04882812 13.45117188 C33.03702873 10.30073436 33.02056597 7.15039051 33 4 C32.34 3.67 31.68 3.34 31 3 Z M7 22 C7 24.97 7 27.94 7 31 C7.99 31.495 7.99 31.495 9 32 C9 28.7 9 25.4 9 22 C8.34 22 7.68 22 7 22 Z " fill="#333F47" transform="translate(156,157)"/>
<path d="M0 0 C5.00675819 2.86914796 8.57561847 6.51352895 11.99609375 11.1171875 C12.55296875 11.8596875 13.10984375 12.6021875 13.68359375 13.3671875 C18.91903717 24.33668801 19.8826309 36.82195405 16.43359375 48.4921875 C13.59038047 55.96318409 9.28569656 62.47238609 1.99609375 66.1171875 C0.82769524 68.45398453 0.92737077 69.62046647 1.046875 72.2109375 C1.08490234 73.06421631 1.12292969 73.91749512 1.16210938 74.79663086 C1.21044922 75.72741455 1.25878906 76.65819824 1.30859375 77.6171875 C1.35564453 78.57955322 1.40269531 79.54191895 1.45117188 80.53344727 C1.85741312 88.38180247 2.40115047 96.21857766 2.99609375 104.0546875 C3.07899658 105.14910156 3.16189941 106.24351562 3.24731445 107.37109375 C3.66506437 112.65794645 4.23775421 117.86714455 4.99609375 123.1171875 C5.15271643 125.34328365 5.25842846 127.57365228 5.30859375 129.8046875 C5.36466797 131.45017578 5.36466797 131.45017578 5.421875 133.12890625 C4.89929066 136.79658536 3.89404597 137.88759183 0.99609375 140.1171875 C-3.40077455 141.58281027 -7.31986689 141.52884157 -11.81640625 140.4296875 C-14.69858429 138.70038067 -14.99811029 137.28387542 -16.00390625 134.1171875 C-16.18676758 131.67407227 -16.18676758 131.67407227 -16.0859375 129.05859375 C-16.04976318 128.05054688 -16.01358887 127.0425 -15.97631836 126.00390625 C-15.92354736 124.90691406 -15.87077637 123.80992187 -15.81640625 122.6796875 C-15.76814697 121.52984375 -15.7198877 120.38 -15.67016602 119.1953125 C-14.97482246 104.29370032 -13.70731302 89.42278553 -12.43569946 74.5610199 C-12.19741956 71.73460663 -12.00390625 68.95531428 -12.00390625 66.1171875 C-13.48890625 65.6221875 -13.48890625 65.6221875 -15.00390625 65.1171875 C-15.00390625 64.4571875 -15.00390625 63.7971875 -15.00390625 63.1171875 C-15.89916016 62.98183594 -15.89916016 62.98183594 -16.8125 62.84375 C-21.3392757 61.34289388 -23.83538278 56.2744616 -26.01953125 52.2421875 C-30.55787918 42.27561949 -30.66338807 28.39858879 -27.00390625 18.1171875 C-25.52806258 14.67018277 -24.06575478 11.25584712 -22.00390625 8.1171875 C-21.01390625 7.7871875 -20.02390625 7.4571875 -19.00390625 7.1171875 C-18.68808594 6.48296875 -18.37226563 5.84875 -18.046875 5.1953125 C-14.99361635 -0.88833394 -5.81204402 -2.56047164 0 0 Z " fill="#313E46" transform="translate(419.00390625,157.8828125)"/>
<path d="M0 0 C1.26694663 2.28050393 2.01923072 4.10336512 2.5 6.6875 C2.665 7.450625 2.83 8.21375 3 9 C3.99 9.495 3.99 9.495 5 10 C4.98839844 10.82242188 4.97679687 11.64484375 4.96484375 12.4921875 C4.90898042 19.40327971 5.13305966 26.14188265 6 33 C8.31 32.34 10.62 31.68 13 31 C13.33 31.33 13.66 31.66 14 32 C14 23.42 14 14.84 14 6 C14.33 6 14.66 6 15 6 C19.96493002 24.20474341 17.87113685 42.28212081 12 60 C11.03378796 61.68647919 10.03596152 63.35544489 9 65 C8.66871094 65.8353125 8.33742188 66.670625 7.99609375 67.53125 C6.94752393 70.13005833 5.65468606 72.19882523 4.0625 74.5 C2.42377345 76.89079913 0.87040916 79.22807988 -0.5625 81.75 C-3.64149819 86.56930151 -8.17397705 90.06508109 -12.546875 93.66796875 C-14.12779183 94.9579691 -14.12779183 94.9579691 -15 97 C-16.485 97.495 -16.485 97.495 -18 98 C-18.66 98.99 -19.32 99.98 -20 101 C-22.25851462 102.25950118 -24.47799892 103.40338308 -26.8125 104.5 C-31.82500145 106.89550234 -31.82500145 106.89550234 -36.6640625 109.62109375 C-54.12437101 119.92793138 -80.11231825 117.49417508 -99 113 C-102.08122686 112.12415831 -105.00519526 111.1434709 -108 110 C-102.55264576 108.40274515 -97.44637219 109.88279545 -92 111 C-90.96875 111.165 -89.9375 111.33 -88.875 111.5 C-86 112 -86 112 -83 113 C-81.40574444 113.09303627 -79.80790401 113.13069008 -78.2109375 113.1328125 C-77.26863281 113.13410156 -76.32632812 113.13539063 -75.35546875 113.13671875 C-73.88013672 113.13091797 -73.88013672 113.13091797 -72.375 113.125 C-70.93447266 113.13080078 -70.93447266 113.13080078 -69.46484375 113.13671875 C-63.56291079 113.1287107 -57.85304123 112.76029195 -52 112 C-52 111.34 -52 110.68 -52 110 C-49.03 109.01 -49.03 109.01 -46 108 C-46 107.01 -46 106.02 -46 105 C-45.31292969 105.08378906 -44.62585938 105.16757812 -43.91796875 105.25390625 C-43.01691406 105.35574219 -42.11585938 105.45757812 -41.1875 105.5625 C-39.84751953 105.71912109 -39.84751953 105.71912109 -38.48046875 105.87890625 C-35.86624428 106.15658709 -35.86624428 106.15658709 -33 105 C-33 104.34 -33 103.68 -33 103 C-32.34 103 -31.68 103 -31 103 C-31 102.34 -31 101.68 -31 101 C-29.68 101 -28.36 101 -27 101 C-26.505 99.515 -26.505 99.515 -26 98 C-25.360625 97.690625 -24.72125 97.38125 -24.0625 97.0625 C-21.50168001 95.7432897 -20.97119319 94.67078127 -20 92 C-20 91.01 -20 90.02 -20 89 C-21.65 88.67 -23.3 88.34 -25 88 C-25 88.99 -25 89.98 -25 91 C-26.485 91.495 -26.485 91.495 -28 92 C-27.67 93.65 -27.34 95.3 -27 97 C-29.97 96.01 -32.94 95.02 -36 94 C-33.1709277 91.1709277 -32.61855575 90.62388892 -29 90 C-29 89.34 -29 88.68 -29 88 C-27.01399663 86.6459068 -25.01182457 85.31542376 -23 84 C-22.2575 83.2575 -21.515 82.515 -20.75 81.75 C-20.1725 81.1725 -19.595 80.595 -19 80 C-18.34 80 -17.68 80 -17 80 C-16.73832031 79.43539062 -16.47664063 78.87078125 -16.20703125 78.2890625 C-14.89309377 75.79725874 -13.35478358 73.64487166 -11.6875 71.375 C-3.63972479 59.93780909 1.49621876 47.08397107 2 33 C2.03996094 32.07832031 2.07992187 31.15664062 2.12109375 30.20703125 C2.34397056 20.28245789 1.37046306 10.37498549 -2 1 C-1.34 0.67 -0.68 0.34 0 0 Z " fill="#DE7F2E" transform="translate(366,201)"/>
<path d="M0 0 C1.13757269 1.13757269 2.26840083 2.28351976 3.34765625 3.4765625 C23.60806747 22.15637426 54.00374548 23.02102695 79.79199219 22.2265625 C88.24610256 21.85576404 96.08738128 19.90856817 104 17 C104.6408252 16.77538086 105.28165039 16.55076172 105.94189453 16.31933594 C116.17515323 12.65679427 125.69352102 6.95903514 134.23046875 0.24609375 C136.58304937 -1.41058002 138.18799029 -1.30400105 141 -1 C142 0 142 0 142.3671875 2.8125 C142 6 142 6 139.9453125 8.125 C139.01460937 8.74375 138.08390625 9.3625 137.125 10 C135.61679687 11.01320313 135.61679687 11.01320313 134.078125 12.046875 C132.55445313 13.01367188 132.55445313 13.01367188 131 14 C129.69289063 14.84304688 129.69289063 14.84304688 128.359375 15.703125 C111.65847498 26.1017986 91.62459305 31.97663165 72 33 C70.52273438 33.09667969 70.52273438 33.09667969 69.015625 33.1953125 C45.78671332 34.01323193 15.94444554 26.19538065 -2 11 C-2.66644531 10.49597656 -3.33289063 9.99195313 -4.01953125 9.47265625 C-8.90396514 5.63108624 -8.90396514 5.63108624 -9.4375 2.125 C-9.2209375 1.073125 -9.2209375 1.073125 -9 0 C-5.37580435 -1.20806522 -3.66716248 -1.0268055 0 0 Z " fill="#CF8545" transform="translate(227,315)"/>
<path d="M0 0 C2.94451736 2.54504236 2.94451736 2.54504236 3.3125 5.5625 C3 8 3 8 1 10 C-2.90578709 9.69955484 -4.33581772 8.6840149 -7 6 C-8.99857641 4.7261326 -11.06689137 3.64273676 -13.15625 2.5234375 C-15.27483037 1.38848373 -17.37649603 0.22184571 -19.46875 -0.9609375 C-45.16702939 -15.36356615 -73.75103627 -17.29473027 -102 -10 C-114.9098286 -6.24039253 -127.55215858 0.88123293 -138.10546875 9.19921875 C-140 10 -140 10 -142.73828125 9.14453125 C-143.48464844 8.76683594 -144.23101562 8.38914063 -145 8 C-145.30326045 4.95693825 -145.41725983 3.5189272 -143.4609375 1.0859375 C-139.46361635 -2.19276411 -135.74561171 -4.85317566 -131 -7 C-130.34 -7.66 -129.68 -8.32 -129 -9 C-127.34015202 -9.68346682 -125.67163195 -10.34588315 -124 -11 C-122.76608938 -11.61558125 -121.53733371 -12.24155065 -120.3125 -12.875 C-112.76391104 -16.67767264 -105.30579091 -19.44724475 -97 -21 C-96.14132324 -21.16822266 -95.28264648 -21.33644531 -94.39794922 -21.50976562 C-60.25117294 -27.7726468 -28.20561598 -19.85203633 0 0 Z " fill="#D18A4B" transform="translate(365,129)"/>
<path d="M0 0 C6.06733524 -0.66189112 6.06733524 -0.66189112 8.9375 1.375 C10 3 10 3 10 5 C10.66 5 11.32 5 12 5 C12.33 5.99 12.66 6.98 13 8 C13.66 8.33 14.32 8.66 15 9 C15 9.66 15 10.32 15 11 C16.32 11 17.64 11 19 11 C27.81556849 20.80789688 31.95866708 36.20057219 32 49 C32.00692871 49.79680176 32.01385742 50.59360352 32.02099609 51.41455078 C32.06735769 56.94394357 32.05254869 62.47070985 32 68 C31.40703125 67.65195313 30.8140625 67.30390625 30.203125 66.9453125 C27.8703187 65.67493316 27.8703187 65.67493316 24.75 66.875 C23.8425 67.24625 22.935 67.6175 22 68 C21.33501266 62.07448778 20.98377504 56.33922374 21.1875 50.375 C21.26592775 44.40736136 19.97342429 40.13712143 17 35 C16.34 35 15.68 35 15 35 C14.5153125 33.96101563 14.030625 32.92203125 13.53125 31.8515625 C9.89342521 24.22814601 6.35166332 17.4830166 0.56640625 11.2109375 C-1.39983729 8.43564113 -1.82335365 6.37892767 -2 3 C-1.34 2.01 -0.68 1.02 0 0 Z " fill="#E17D29" transform="translate(349,167)"/>
<path d="M0 0 C0.495 0.99 0.495 0.99 1 2 C-1.21737957 7.15363563 -4.38227885 11.73625721 -8 16 C-8.33 16.66 -8.66 17.32 -9 18 C-7.68 17.34 -6.36 16.68 -5 16 C-4.505 17.98 -4.505 17.98 -4 20 C-1.61435923 19.42415568 0.66682784 18.77772405 3 18 C1.50104329 21.81552617 -0.7986856 23.53745046 -4 26 C-4.33 26.66 -4.66 27.32 -5 28 C-6.485 28.495 -6.485 28.495 -8 29 C-8.99 30.485 -8.99 30.485 -10 32 C-12.25851462 33.25950118 -14.47799892 34.40338308 -16.8125 35.5 C-21.82500145 37.89550234 -21.82500145 37.89550234 -26.6640625 40.62109375 C-44.12437101 50.92793138 -70.11231825 48.49417508 -89 44 C-92.08122686 43.12415831 -95.00519526 42.1434709 -98 41 C-92.55264576 39.40274515 -87.44637219 40.88279545 -82 42 C-80.96875 42.165 -79.9375 42.33 -78.875 42.5 C-76 43 -76 43 -73 44 C-71.40574444 44.09303627 -69.80790401 44.13069008 -68.2109375 44.1328125 C-67.26863281 44.13410156 -66.32632812 44.13539063 -65.35546875 44.13671875 C-63.88013672 44.13091797 -63.88013672 44.13091797 -62.375 44.125 C-61.41464844 44.12886719 -60.45429688 44.13273437 -59.46484375 44.13671875 C-53.56291079 44.1287107 -47.85304123 43.76029195 -42 43 C-42 42.34 -42 41.68 -42 41 C-40.02 40.34 -38.04 39.68 -36 39 C-36 38.01 -36 37.02 -36 36 C-35.31292969 36.08378906 -34.62585938 36.16757812 -33.91796875 36.25390625 C-33.01691406 36.35574219 -32.11585938 36.45757812 -31.1875 36.5625 C-29.84751953 36.71912109 -29.84751953 36.71912109 -28.48046875 36.87890625 C-25.86624428 37.15658709 -25.86624428 37.15658709 -23 36 C-23 35.34 -23 34.68 -23 34 C-22.34 34 -21.68 34 -21 34 C-21 33.34 -21 32.68 -21 32 C-19.68 32 -18.36 32 -17 32 C-16.505 30.515 -16.505 30.515 -16 29 C-15.0409375 28.5359375 -15.0409375 28.5359375 -14.0625 28.0625 C-11.50168001 26.7432897 -10.97119319 25.67078127 -10 23 C-10 22.01 -10 21.02 -10 20 C-11.65 19.67 -13.3 19.34 -15 19 C-15 19.99 -15 20.98 -15 22 C-16.485 22.495 -16.485 22.495 -18 23 C-17.505 25.475 -17.505 25.475 -17 28 C-19.97 27.01 -22.94 26.02 -26 25 C-23.1709277 22.1709277 -22.61855575 21.62388892 -19 21 C-19 20.34 -19 19.68 -19 19 C-17.01399663 17.6459068 -15.01182457 16.31542376 -13 15 C-12.2575 14.2575 -11.515 13.515 -10.75 12.75 C-10.1725 12.1725 -9.595 11.595 -9 11 C-8.34 11 -7.68 11 -7 11 C-6.773125 10.484375 -6.54625 9.96875 -6.3125 9.4375 C-4.5024447 6.07596873 -2.26003596 3.07088856 0 0 Z " fill="#D0823E" transform="translate(356,270)"/>
<path d="M0 0 C0.72832031 0.22816406 1.45664062 0.45632812 2.20703125 0.69140625 C4.125 1.375 4.125 1.375 7 3 C8.26808584 5.90913809 8.24701182 7.25896455 7.25 10.25 C6 12 6 12 3 13 C0.2364928 13.28455916 -2.19366639 13.17817991 -5 13 C-5.66 12.01 -6.32 11.02 -7 10 C-9.32877383 9.52942018 -9.32877383 9.52942018 -11.9375 9.5 C-16.60248306 9.33511106 -16.60248306 9.33511106 -18.81640625 7.46875 C-19.20699219 6.9840625 -19.59757812 6.499375 -20 6 C-19.34 5.34 -18.68 4.68 -18 4 C-17.35232207 1.42938689 -17.35232207 1.42938689 -17 -1 C-20.02419525 -0.41196203 -23.01758453 0.22678118 -26 1 C-26 0.67 -26 0.34 -26 0 C-28.97 -0.495 -28.97 -0.495 -32 -1 C-32 -1.33 -32 -1.66 -32 -2 C-20.77186328 -3.4970849 -10.82379676 -3.68722747 0 0 Z " fill="#DE7B2B" transform="translate(321,143)"/>
<path d="M0 0 C1.32 0.66 2.64 1.32 4 2 C4 3.65 4 5.3 4 7 C2.68 7.33 1.36 7.66 0 8 C-0.09667969 8.61230469 -0.19335938 9.22460938 -0.29296875 9.85546875 C-1.15974414 12.48452779 -1.96773006 12.93174683 -4.3125 14.3125 C-8.31658349 16.94893357 -9.90695891 19.73019619 -12 24 C-12.66 24 -13.32 24 -14 24 C-14.66 25.32 -15.32 26.64 -16 28 C-17.32 27.01 -18.64 26.02 -20 25 C-20.66 25.33 -21.32 25.66 -22 26 C-21.01 27.32 -20.02 28.64 -19 30 C-19.99 30.33 -20.98 30.66 -22 31 C-23.22520264 34.00847418 -23.22520264 34.00847418 -24 37 C-24.99 36.67 -25.98 36.34 -27 36 C-27 33.69 -27 31.38 -27 29 C-27.66 29 -28.32 29 -29 29 C-28.505 27.515 -28.505 27.515 -28 26 C-27.34 25.67 -26.68 25.34 -26 25 C-25.34 24.01 -24.68 23.02 -24 22 C-23.01 21.67 -22.02 21.34 -21 21 C-18.3026994 18.04581363 -16.27155527 15.8146658 -15 12 C-14.01 11.67 -13.02 11.34 -12 11 C-11.360625 10.195625 -10.72125 9.39125 -10.0625 8.5625 C-8.00109246 6.0013573 -6.87266838 5.3465633 -4 4 C-2.62913085 2.70529025 -1.28659163 1.37849103 0 0 Z M0 5 C0.33 5.66 0.66 6.32 1 7 C1.66 6.34 2.32 5.68 3 5 C2.01 5 1.02 5 0 5 Z M-9 12 C-8.34 12.66 -7.68 13.32 -7 14 C-7 13.34 -7 12.68 -7 12 C-7.66 12 -8.32 12 -9 12 Z M-13 16 C-13 16.66 -13 17.32 -13 18 C-12.34 17.67 -11.68 17.34 -11 17 C-11.66 16.67 -12.32 16.34 -13 16 Z M-17 19 C-17 19.99 -17 20.98 -17 22 C-15.68 21.67 -14.36 21.34 -13 21 C-13.33 20.34 -13.66 19.68 -14 19 C-14.99 19 -15.98 19 -17 19 Z " fill="#B3B4B0" transform="translate(521,129)"/>
<path d="M0 0 C1.98 0 3.96 0 6 0 C6 0.66 6 1.32 6 2 C7.82337891 2.19916016 7.82337891 2.19916016 9.68359375 2.40234375 C11.26825484 2.58050091 12.8528889 2.75889875 14.4375 2.9375 C15.23994141 3.02451172 16.04238281 3.11152344 16.86914062 3.20117188 C22.88671875 3.88671875 22.88671875 3.88671875 24 5 C26.31786602 5.07576583 28.6380182 5.08303865 30.95703125 5.0625 C31.65640305 5.05871338 32.35577484 5.05492676 33.07633972 5.05102539 C36.07806447 5.03463771 39.07965497 5.00662423 42.08129883 4.97949219 C44.26903654 4.96137822 46.4567518 4.94929692 48.64453125 4.9375 C50.61450073 4.92009766 50.61450073 4.92009766 52.62426758 4.90234375 C55.36354349 4.98158801 57.39261465 5.34566675 60 6 C60.99 5.67 61.98 5.34 63 5 C63 5.66 63 6.32 63 7 C62.34 7 61.68 7 61 7 C61 7.66 61 8.32 61 9 C57.14802566 11.56798289 54.0525664 11.22660782 49.59765625 11.1171875 C48.34824501 11.09387863 48.34824501 11.09387863 47.07359314 11.07009888 C45.30569557 11.03326574 43.53790655 10.99086889 41.77026367 10.94335938 C39.10394333 10.87604627 36.43840238 10.83932601 33.77148438 10.8046875 C24.20330666 10.61182364 15.90358012 9.87128371 7 6 C6.25210205 5.69465332 5.5042041 5.38930664 4.73364258 5.07470703 C3.14286778 4.41333629 1.56836242 3.71289201 0 3 C0 2.01 0 1.02 0 0 Z " fill="#DE7F30" transform="translate(255,335)"/>
<path d="M0 0 C1 1 1 1 1.3671875 3.8125 C1 7 1 7 -1.0546875 9.125 C-2.45074219 10.053125 -2.45074219 10.053125 -3.875 11 C-4.87660156 11.67417969 -5.87820313 12.34835937 -6.91015625 13.04296875 C-20.8157598 21.85043699 -20.8157598 21.85043699 -26 24 C-26.99 23.67 -27.98 23.34 -29 23 C-28.34 20.36 -27.68 17.72 -27 15 C-26.21625 14.9175 -25.4325 14.835 -24.625 14.75 C-23.75875 14.5025 -22.8925 14.255 -22 14 C-21.72671875 13.39800781 -21.4534375 12.79601562 -21.171875 12.17578125 C-19.56304087 9.18871254 -17.515353 8.16938712 -14.625 6.4375 C-10.61639055 4.02144956 -10.61639055 4.02144956 -6.81640625 1.30078125 C-4.43427343 -0.40513322 -2.86429395 -0.3096534 0 0 Z " fill="#CF8B4E" transform="translate(368,314)"/>
<path d="M0 0 C1.21429688 0.00193359 2.42859375 0.00386719 3.6796875 0.00585938 C4.94554687 0.01810547 6.21140625 0.03035156 7.515625 0.04296875 C8.76601563 0.04361328 10.01640625 0.04425781 11.3046875 0.04492188 C27.33101857 0.12115707 27.33101857 0.12115707 34.765625 2.79296875 C35.52875 3.06238281 36.291875 3.33179687 37.078125 3.609375 C37.635 3.81433594 38.191875 4.01929687 38.765625 4.23046875 C38.435625 5.55046875 38.105625 6.87046875 37.765625 8.23046875 C30.015625 8.35546875 30.015625 8.35546875 27.765625 7.23046875 C25.28729841 7.07420299 22.83251169 6.97233677 20.3515625 6.9140625 C19.62192291 6.8932814 18.89228333 6.87250031 18.14053345 6.85108948 C15.80732737 6.78564958 13.47400779 6.72673507 11.140625 6.66796875 C9.55988405 6.62477822 7.97915461 6.58116376 6.3984375 6.53710938 C2.52094996 6.42997394 -1.35665185 6.32869093 -5.234375 6.23046875 C-5.234375 5.57046875 -5.234375 4.91046875 -5.234375 4.23046875 C-7.214375 4.23046875 -9.194375 4.23046875 -11.234375 4.23046875 C-8.96780177 -0.30267772 -4.57376955 -0.0170663 0 0 Z " fill="#DA7D30" transform="translate(283.234375,106.76953125)"/>
<path d="M0 0 C-0.99 0.33 -1.98 0.66 -3 1 C-3 1.66 -3 2.32 -3 3 C-5.64 3 -8.28 3 -11 3 C-11 3.66 -11 4.32 -11 5 C-17.38564274 7.87979967 -17.38564274 7.87979967 -20.875 8.5625 C-21.57625 8.706875 -22.2775 8.85125 -23 9 C-23.33 9.66 -23.66 10.32 -24 11 C-24.99 11.33 -25.98 11.66 -27 12 C-27.33 12.66 -27.66 13.32 -28 14 C-28.33 14.66 -28.66 15.32 -29 16 C-29.99 16.33 -30.98 16.66 -32 17 C-32.33 17.99 -32.66 18.98 -33 20 C-32.01 19.34 -31.02 18.68 -30 18 C-28.68 18 -27.36 18 -26 18 C-26 17.34 -26 16.68 -26 16 C-24.68 16.33 -23.36 16.66 -22 17 C-22.61746094 17.36351563 -23.23492187 17.72703125 -23.87109375 18.1015625 C-24.71800781 18.60429687 -25.56492188 19.10703125 -26.4375 19.625 C-27.34757812 20.16382813 -28.25765625 20.70265625 -29.1953125 21.2578125 C-32.56995612 23.3540396 -35.74094027 25.67974415 -38.89453125 28.09375 C-41 29 -41 29 -43.76171875 28.15625 C-44.50035156 27.7746875 -45.23898438 27.393125 -46 27 C-46.30326045 23.95693825 -46.41725983 22.5189272 -44.4609375 20.0859375 C-40.46361635 16.80723589 -36.74561171 14.14682434 -32 12 C-31.34 11.34 -30.68 10.68 -30 10 C-28.34015202 9.31653318 -26.67163195 8.65411685 -25 8 C-23.76608938 7.38441875 -22.53733371 6.75844935 -21.3125 6.125 C-7.76346127 -0.67508359 -7.76346127 -0.67508359 0 0 Z " fill="#D87D31" transform="translate(266,110)"/>
<path d="M0 0 C-0.75 7.75 -0.75 7.75 -3 10 C-3 10.33 -3 10.66 -3 11 C-5.31 11 -7.62 11 -10 11 C-10 11.99 -10 12.98 -10 14 C-12.31 13.67 -14.62 13.34 -17 13 C-17.33 14.32 -17.66 15.64 -18 17 C-19.65 16.67 -21.3 16.34 -23 16 C-23.33 16.66 -23.66 17.32 -24 18 C-25.32 17.67 -26.64 17.34 -28 17 C-27.67 15.68 -27.34 14.36 -27 13 C-25.35 13 -23.7 13 -22 13 C-22 12.01 -22 11.02 -22 10 C-21.360625 9.7525 -20.72125 9.505 -20.0625 9.25 C-17.81258459 8.18437567 -17.81258459 8.18437567 -17.25 5.875 C-17.1675 5.25625 -17.085 4.6375 -17 4 C-16.01 4 -15.02 4 -14 4 C-14 3.34 -14 2.68 -14 2 C-9.35150485 -0.3992233 -5.08913926 -0.19957409 0 0 Z " fill="#E07B28" transform="translate(263,149)"/>
<path d="M0 0 C3.55028333 0.53792172 6.49180596 1.63398063 9.75390625 3.1015625 C14.7097161 5.08388644 19.88593199 6.48500542 25 8 C21.28125 10.046875 21.28125 10.046875 18.75 9.625 C18.1725 9.41875 17.595 9.2125 17 9 C17 8.34 17 7.68 17 7 C15.02 7 13.04 7 11 7 C11 7.99 11 8.98 11 10 C12.29093133 10.43966502 13.58280836 10.87655299 14.875 11.3125 C15.59429687 11.55613281 16.31359375 11.79976563 17.0546875 12.05078125 C18.02664063 12.36402344 18.99859375 12.67726563 20 13 C20.66443115 13.2484668 21.3288623 13.49693359 22.01342773 13.75292969 C29.69808223 16.41321735 37.24901914 16.51950564 45.3125 16.625 C47.97544603 16.67338826 50.63801728 16.73062778 53.30078125 16.7890625 C54.46778564 16.80662598 55.63479004 16.82418945 56.8371582 16.84228516 C59.67128794 16.9836088 62.24255301 17.35503234 65 18 C65 18.33 65 18.66 65 19 C44.48100847 21.64761181 23.85862035 18.89593147 4.6875 10.9375 C3.90761719 10.61652344 3.12773437 10.29554688 2.32421875 9.96484375 C1.55722656 9.64644531 0.79023438 9.32804687 0 9 C-1.66586205 8.3313253 -3.33231747 7.66412136 -5 7 C-5 6.67 -5 6.34 -5 6 C-1.16774573 5.91087781 2.26562152 6.12132271 6 7 C6 6.34 6 5.68 6 5 C5.01 4.67 4.02 4.34 3 4 C3 3.34 3 2.68 3 2 C2.01 2 1.02 2 0 2 C0 1.34 0 0.68 0 0 Z " fill="#D28A51" transform="translate(244,328)"/>
<path d="M0 0 C0.680625 0.309375 1.36125 0.61875 2.0625 0.9375 C5.36965912 2.13370649 8.51545878 2.59005397 12 3 C11.34 4.65 10.68 6.3 10 8 C9.34 8 8.68 8 8 8 C7.9071875 9.60875 7.9071875 9.60875 7.8125 11.25 C7 15 7 15 4.75 17.3125 C2.18012055 18.88947148 -0.11039211 20.14092738 -3 21 C-5 20 -5 20 -7 17 C-7.99 17.33 -8.98 17.66 -10 18 C-8.62500205 13.60000657 -6.18094885 10.52083169 -3.3984375 6.9375 C-1.81392019 4.7421911 -0.80702874 2.58249196 0 0 Z " fill="#E07C29" transform="translate(357,270)"/>
<path d="M0 0 C0.74886475 0.00523682 1.49772949 0.01047363 2.26928711 0.01586914 C3.07817383 0.0190918 3.88706055 0.02231445 4.72045898 0.02563477 C5.5705957 0.03401367 6.42073242 0.04239258 7.29663086 0.05102539 C8.15063477 0.05553711 9.00463867 0.06004883 9.88452148 0.06469727 C12.00108749 0.07652166 14.11761771 0.0944577 16.23413086 0.11352539 C16.23413086 0.44352539 16.23413086 0.77352539 16.23413086 1.11352539 C15.09975586 1.23727539 13.96538086 1.36102539 12.79663086 1.48852539 C11.03319336 1.79790039 11.03319336 1.79790039 9.23413086 2.11352539 C8.90413086 2.77352539 8.57413086 3.43352539 8.23413086 4.11352539 C7.24413086 4.11352539 6.25413086 4.11352539 5.23413086 4.11352539 C5.30631836 4.79415039 5.37850586 5.47477539 5.45288086 6.17602539 C6.2827688 14.84374392 6.33344398 23.41810953 6.23413086 32.11352539 C5.90413086 32.11352539 5.57413086 32.11352539 5.23413086 32.11352539 C5.10135742 31.41485352 4.96858398 30.71618164 4.83178711 29.99633789 C4.65518555 29.08625977 4.47858398 28.17618164 4.29663086 27.23852539 C4.12260742 26.33360352 3.94858398 25.42868164 3.76928711 24.49633789 C3.33449385 22.11396222 3.33449385 22.11396222 2.23413086 20.11352539 C1.24413086 20.44352539 0.25413086 20.77352539 -0.76586914 21.11352539 C-1.09586914 22.76352539 -1.42586914 24.41352539 -1.76586914 26.11352539 C-2.09586914 26.11352539 -2.42586914 26.11352539 -2.76586914 26.11352539 C-2.79473665 21.96770652 -2.81262242 17.82191323 -2.82836914 13.67602539 C-2.83674805 12.49202148 -2.84512695 11.30801758 -2.85375977 10.08813477 C-2.85698242 8.96342773 -2.86020508 7.8387207 -2.86352539 6.67993164 C-2.86876221 5.63780518 -2.87399902 4.59567871 -2.87939453 3.52197266 C-2.72162907 0.17496993 -2.72162907 0.17496993 0 0 Z " fill="#4E575C" transform="translate(179.765869140625,156.886474609375)"/>
<path d="M0 0 C0.66 0 1.32 0 2 0 C5 5.625 5 5.625 5 9 C5.66 9 6.32 9 7 9 C7 9.66 7 10.32 7 11 C7.928125 11.1546875 7.928125 11.1546875 8.875 11.3125 C11 12 11 12 13 15 C12.67 15.66 12.34 16.32 12 17 C13.32 17 14.64 17 16 17 C15.835 15.88625 15.67 14.7725 15.5 13.625 C15 10 15 10 15 8 C14.01 8.495 14.01 8.495 13 9 C13.375 7.0625 13.375 7.0625 14 5 C14.66 4.67 15.32 4.34 16 4 C17.70884005 5.62339805 19.37446717 7.29319053 21 9 C21 9.66 21 10.32 21 11 C21.66 11 22.32 11 23 11 C24.34331654 12.99330842 25.67594012 14.99384866 27 17 C27.99 17.66 28.98 18.32 30 19 C30 19.66 30 20.32 30 21 C29.01 21 28.02 21 27 21 C26.67 22.32 26.34 23.64 26 25 C25.67 25 25.34 25 25 25 C25 22.36 25 19.72 25 17 C23.35 17.33 21.7 17.66 20 18 C19.67 19.32 19.34 20.64 19 22 C18.34 22 17.68 22 17 22 C16.67 22.99 16.34 23.98 16 25 C15.34 24.67 14.68 24.34 14 24 C14 23.34 14 22.68 14 22 C13.01 21.67 12.02 21.34 11 21 C9.359674 18.81874653 7.88632595 16.67704972 6.4375 14.375 C6.03853516 13.77042969 5.63957031 13.16585938 5.22851562 12.54296875 C2.61503646 8.45040872 1.12346571 4.72462879 0 0 Z " fill="#DD7B2E" transform="translate(211,263)"/>
<path d="M0 0 C1 1 1 1 1.125 4.4375 C1 8 1 8 0 10 C-1.8125 10.59765625 -1.8125 10.59765625 -4 11.0625 C-6.77114877 11.51706623 -6.77114877 11.51706623 -9 13 C-9.99 13.66 -10.98 14.32 -12 15 C-12.66 15.66 -13.32 16.32 -14 17 C-14.66 17.33 -15.32 17.66 -16 18 C-16.66 17.67 -17.32 17.34 -18 17 C-18 17.66 -18 18.32 -18 19 C-19.32 18.34 -20.64 17.68 -22 17 C-20.63016497 13.83884224 -20.0109362 13.0072908 -17 11 C-17 10.01 -17 9.02 -17 8 C-15.06640625 6.46484375 -15.06640625 6.46484375 -12.5625 4.9375 C-9.18407643 3.02575478 -9.18407643 3.02575478 -7 0 C-3.86350275 -1.04549908 -3.0051095 -1.00170317 0 0 Z " fill="#6B6960" transform="translate(414,30)"/>
<path d="M0 0 C0.33 0.66 0.66 1.32 1 2 C-1.21737957 7.15363563 -4.38227885 11.73625721 -8 16 C-8.33 16.66 -8.66 17.32 -9 18 C-7.68 17.34 -6.36 16.68 -5 16 C-4.67 17.32 -4.34 18.64 -4 20 C-1.61435923 19.42415568 0.66682784 18.77772405 3 18 C1.49921893 21.82017001 -0.59183281 23.75370799 -4 26 C-5.99110401 26.38290462 -7.99100513 26.72604615 -10 27 C-10.33 27.66 -10.66 28.32 -11 29 C-11.33 28.34 -11.66 27.68 -12 27 C-11.3507041 25.65812182 -10.68268138 24.32520503 -10 23 C-10 22.01 -10 21.02 -10 20 C-11.65 19.67 -13.3 19.34 -15 19 C-15 19.99 -15 20.98 -15 22 C-15.99 22.33 -16.98 22.66 -18 23 C-17.67 24.65 -17.34 26.3 -17 28 C-19.97 27.01 -22.94 26.02 -26 25 C-23.1709277 22.1709277 -22.61855575 21.62388892 -19 21 C-19 20.34 -19 19.68 -19 19 C-17.01399663 17.6459068 -15.01182457 16.31542376 -13 15 C-12.2575 14.2575 -11.515 13.515 -10.75 12.75 C-10.1725 12.1725 -9.595 11.595 -9 11 C-8.34 11 -7.68 11 -7 11 C-6.773125 10.484375 -6.54625 9.96875 -6.3125 9.4375 C-4.5024447 6.07596873 -2.26003596 3.07088856 0 0 Z " fill="#DD7C2B" transform="translate(356,270)"/>
<path d="M0 0 C0.66 1.32 1.32 2.64 2 4 C-0.97 4 -3.94 4 -7 4 C-7 4.66 -7 5.32 -7 6 C-17.37357631 9.44419134 -17.37357631 9.44419134 -23 9 C-23 9.66 -23 10.32 -23 11 C-24.98 11.99 -24.98 11.99 -27 13 C-27 13.66 -27 14.32 -27 15 C-28.32 15 -29.64 15 -31 15 C-31 15.66 -31 16.32 -31 17 C-33.31 17.66 -35.62 18.32 -38 19 C-37.67 17.68 -37.34 16.36 -37 15 C-36.01 15 -35.02 15 -34 15 C-33.34 13.35 -32.68 11.7 -32 10 C-31.01 10 -30.02 10 -29 10 C-28.67 9.01 -28.34 8.02 -28 7 C-26.0390625 6.05078125 -26.0390625 6.05078125 -23.625 5.3125 C-22.43777344 4.93544922 -22.43777344 4.93544922 -21.2265625 4.55078125 C-19 4 -19 4 -16 4 C-16 3.34 -16 2.68 -16 2 C-13.36 2 -10.72 2 -8 2 C-8 1.34 -8 0.68 -8 0 C-4.66411172 -1.11196276 -3.29427581 -1.09809194 0 0 Z " fill="#DA7D2E" transform="translate(271,111)"/>
<path d="M0 0 C3.55939536 1.18646512 3.73196558 1.71208007 5.375 4.9375 C14.72805046 24.92289354 15.30934972 43.37719185 8 64 C7.67 64 7.34 64 7 64 C7 61.69 7 59.38 7 57 C7.66 57 8.32 57 9 57 C8.979375 56.05125 8.95875 55.1025 8.9375 54.125 C9 51 9 51 10 49 C10.94364793 41.03313631 9.58598689 33.10098744 8.3125 25.25 C8.16401611 24.26813721 8.01553223 23.28627441 7.86254883 22.2746582 C6.87993055 16.59853611 5.48000233 12.38590776 2.09179688 7.69628906 C0.52000497 5.25424744 0.21426178 2.85682376 0 0 Z " fill="#CE7C35" transform="translate(348,191)"/>
<path d="M0 0 C1.58172092 3.16344185 -0.0601894 5.71066289 -1 9 C-0.67 9.66 -0.34 10.32 0 11 C-0.99 11 -1.98 11 -3 11 C-3 11.99 -3 12.98 -3 14 C-3.45375 14.391875 -3.9075 14.78375 -4.375 15.1875 C-9.38034792 20.77038806 -8.59184325 30.9539255 -9 38 C-9.66 38 -10.32 38 -11 38 C-10.93941406 38.56920166 -10.87882813 39.13840332 -10.81640625 39.72485352 C-10.5405197 42.33702165 -10.27022255 44.94974011 -10 47.5625 C-9.90460938 48.45775391 -9.80921875 49.35300781 -9.7109375 50.27539062 C-9.20432035 55.21490788 -8.89102618 60.03488014 -9 65 C-15.86159824 54.70760264 -13.0772431 39.39854284 -11 28 C-10.81695312 26.93394531 -10.63390625 25.86789063 -10.4453125 24.76953125 C-8.90309344 16.95371737 -5.88654723 5.88654723 0 0 Z " fill="#CD925E" transform="translate(216,183)"/>
<path d="M0 0 C2.31 0 4.62 0 7 0 C5.11655547 1.25562968 3.22680225 2.5019003 1.328125 3.734375 C-8.50256479 10.17173024 -15.33251649 16.04631959 -22.1796875 25.5859375 C-22.78039062 26.38257813 -23.38109375 27.17921875 -24 28 C-24.33 28 -24.66 28 -25 28 C-25 26.02 -25 24.04 -25 22 C-24.01 22 -23.02 22 -22 22 C-22 21.01 -22 20.02 -22 19 C-21.01 19 -20.02 19 -19 19 C-19 17.35 -19 15.7 -19 14 C-18.01 13.67 -17.02 13.34 -16 13 C-16 11.02 -16 9.04 -16 7 C-15.01 7 -14.02 7 -13 7 C-13 6.34 -13 5.68 -13 5 C-11.35 5 -9.7 5 -8 5 C-7.67 4.01 -7.34 3.02 -7 2 C-4.69 2.33 -2.38 2.66 0 3 C0 2.01 0 1.02 0 0 Z " fill="#D87B30" transform="translate(253,160)"/>
<path d="M0 0 C0.66 0.66 1.32 1.32 2 2 C-5.42857143 1 -5.42857143 1 -9 0 C-9 0.66 -9 1.32 -9 2 C-9.66 2 -10.32 2 -11 2 C-11 1.01 -11 0.02 -11 -1 C-12.36125 -0.690625 -12.36125 -0.690625 -13.75 -0.375 C-17.3529971 0.04073043 -17.9251604 -0.44959402 -21 -2 C-23.21604163 -2.36008661 -23.21604163 -2.36008661 -25.546875 -2.4140625 C-26.81337891 -2.47207031 -26.81337891 -2.47207031 -28.10546875 -2.53125 C-29.41451172 -2.57765625 -29.41451172 -2.57765625 -30.75 -2.625 C-31.63816406 -2.66367188 -32.52632813 -2.70234375 -33.44140625 -2.7421875 C-35.6273998 -2.83620873 -37.81339062 -2.92186143 -40 -3 C-40 -2.34 -40 -1.68 -40 -1 C-42.64 -1 -45.28 -1 -48 -1 C-48 -0.34 -48 0.32 -48 1 C-49.65 1 -51.3 1 -53 1 C-52 -1 -52 -1 -49.61328125 -2.0703125 C-33.2900523 -7.28601879 -15.74942171 -6.94827428 0 0 Z " fill="#D09967" transform="translate(320,166)"/>
<path d="M0 0 C5.35527919 2.0730113 10.78213824 4.25716979 15.83642578 6.99462891 C24.40644969 10.97695326 34.95872347 10.4038411 44.1875 10.625 C45.53452721 10.6632964 46.88153299 10.7023543 48.22851562 10.7421875 C51.48554682 10.83557908 54.74258509 10.921354 58 11 C52.92453512 13.99788101 47.55043677 13.38149547 41.8125 13.375 C40.65314941 13.37628906 39.49379883 13.37757813 38.29931641 13.37890625 C28.74292128 13.26231637 20.09815614 11.83842197 11 9 C11 8.34 11 7.68 11 7 C9.68 7 8.36 7 7 7 C7 6.34 7 5.68 7 5 C5.5459375 4.5978125 5.5459375 4.5978125 4.0625 4.1875 C3.051875 3.795625 2.04125 3.40375 1 3 C0.67 2.01 0.34 1.02 0 0 Z " fill="#CC8E5E" transform="translate(252,292)"/>
<path d="M0 0 C7.36807131 1.82203933 14.97041901 4.25074746 21 9 C21.80859375 11.6953125 21.80859375 11.6953125 22 14 C18.75 15.1875 18.75 15.1875 15 16 C12.5625 14.8125 12.5625 14.8125 11 13 C11 12.01 11 11.02 11 10 C10.01 10 9.02 10 8 10 C8.33 8.68 8.66 7.36 9 6 C4.545 4.02 4.545 4.02 0 2 C0 1.34 0 0.68 0 0 Z " fill="#D48A49" transform="translate(331,112)"/>
<path d="M0 0 C2 2 2 2 2.01171875 3.91015625 C1.11111111 9.88888889 1.11111111 9.88888889 0 11 C-0.28162547 14.15761885 -0.23194496 17.33134102 -0.25 20.5 C-0.270625 21.37398437 -0.29125 22.24796875 -0.3125 23.1484375 C-0.34462796 28.56199862 0.32617849 32.91551996 2.33422852 37.95483398 C3.4368201 41.34185624 3.19263308 44.46839362 3 48 C3.99 48.33 4.98 48.66 6 49 C5.34 49.99 4.68 50.98 4 52 C4 51.01 4 50.02 4 49 C3.34 49 2.68 49 2 49 C1.34922704 46.95990245 0.70460176 44.91784331 0.0625 42.875 C-0.29714844 41.73804688 -0.65679687 40.60109375 -1.02734375 39.4296875 C-2.76357215 33.30756487 -3.19346493 27.57017175 -3.1875 21.25 C-3.18741943 20.4559375 -3.18733887 19.661875 -3.18725586 18.84375 C-3.12518817 12.44620483 -2.9117419 5.8234838 0 0 Z " fill="#CD8F5C" transform="translate(229,208)"/>
<path d="M0 0 C0 0.66 0 1.32 0 2 C-0.99 2.66 -1.98 3.32 -3 4 C-4.19232613 6.05003955 -4.19232613 6.05003955 -5 8 C-5.99 8 -6.98 8 -8 8 C-8 8.99 -8 9.98 -8 11 C-9.0725 11.268125 -10.145 11.53625 -11.25 11.8125 C-14.6340976 12.88413091 -16.53142973 13.53142973 -19 16 C-19.70710678 17.64991582 -20.37943989 19.31562256 -21 21 C-21.66 21.33 -22.32 21.66 -23 22 C-23.4125 23.155 -23.825 24.31 -24.25 25.5 C-24.8275 26.655 -25.405 27.81 -26 29 C-29.1875 29.9375 -29.1875 29.9375 -32 30 C-26.24908586 20.78546712 -12.32775448 0 0 0 Z " fill="#D0966B" transform="translate(249,151)"/>
<path d="M0 0 C4.875 1.875 4.875 1.875 6 3 C6.4375 5.25 6.4375 5.25 6 8 C3.25 10.8125 3.25 10.8125 0 13 C-1.32 13 -2.64 13 -4 13 C-4.33 13.66 -4.66 14.32 -5 15 C-6.65 14.67 -8.3 14.34 -10 14 C-10 12.68 -10 11.36 -10 10 C-9.01 10 -8.02 10 -7 10 C-6.67 9.01 -6.34 8.02 -6 7 C-5.01 6.67 -4.02 6.34 -3 6 C-2.34 6.33 -1.68 6.66 -1 7 C-0.67 4.69 -0.34 2.38 0 0 Z " fill="#666361" transform="translate(98,128)"/>
<path d="M0 0 C0.33 0 0.66 0 1 0 C4.51502705 12.8884325 4.76098545 25.9688521 2 39 C1.80792969 39.92425781 1.61585938 40.84851563 1.41796875 41.80078125 C0.97007434 43.87269566 0.48940751 45.93749691 0 48 C-0.33 48 -0.66 48 -1 48 C-1.02749868 46.16675453 -1.04661673 44.3333829 -1.0625 42.5 C-1.07410156 41.4790625 -1.08570313 40.458125 -1.09765625 39.40625 C-1 36 -1 36 -0.5 32.5 C0.35056648 26.2026382 0.10438421 19.84062562 0.0625 13.5 C0.05573242 11.5509375 0.05573242 11.5509375 0.04882812 9.5625 C0.0371092 6.37495175 0.02070219 3.18750045 0 0 Z " fill="#D0925A" transform="translate(380,207)"/>
<path d="M0 0 C1.72945653 0.14235457 3.45855654 0.28904382 5.1875 0.4375 C6.63189453 0.55931641 6.63189453 0.55931641 8.10546875 0.68359375 C10.78956615 0.97699711 13.36109526 1.43862495 16 2 C17.03125 2.165 18.0625 2.33 19.125 2.5 C22 3 22 3 25 4 C26.69867188 4.14777936 28.40177489 4.24747066 30.10546875 4.31640625 C31.08837891 4.35830078 32.07128906 4.40019531 33.08398438 4.44335938 C34.62022461 4.50233398 34.62022461 4.50233398 36.1875 4.5625 C37.22326172 4.60568359 38.25902344 4.64886719 39.32617188 4.69335938 C41.8839819 4.79944366 44.44188845 4.90150146 47 5 C47 5.66 47 6.32 47 7 C30.70993676 7.42994302 15.40111433 6.88042547 0 1 C0 0.67 0 0.34 0 0 Z " fill="#D19159" transform="translate(258,310)"/>
<path d="M0 0 C2.375 2.5625 2.375 2.5625 4 5 C0.66666667 4.33333333 -2.66666667 3.66666667 -6 3 C-6.33 3.66 -6.66 4.32 -7 5 C-6.01 5 -5.02 5 -4 5 C-3.67 5.66 -3.34 6.32 -3 7 C-2.01 7.28875 -1.02 7.5775 0 7.875 C0.99 8.24625 1.98 8.6175 3 9 C3.18369141 9.97066406 3.18369141 9.97066406 3.37109375 10.9609375 C3.68240234 11.97027344 3.68240234 11.97027344 4 13 C6.31315325 14.14293555 6.31315325 14.14293555 9.0625 14.75 C9.98160156 14.99234375 10.90070313 15.2346875 11.84765625 15.484375 C12.55792969 15.65453125 13.26820313 15.8246875 14 16 C13.34 16.99 12.68 17.98 12 19 C4.28886342 16.27842238 -3.21534094 10.78465906 -9 5 C-9.125 2.375 -9.125 2.375 -9 0 C-5.39297148 -1.20234284 -3.64185324 -1.0405295 0 0 Z " fill="#D09257" transform="translate(227,315)"/>
<path d="M0 0 C1.17046875 0.31839844 2.3409375 0.63679688 3.546875 0.96484375 C10.371921 2.48137218 17.2884846 2.42759341 24.25 2.5625 C26.92206794 2.62074064 29.59375929 2.68618003 32.265625 2.75390625 C34.02567871 2.78979858 34.02567871 2.78979858 35.82128906 2.82641602 C38.65603887 2.98121687 41.24053057 3.35679347 44 4 C44 4.33 44 4.66 44 5 C29.53888372 6.86595049 16.22586784 5.70968911 2 3 C2 2.34 2 1.68 2 1 C1.34 0.67 0.68 0.34 0 0 Z " fill="#D09969" transform="translate(265,342)"/>
<path d="M0 0 C-0.99 0.33 -1.98 0.66 -3 1 C-3 1.66 -3 2.32 -3 3 C-5.64 3 -8.28 3 -11 3 C-11 3.66 -11 4.32 -11 5 C-17.38564274 7.87979967 -17.38564274 7.87979967 -20.875 8.5625 C-21.57625 8.706875 -22.2775 8.85125 -23 9 C-23.33 9.66 -23.66 10.32 -24 11 C-24.99 11.33 -25.98 11.66 -27 12 C-27.99 13.485 -27.99 13.485 -29 15 C-32.56748077 16.78374039 -36.06754014 17.45128467 -40 18 C-35.63354007 13.31009859 -30.70070441 10.79446295 -25 8 C-24.40316406 7.690625 -23.80632812 7.38125 -23.19140625 7.0625 C-8.11095067 -0.70530006 -8.11095067 -0.70530006 0 0 Z " fill="#D59F69" transform="translate(266,110)"/>
<path d="M0 0 C0.33 0.66 0.66 1.32 1 2 C0.14453125 4.09375 0.14453125 4.09375 -1.1875 6.5 C-1.61417969 7.2940625 -2.04085938 8.088125 -2.48046875 8.90625 C-4.17224139 11.23733004 -5.42957074 11.81830954 -8 13 C-9.43789984 14.47764317 -9.43789984 14.47764317 -10.625 16.125 C-11.40875 17.07375 -12.1925 18.0225 -13 19 C-13.66 19 -14.32 19 -15 19 C-15 19.99 -15 20.98 -15 22 C-15.99 22.33 -16.98 22.66 -18 23 C-17.67 24.65 -17.34 26.3 -17 28 C-19.97 27.01 -22.94 26.02 -26 25 C-23.1709277 22.1709277 -22.61855575 21.62388892 -19 21 C-19 20.34 -19 19.68 -19 19 C-17.01399663 17.6459068 -15.01182457 16.31542376 -13 15 C-12.2575 14.2575 -11.515 13.515 -10.75 12.75 C-10.1725 12.1725 -9.595 11.595 -9 11 C-8.34 11 -7.68 11 -7 11 C-6.773125 10.484375 -6.54625 9.96875 -6.3125 9.4375 C-4.5024447 6.07596873 -2.26003596 3.07088856 0 0 Z " fill="#D1A073" transform="translate(356,270)"/>
<path d="M0 0 C1.32 0.66 2.64 1.32 4 2 C4 3.65 4 5.3 4 7 C2.68 7.33 1.36 7.66 0 8 C-0.144375 8.639375 -0.28875 9.27875 -0.4375 9.9375 C-1 12 -1 12 -2 13 C-3.66617115 13.04063832 -5.33388095 13.042721 -7 13 C-8 11 -8 11 -7.4375 8.1875 C-5.5998809 4.1127794 -3.56313187 2.63361921 0 0 Z M0 5 C0.33 5.66 0.66 6.32 1 7 C1.66 6.34 2.32 5.68 3 5 C2.01 5 1.02 5 0 5 Z " fill="#A5A59F" transform="translate(521,129)"/>
<path d="M0 0 C0 1.65 0 3.3 0 5 C-2.31 5.33 -4.62 5.66 -7 6 C-7.33 6.99 -7.66 7.98 -8 9 C-10.64 9 -13.28 9 -16 9 C-15.06727181 5.86264155 -14.36569038 4.28442585 -11.75 2.25 C-7.82952238 0.46796472 -4.28035325 0 0 0 Z " fill="#D77D2F" transform="translate(337,333)"/>
<path d="M0 0 C1.33332095 2.6666419 0.67102033 4.16680303 0 7 C-0.969375 7.144375 -1.93875 7.28875 -2.9375 7.4375 C-5.86486773 7.67562341 -5.86486773 7.67562341 -7 9 C-9.33944736 8.71269945 -11.6739143 8.38063221 -14 8 C-13.21625 7.236875 -12.4325 6.47375 -11.625 5.6875 C-8.92742283 3.09108195 -8.92742283 3.09108195 -7 0 C-3.88407501 -1.03864166 -2.9737344 -1.09036928 0 0 Z " fill="#505046" transform="translate(414,30)"/>
<path d="M0 0 C0.66 0 1.32 0 2 0 C5 5.625 5 5.625 5 9 C5.66 9 6.32 9 7 9 C7 9.66 7 10.32 7 11 C7.928125 11.1546875 7.928125 11.1546875 8.875 11.3125 C11 12 11 12 13 15 C12.67 15.66 12.34 16.32 12 17 C12.66 17 13.32 17 14 17 C14 17.66 14 18.32 14 19 C14.99 19 15.98 19 17 19 C17 20.65 17 22.3 17 24 C16.01 24 15.02 24 14 24 C14 23.34 14 22.68 14 22 C13.01 21.67 12.02 21.34 11 21 C9.359674 18.81874653 7.88632595 16.67704972 6.4375 14.375 C6.03853516 13.77042969 5.63957031 13.16585938 5.22851562 12.54296875 C2.61503646 8.45040872 1.12346571 4.72462879 0 0 Z " fill="#D58848" transform="translate(211,263)"/>
<path d="M0 0 C4.3454606 0.65840312 7.98654496 2.24867416 12 4 C13.32276056 4.37308631 14.65232077 4.73046415 16 5 C16 5.66 16 6.32 16 7 C18.475 7.495 18.475 7.495 21 8 C20.01 9.485 20.01 9.485 19 11 C14.91621717 10.25749403 10.98060777 9.17076699 7 8 C7 7.34 7 6.68 7 6 C6.030625 5.566875 5.06125 5.13375 4.0625 4.6875 C1 3 1 3 0 0 Z " fill="#DC7D2D" transform="translate(231,325)"/>
<path d="M0 0 C0.66 0.33 1.32 0.66 2 1 C2 1.99 2 2.98 2 4 C-1 6 -1 6 -3.5 6.875 C-6.13391825 7.79701678 -6.13391825 7.79701678 -7.4375 10.125 C-7.953125 10.74375 -8.46875 11.3625 -9 12 C-12.1875 12.25 -12.1875 12.25 -15 12 C-15.33 10.68 -15.66 9.36 -16 8 C-15.21625 7.896875 -14.4325 7.79375 -13.625 7.6875 C-10.66954819 7.22404978 -10.66954819 7.22404978 -9 4 C-7.08984375 3.0859375 -7.08984375 3.0859375 -4.9375 2.375 C-2.22854212 1.58182954 -2.22854212 1.58182954 0 0 Z " fill="#DD7D2F" transform="translate(357,321)"/>
<path d="M0 0 C4.0779415 -0.18536098 6.42017209 0.15234688 10 2 C12.66709069 2.16750414 12.66709069 2.16750414 15 2 C15.33 2.66 15.66 3.32 16 4 C22.03850758 6.30275049 28.03017368 6.42490132 34.4375 6.625 C35.45521484 6.66367187 36.47292969 6.70234375 37.52148438 6.7421875 C40.01414936 6.83580872 42.5068195 6.92153993 45 7 C45 7.33 45 7.66 45 8 C28.73177258 8.38480159 14.83631291 8.38069102 0 1 C0 0.67 0 0.34 0 0 Z " fill="#D59E6B" transform="translate(261,287)"/>
<path d="M0 0 C8.81249413 1.33048313 16.15590341 7.60884012 23 13 C19.28272326 14.13583456 17.52948291 13.66670026 14 12 C14 11.34 14 10.68 14 10 C12.68 10.33 11.36 10.66 10 11 C9.34 8.69 8.68 6.38 8 4 C5.69 4 3.38 4 1 4 C0.67 2.68 0.34 1.36 0 0 Z " fill="#D68F52" transform="translate(328,147)"/>
<path d="M0 0 C40.29694323 -1.13537118 40.29694323 -1.13537118 51 6 C48.74943278 5.88566637 46.49953326 5.75813564 44.25 5.625 C42.99703125 5.55539063 41.7440625 5.48578125 40.453125 5.4140625 C37.2226939 5.02670312 35.80641445 4.40320722 33 3 C26.0519644 1.80778025 19.03471743 1.68327191 12 1.4375 C10.84371094 1.39431641 9.68742187 1.35113281 8.49609375 1.30664062 C5.66416146 1.20132083 2.83215253 1.09918913 0 1 C0 0.67 0 0.34 0 0 Z " fill="#D29A69" transform="translate(280,106)"/>
<path d="M0 0 C0.66 0.33 1.32 0.66 2 1 C1.34 2.98 0.68 4.96 0 7 C1.65 7 3.3 7 5 7 C2.42215154 9.64752004 0.08351902 11.94432065 -3 14 C-3.66 13.01 -4.32 12.02 -5 11 C-5.99 10.34 -6.98 9.68 -8 9 C-7.67 8.01 -7.34 7.02 -7 6 C-6.01 5.67 -5.02 5.34 -4 5 C-2.61423077 3.37667033 -1.27358732 1.71275535 0 0 Z " fill="#8F9489" transform="translate(513,135)"/>
<path d="M0 0 C0.78375 0.144375 1.5675 0.28875 2.375 0.4375 C4.375 3.4375 4.375 3.4375 4 6.625 C3.79375 7.553125 3.5875 8.48125 3.375 9.4375 C1.89300098 8.98840939 0.41444764 8.52793436 -1.0625 8.0625 C-1.88621094 7.80726563 -2.70992187 7.55203125 -3.55859375 7.2890625 C-5.625 6.4375 -5.625 6.4375 -6.625 4.4375 C-4.47711998 1.89186442 -3.34583605 0.55763934 0 0 Z " fill="#656767" transform="translate(136.625,191.5625)"/>
<path d="M0 0 C3.1875 1.8125 3.1875 1.8125 6 4 C6 4.66 6 5.32 6 6 C6.59296875 6.23460937 7.1859375 6.46921875 7.796875 6.7109375 C10.51094 8.29895425 11.58493241 9.97602884 13.25 12.625 C13.77078125 13.44226563 14.2915625 14.25953125 14.828125 15.1015625 C15.21484375 15.72804687 15.6015625 16.35453125 16 17 C15.01 17 14.02 17 13 17 C13 16.34 13 15.68 13 15 C12.01 14.67 11.02 14.34 10 14 C10 13.01 10 12.02 10 11 C9.34 11 8.68 11 8 11 C8 10.34 8 9.68 8 9 C7.01 8.67 6.02 8.34 5 8 C5 7.34 5 6.68 5 6 C3.35 6 1.7 6 0 6 C-0.33 6.66 -0.66 7.32 -1 8 C-1.66 6.68 -2.32 5.36 -3 4 C-2.01 4 -1.02 4 0 4 C-0.99 3.01 -1.98 2.02 -3 1 C-2.01 0.67 -1.02 0.34 0 0 Z " fill="#D88C4C" transform="translate(351,161)"/>
<path d="M0 0 C4.71393321 -0.04970487 9.4277114 -0.085863 14.1418457 -0.10986328 C15.74310974 -0.11987623 17.34435571 -0.1334906 18.94555664 -0.15087891 C21.25671876 -0.17533565 23.56763762 -0.18653029 25.87890625 -0.1953125 C26.9402755 -0.21079636 26.9402755 -0.21079636 28.02308655 -0.22659302 C32.75834265 -0.22764468 36.55316497 0.53211271 41 2 C41 2.66 41 3.32 41 4 C33.52377415 3.09769688 33.52377415 3.09769688 30.24609375 2.48632812 C27.01361116 2.00203922 23.99250101 1.88617574 20.7265625 1.90234375 C19.57285156 1.90556641 18.41914063 1.90878906 17.23046875 1.91210938 C15.44576172 1.92467773 15.44576172 1.92467773 13.625 1.9375 C11.80548828 1.94426758 11.80548828 1.94426758 9.94921875 1.95117188 C6.96609493 1.96291646 3.98307321 1.9793416 1 2 C0.67 1.34 0.34 0.68 0 0 Z " fill="#C78957" transform="translate(277,113)"/>
<path d="M0 0 C1.26694663 2.28050393 2.01923072 4.10336512 2.5 6.6875 C2.665 7.450625 2.83 8.21375 3 9 C3.66 9.33 4.32 9.66 5 10 C4.67 16.93 4.34 23.86 4 31 C3.67 31 3.34 31 3 31 C2.91959473 30.30438965 2.83918945 29.6087793 2.75634766 28.89208984 C2.38580089 25.71891976 2.00549272 22.54699219 1.625 19.375 C1.49867188 18.28058594 1.37234375 17.18617188 1.2421875 16.05859375 C0.60752991 10.82266867 -0.01045407 5.93061384 -2 1 C-1.34 0.67 -0.68 0.34 0 0 Z " fill="#D29560" transform="translate(366,201)"/>
<path d="M0 0 C-0.66 1.32 -1.32 2.64 -2 4 C-21.8 3.505 -21.8 3.505 -42 3 C-42 2.67 -42 2.34 -42 2 C-40.65421875 1.970271 -40.65421875 1.970271 -39.28125 1.93994141 C-35.91885603 1.86135239 -32.5568671 1.77464529 -29.19482422 1.68261719 C-27.74601152 1.64458384 -26.29711261 1.60968863 -24.84814453 1.578125 C-17.53317725 1.4168025 -6.34264502 -2.11421501 0 0 Z " fill="#E3B88A" transform="translate(322,336)"/>
<path d="M0 0 C1.32 0.33 2.64 0.66 4 1 C4 1.66 4 2.32 4 3 C4.66 3 5.32 3 6 3 C5.67 5.64 5.34 8.28 5 11 C3.68 10.34 2.36 9.68 1 9 C1 8.34 1 7.68 1 7 C-0.32 6.67 -1.64 6.34 -3 6 C-3 5.34 -3 4.68 -3 4 C-3.66 3.67 -4.32 3.34 -5 3 C-3.35 2.67 -1.7 2.34 0 2 C0 1.34 0 0.68 0 0 Z " fill="#DA8845" transform="translate(343,164)"/>
<path d="M0 0 C0 0.33 0 0.66 0 1 C-5.66792585 2.21952531 -11.35736019 2.67899211 -17.125 3.1875 C-18.77048828 3.34895508 -18.77048828 3.34895508 -20.44921875 3.51367188 C-21.49980469 3.60583984 -22.55039062 3.69800781 -23.6328125 3.79296875 C-25.06971436 3.92481567 -25.06971436 3.92481567 -26.53564453 4.05932617 C-29 4 -29 4 -32 2 C-21.34595112 -0.42531194 -10.86424851 -0.19323762 0 0 Z " fill="#D19B6C" transform="translate(303,139)"/>
<path d="M0 0 C1.32 0.33 2.64 0.66 4 1 C4 1.66 4 2.32 4 3 C4.639375 3.28875 5.27875 3.5775 5.9375 3.875 C8 5 8 5 9 7 C11.02463255 7.65213292 11.02463255 7.65213292 13 8 C13 8.99 13 9.98 13 11 C14.32 11 15.64 11 17 11 C17.66 12.65 18.32 14.3 19 16 C14.50985376 14.50328459 10.52151236 12.16631659 7 9 C7 8.34 7 7.68 7 7 C6.401875 6.773125 5.80375 6.54625 5.1875 6.3125 C2.43648112 4.66188867 1.47515363 2.8027919 0 0 Z " fill="#D49C64" transform="translate(242,271)"/>
<path d="M0 0 C0.33 0 0.66 0 1 0 C1.66653656 12.66419455 0.23771636 23.04358598 -4 35 C-4.33 35 -4.66 35 -5 35 C-5 32.69 -5 30.38 -5 28 C-4.34 28 -3.68 28 -3 28 C-3.020625 27.05125 -3.04125 26.1025 -3.0625 25.125 C-3 22 -3 22 -2 20 C-1.781346 18.48181898 -1.60981021 16.95666749 -1.46484375 15.4296875 C-1.37783203 14.53378906 -1.29082031 13.63789063 -1.20117188 12.71484375 C-1.11416016 11.77769531 -1.02714844 10.84054688 -0.9375 9.875 C-0.84662109 8.93011719 -0.75574219 7.98523438 -0.66210938 7.01171875 C-0.43785901 4.67479389 -0.21730943 2.33757884 0 0 Z " fill="#DFB187" transform="translate(360,220)"/>
<path d="M0 0 C3.89254042 -0.07485655 7.24107857 0.06026964 11 1 C11.99 0.67 12.98 0.34 14 0 C14 0.66 14 1.32 14 2 C13.34 2 12.68 2 12 2 C12 2.66 12 3.32 12 4 C8.79619983 6.13586678 7.98060033 6.23132175 4.3125 6.125 C3.10013672 6.09792969 3.10013672 6.09792969 1.86328125 6.0703125 C0.94095703 6.03550781 0.94095703 6.03550781 0 6 C0.185625 5.38125 0.37125 4.7625 0.5625 4.125 C1.23686176 1.95839822 1.23686176 1.95839822 0 0 Z " fill="#CF7B32" transform="translate(304,340)"/>
<path d="M0 0 C5.38342925 2.0839081 10.85436694 4.27022214 15.91796875 7.0546875 C18.5006139 8.22729562 20.95567419 8.65927903 23.75 9.125 C25.22726562 9.37636719 25.22726562 9.37636719 26.734375 9.6328125 C27.85585938 9.81457031 27.85585938 9.81457031 29 10 C29 10.33 29 10.66 29 11 C22.64012196 11.20190089 17.14778871 10.6277833 11 9 C11 8.34 11 7.68 11 7 C9.68 7 8.36 7 7 7 C7 6.34 7 5.68 7 5 C5.5459375 4.5978125 5.5459375 4.5978125 4.0625 4.1875 C3.051875 3.795625 2.04125 3.40375 1 3 C0.67 2.01 0.34 1.02 0 0 Z " fill="#D69966" transform="translate(252,292)"/>
<path d="M0 0 C-0.33 0.99 -0.66 1.98 -1 3 C-1.99 3 -2.98 3 -4 3 C-4.66 4.65 -5.32 6.3 -6 8 C-8.31 8 -10.62 8 -13 8 C-13.33 9.32 -13.66 10.64 -14 12 C-15.32 11.34 -16.64 10.68 -18 10 C-6.46153846 0 -6.46153846 0 0 0 Z " fill="#D48D52" transform="translate(267,167)"/>
<path d="M0 0 C-1 2 -1 2 -3 3 C-1.35 3 0.3 3 2 3 C1.67 4.98 1.34 6.96 1 9 C-0.65 9 -2.3 9 -4 9 C-4.226875 8.195625 -4.45375 7.39125 -4.6875 6.5625 C-5.120625 5.716875 -5.55375 4.87125 -6 4 C-8.54775306 3.10613836 -8.54775306 3.10613836 -11 3 C-7.72430636 -0.27569364 -4.48909309 -0.12469703 0 0 Z " fill="#DA9051" transform="translate(277,107)"/>
<path d="M0 0 C0 0.99 0 1.98 0 3 C0.185625 3.7425 0.37125 4.485 0.5625 5.25 C1.10824725 8.68041127 0.60040534 11.5977031 0 15 C-3.88975419 11.40945767 -6.89732195 7.26101118 -10 3 C-9.34 2.67 -8.68 2.34 -8 2 C-8 2.66 -8 3.32 -8 4 C-5.03 4.495 -5.03 4.495 -2 5 C-2.33 4.01 -2.66 3.02 -3 2 C-2.01 1.34 -1.02 0.68 0 0 Z " fill="#DB7F37" transform="translate(358,173)"/>
<path d="M0 0 C8.84467367 -0.58964491 17.0633478 2.29622898 25 6 C25 6.33 25 6.66 25 7 C18.96251023 6.19500136 12.98729887 5.11517502 7 4 C7 3.34 7 2.68 7 2 C4.69 1.67 2.38 1.34 0 1 C0 0.67 0 0.34 0 0 Z " fill="#D1915A" transform="translate(303,140)"/>
<path d="M0 0 C2.97 0.495 2.97 0.495 6 1 C6.33 1.99 6.66 2.98 7 4 C8.65 4.33 10.3 4.66 12 5 C12 6.32 12 7.64 12 9 C4.66666667 8 4.66666667 8 2 6 C0.75 2.875 0.75 2.875 0 0 Z " fill="#E07F2C" transform="translate(354,127)"/>
<path d="M0 0 C4.875 1.875 4.875 1.875 6 3 C6.1875 5.4375 6.1875 5.4375 6 8 C5.34 8.66 4.68 9.32 4 10 C3.01 10 2.02 10 1 10 C-1.56687367 6.1496895 -0.83288724 4.41430237 0 0 Z " fill="#56544C" transform="translate(98,128)"/>
<path d="M0 0 C1.32 0 2.64 0 4 0 C3.67 2.31 3.34 4.62 3 7 C3.66 7.33 4.32 7.66 5 8 C4.67 8.66 4.34 9.32 4 10 C4.66 10.33 5.32 10.66 6 11 C5.34 11 4.68 11 4 11 C4 11.66 4 12.32 4 13 C2.68 13 1.36 13 0 13 C0 8.71 0 4.42 0 0 Z " fill="#2B373E" transform="translate(154,194)"/>
<path d="M0 0 C0.33 0 0.66 0 1 0 C1.33921452 3.18690233 1.67029417 6.37460104 2 9.5625 C2.14308594 10.90538086 2.14308594 10.90538086 2.2890625 12.27539062 C2.79567965 17.21490788 3.10897382 22.03488014 3 27 C-1.46866211 20.29700683 -1.37426063 10.85947313 -1 3 C-0.67 2.01 -0.34 1.02 0 0 Z " fill="#D3AC8B" transform="translate(204,221)"/>
<path d="M0 0 C1.91145604 1.60461705 2.91104348 2.46520185 3.328125 4.97265625 C3.11111111 10.77777778 3.11111111 10.77777778 2 13 C2.66 13 3.32 13 4 13 C3.25 17.75 3.25 17.75 1 20 C0.11722245 15.48184719 -0.10589503 11.22487306 -0.0625 6.625 C-0.05347656 5.37976563 -0.04445312 4.13453125 -0.03515625 2.8515625 C-0.02355469 1.91054687 -0.01195312 0.96953125 0 0 Z " fill="#2B343A" transform="translate(170,223)"/>
<path d="M0 0 C4.52065428 -0.049377 9.04115217 -0.08570823 13.56201172 -0.10986328 C15.10045098 -0.11993118 16.63887107 -0.13358646 18.17724609 -0.15087891 C20.38644133 -0.17509317 22.59538395 -0.18647491 24.8046875 -0.1953125 C25.49432587 -0.20563507 26.18396423 -0.21595764 26.89450073 -0.22659302 C28.59800906 -0.22699478 30.30085943 -0.12191026 32 0 C34 2 34 2 34 4 C32.78441406 3.68289062 31.56882812 3.36578125 30.31640625 3.0390625 C24.22502889 1.68542309 18.15624458 1.54724451 11.9375 1.375 C10.78572266 1.33632812 9.63394531 1.29765625 8.44726562 1.2578125 C5.63166204 1.16434848 2.8160514 1.07858748 0 1 C0 0.67 0 0.34 0 0 Z " fill="#D69E72" transform="translate(282,152)"/>
<path d="M0 0 C0.33 0.99 0.66 1.98 1 3 C-2.16363636 7.58181818 -2.16363636 7.58181818 -5 9 C-6.13350534 11.01669827 -6.13350534 11.01669827 -7 13 C-7.66 13 -8.32 13 -9 13 C-8.67 13.99 -8.34 14.98 -8 16 C-9.32 16.33 -10.64 16.66 -12 17 C-10.67288846 13.26295953 -9.03431904 10.46876061 -6.5625 7.375 C-5.96566406 6.61960938 -5.36882812 5.86421875 -4.75390625 5.0859375 C-3.24244136 3.28833783 -1.6926397 1.62534821 0 0 Z " fill="#D29465" transform="translate(246,180)"/>
<path d="M0 0 C0 0.66 0 1.32 0 2 C-0.66 2 -1.32 2 -2 2 C-1.67 2.99 -1.34 3.98 -1 5 C-2.33333333 5.66666667 -3.66666667 6.33333333 -5 7 C-5.66 6.67 -6.32 6.34 -7 6 C-7 6.66 -7 7.32 -7 8 C-8.32 7.34 -9.64 6.68 -11 6 C-8.54935066 0.34465537 -5.93884314 0 0 0 Z " fill="#4C493C" transform="translate(403,41)"/>
<path d="M0 0 C0.33 0 0.66 0 1 0 C1.36632124 3.39463657 1.71589775 6.79079797 2.0625 10.1875 C2.16626953 11.14720703 2.27003906 12.10691406 2.37695312 13.09570312 C2.47041016 14.02705078 2.56386719 14.95839844 2.66015625 15.91796875 C2.79369507 17.19837036 2.79369507 17.19837036 2.92993164 18.50463867 C3.00440784 21.15697731 2.61472301 23.4262253 2 26 C-0.67629556 23.32370444 -0.62191673 21.76384016 -1 18 C-0.97255369 14.86549042 -0.77940902 11.75148176 -0.5625 8.625 C-0.51029297 7.79355469 -0.45808594 6.96210938 -0.40429688 6.10546875 C-0.27561269 4.06991892 -0.13864593 2.03489559 0 0 Z " fill="#5B6166" transform="translate(161,158)"/>
<path d="M0 0 C2.52234319 0.08781267 5.0415165 0.19478007 7.5625 0.3125 C8.26697266 0.33505859 8.97144531 0.35761719 9.69726562 0.38085938 C14.75955442 0.63747309 18.44555581 1.76766402 23 4 C18.99799622 5.60080151 15.95443764 4.29279692 12 3 C12 3.66 12 4.32 12 5 C11.34 5 10.68 5 10 5 C10 4.01 10 3.02 10 2 C9.0925 2.226875 8.185 2.45375 7.25 2.6875 C4 3 4 3 1.796875 1.51953125 C1.20390625 1.01808594 0.6109375 0.51664063 0 0 Z " fill="#D48C47" transform="translate(299,163)"/>
<path d="M0 0 C1.98 0 3.96 0 6 0 C5.62488281 0.42410156 5.24976563 0.84820312 4.86328125 1.28515625 C2.14040147 4.40583711 -0.44083608 7.53950199 -2.8125 10.9375 C-3.534375 11.948125 -4.25625 12.95875 -5 14 C-5.33 14 -5.66 14 -6 14 C-6 12.02 -6 10.04 -6 8 C-5.01 8 -4.02 8 -3 8 C-3 7.01 -3 6.02 -3 5 C-2.01 5 -1.02 5 0 5 C0 3.35 0 1.7 0 0 Z " fill="#CE8E5A" transform="translate(234,174)"/>
<path d="M0 0 C0.66 0.33 1.32 0.66 2 1 C2 1.66 2 2.32 2 3 C1.01 3.495 1.01 3.495 0 4 C-0.4125 5.155 -0.825 6.31 -1.25 7.5 C-1.8275 8.655 -2.405 9.81 -3 11 C-6.1875 11.9375 -6.1875 11.9375 -9 12 C-8.06692579 10.55962331 -7.12834923 9.12281015 -6.1875 7.6875 C-5.66542969 6.88699219 -5.14335937 6.08648437 -4.60546875 5.26171875 C-3.19610151 3.2762598 -1.77903343 1.6508148 0 0 Z " fill="#CF8950" transform="translate(226,169)"/>
<path d="M0 0 C0.66 0.33 1.32 0.66 2 1 C2 1.99 2 2.98 2 4 C0.1875 5.5 0.1875 5.5 -2 7 C-2.495 7.53625 -2.99 8.0725 -3.5 8.625 C-5.27668702 10.25362977 -6.65317496 10.59537499 -9 11 C-8.34 9.35 -7.68 7.7 -7 6 C-6.34 6 -5.68 6 -5 6 C-4.731875 5.38125 -4.46375 4.7625 -4.1875 4.125 C-3 2 -3 2 0 0 Z " fill="#4E555B" transform="translate(405,159)"/>
<path d="M0 0 C2 2 2 2 2 4 C2.66 4.33 3.32 4.66 4 5 C2.35 6.65 0.7 8.3 -1 10 C-1 9.34 -1 8.68 -1 8 C-2.32 8 -3.64 8 -5 8 C-4.45773019 4.20411134 -2.79872437 2.52788007 0 0 Z " fill="#DA833B" transform="translate(361,278)"/>
<path d="M0 0 C2.50866154 1.1759351 3.51540594 2.63637921 5 4.9375 C4.34 5.5975 3.68 6.2575 3 6.9375 C2.01 6.6075 1.02 6.2775 0 5.9375 C0.33 5.2775 0.66 4.6175 1 3.9375 C0.01 3.6075 -0.98 3.2775 -2 2.9375 C-1.67 4.5875 -1.34 6.2375 -1 7.9375 C-1.99 7.6075 -2.98 7.2775 -4 6.9375 C-4.875 5.0625 -4.875 5.0625 -5 2.9375 C-3.49881691 0.64622055 -2.78081605 -0.0869005 0 0 Z " fill="#8E928B" transform="translate(506,145.0625)"/>
<path d="M0 0 C2.375 2.5625 2.375 2.5625 4 5 C0.66666667 4.33333333 -2.66666667 3.66666667 -6 3 C-6.33 3.66 -6.66 4.32 -7 5 C-7.66 5 -8.32 5 -9 5 C-9 3.35 -9 1.7 -9 0 C-5.39297148 -1.20234284 -3.64185324 -1.0405295 0 0 Z " fill="#C89C75" transform="translate(227,315)"/>
<path d="M0 0 C1.58172092 3.16344185 -0.0601894 5.71066289 -1 9 C-0.67 9.66 -0.34 10.32 0 11 C-0.99 11 -1.98 11 -3 11 C-3 11.99 -3 12.98 -3 14 C-3.99 14.33 -4.98 14.66 -6 15 C-6.27836726 10.97438123 -5.60989069 8.70678429 -3.5625 5.25 C-3.11003906 4.47140625 -2.65757812 3.6928125 -2.19140625 2.890625 C-1 1 -1 1 0 0 Z " fill="#CA884F" transform="translate(216,183)"/>
<path d="M0 0 C0.66 0.33 1.32 0.66 2 1 C1.835 2.0725 1.67 3.145 1.5 4.25 C0.91189085 8.03028752 0.91189085 8.03028752 1 12 C0.01 12.495 0.01 12.495 -1 13 C-1 12.34 -1 11.68 -1 11 C-1.66 11 -2.32 11 -3 11 C-3.144375 10.38125 -3.28875 9.7625 -3.4375 9.125 C-3.93152225 6.96741678 -3.93152225 6.96741678 -5 5 C-4.34 5 -3.68 5 -3 5 C-1.3553326 2.53673288 -1.3553326 2.53673288 0 0 Z " fill="#E47B25" transform="translate(226,269)"/>
<path d="M0 0 C2.475 0.99 2.475 0.99 5 2 C5.042721 3.66611905 5.04063832 5.33382885 5 7 C4 8 4 8 1.4375 8.0625 C0.633125 8.041875 -0.17125 8.02125 -1 8 C-2 6 -2 6 -1.0625 2.875 C-0.5365625 1.451875 -0.5365625 1.451875 0 0 Z " fill="#71726D" transform="translate(515,134)"/>
<path d="M0 0 C3.37462715 0.54723683 5.08235 1.0549 8 3 C9.03125 3.28875 10.0625 3.5775 11.125 3.875 C12.07375 4.24625 13.0225 4.6175 14 5 C14.875 7.125 14.875 7.125 15 9 C9.64526789 6.88041854 4.6840637 4.38225898 0 1 C0 0.67 0 0.34 0 0 Z " fill="#CD8D5A" transform="translate(240,300)"/>
<path d="M0 0 C0.99 0 1.98 0 3 0 C1.48446596 3.47775179 -0.5773456 5.9557984 -3.125 8.75 C-4.21167969 9.94882812 -4.21167969 9.94882812 -5.3203125 11.171875 C-5.87460937 11.77515625 -6.42890625 12.3784375 -7 13 C-8 10 -8 10 -6.75 7.3125 C-6.1725 6.549375 -5.595 5.78625 -5 5 C-4.01 5 -3.02 5 -2 5 C-2 4.34 -2 3.68 -2 3 C-1.34 3 -0.68 3 0 3 C0 2.01 0 1.02 0 0 Z " fill="#CE9053" transform="translate(348,263)"/>
<path d="M0 0 C1.5625 1.75 1.5625 1.75 3 4 C2.6875 6.25 2.6875 6.25 2 8 C1.01 8 0.02 8 -1 8 C-1 8.99 -1 9.98 -1 11 C-1.66 11 -2.32 11 -3 11 C-2.88590407 9.54077307 -2.75834456 8.08259402 -2.625 6.625 C-2.55539063 5.81289062 -2.48578125 5.00078125 -2.4140625 4.1640625 C-2 2 -2 2 0 0 Z " fill="#263036" transform="translate(169,159)"/>
<path d="M0 0 C5.94 0 11.88 0 18 0 C18 0.33 18 0.66 18 1 C16.865625 1.12375 15.73125 1.2475 14.5625 1.375 C12.7990625 1.684375 12.7990625 1.684375 11 2 C10.67 2.66 10.34 3.32 10 4 C9.236875 3.814375 8.47375 3.62875 7.6875 3.4375 C4.91032625 2.77180827 4.91032625 2.77180827 2 4 C2 3.01 2 2.02 2 1 C1.34 0.67 0.68 0.34 0 0 Z " fill="#95979A" transform="translate(178,157)"/>
<path d="M0 0 C0 0.66 0 1.32 0 2 C-1.32 2 -2.64 2 -4 2 C-4 2.66 -4 3.32 -4 4 C-5.57725347 4.70133599 -7.16211333 5.385583 -8.75 6.0625 C-9.63171875 6.44535156 -10.5134375 6.82820312 -11.421875 7.22265625 C-14.15256309 8.04600008 -15.36901347 7.9773992 -18 7 C-14.53682265 4.79845374 -11.17630364 3.1882882 -7.3125 1.8125 C-6.35988281 1.46832031 -5.40726562 1.12414062 -4.42578125 0.76953125 C-2 0 -2 0 0 0 Z " fill="#C88B5A" transform="translate(267,143)"/>
<path d="M0 0 C3.55780196 0.60990891 6.6828589 1.5783681 10 3 C9.67 3.66 9.34 4.32 9 5 C5.9375 5.625 5.9375 5.625 3 6 C2.67 5.01 2.34 4.02 2 3 C1.01 3 0.02 3 -1 3 C-0.67 2.01 -0.34 1.02 0 0 Z " fill="#DA802F" transform="translate(221,317)"/>
<path d="M0 0 C3 1 3 1 4.421875 3.14453125 C4.86015625 4.02496094 5.2984375 4.90539062 5.75 5.8125 C6.19859375 6.68519531 6.6471875 7.55789062 7.109375 8.45703125 C8.06982104 11.19935744 8.02018585 12.3313431 7 15 C0.29612756 5.77448747 0.29612756 5.77448747 0 0 Z " fill="#D19260" transform="translate(348,191)"/>
<path d="M0 0 C1.32 0 2.64 0 4 0 C5.73473712 1.94125344 7.4045651 3.94272868 9 6 C9.66 6.33 10.32 6.66 11 7 C11 7.66 11 8.32 11 9 C11.66 9.33 12.32 9.66 13 10 C8.64418009 10 6.20978069 7.80760959 3 5 C1.0625 2.1875 1.0625 2.1875 0 0 Z " fill="#D29467" transform="translate(228,289)"/>
<path d="M0 0 C0.33 0 0.66 0 1 0 C1 1.65 1 3.3 1 5 C1.99 5 2.98 5 4 5 C4 4.34 4 3.68 4 3 C5.98 3 7.96 3 10 3 C5.69944751 7.76132597 5.69944751 7.76132597 2 8 C1.01 7.34 0.02 6.68 -1 6 C-1.25 3.4375 -1.25 3.4375 -1 1 C-0.67 0.67 -0.34 0.34 0 0 Z " fill="#CD925D" transform="translate(221,131)"/>
<path d="M0 0 C3.73669693 0.41518855 6.73738338 1.11772118 10 3 C9.01 4.32 8.02 5.64 7 7 C4.5 5.625 4.5 5.625 2 4 C2 3.34 2 2.68 2 2 C1.01 1.67 0.02 1.34 -1 1 C-0.67 0.67 -0.34 0.34 0 0 Z " fill="#DD7E2F" transform="translate(331,115)"/>
<path d="M0 0 C3.03393954 3.46735947 4.9351577 7.52949826 6 12 C5.67 12.99 5.34 13.98 5 15 C3 12 3 12 3 9 C2.01 9 1.02 9 0 9 C0 6.03 0 3.06 0 0 Z " fill="#D58D59" transform="translate(374,191)"/>
<path d="M0 0 C-0.4640625 1.1446875 -0.4640625 1.1446875 -0.9375 2.3125 C-1.67893593 4.18789677 -2.36228217 6.08684652 -3 8 C-3.99 7.67 -4.98 7.34 -6 7 C-6 4.69 -6 2.38 -6 0 C-3.50907189 -1.24546405 -2.58919267 -0.7767578 0 0 Z " fill="#888886" transform="translate(500,158)"/>
<path d="M0 0 C0 0.66 0 1.32 0 2 C-0.99 2.66 -1.98 3.32 -3 4 C-4.19232613 6.05003955 -4.19232613 6.05003955 -5 8 C-5.99 8 -6.98 8 -8 8 C-8 8.99 -8 9.98 -8 11 C-8.99 10.67 -9.98 10.34 -11 10 C-10.34 10 -9.68 10 -9 10 C-8.95875 9.0925 -8.9175 8.185 -8.875 7.25 C-8 4 -8 4 -5.0625 1.625 C-2 0 -2 0 0 0 Z " fill="#D58849" transform="translate(249,151)"/>
<path d="M0 0 C1.98 0 3.96 0 6 0 C6 0.66 6 1.32 6 2 C4.71086513 2.67154933 3.41859796 3.33708859 2.125 4 C1.40570313 4.37125 0.68640625 4.7425 -0.0546875 5.125 C-2 6 -2 6 -4 6 C-4.33 5.01 -4.66 4.02 -5 3 C-3.35 2.67 -1.7 2.34 0 2 C0 1.34 0 0.68 0 0 Z " fill="#D0884C" transform="translate(248,120)"/>
<path d="M0 0 C0.66 0 1.32 0 2 0 C5 5.625 5 5.625 5 9 C5.66 9 6.32 9 7 9 C9 12 9 12 8.625 14.1875 C8.41875 14.785625 8.2125 15.38375 8 16 C4.24751589 10.79608336 1.34321548 6.31311276 0 0 Z " fill="#CA955E" transform="translate(211,263)"/>
<path d="M0 0 C0.33 0 0.66 0 1 0 C1.33 3.3 1.66 6.6 2 10 C0.68 10.33 -0.64 10.66 -2 11 C-2.25 3.375 -2.25 3.375 0 0 Z " fill="#2B343A" transform="translate(422,282)"/>
<path d="M0 0 C1.13167948 3.80436931 0.64378139 5.36637798 -1 9 C-1.67795528 10.99620166 -2.34733531 12.99538701 -3 15 C-5 14 -5 14 -6 12 C-4.78515625 9.1796875 -4.78515625 9.1796875 -3.0625 5.875 C-2.49660156 4.77929688 -1.93070312 3.68359375 -1.34765625 2.5546875 C-0.90292969 1.71164062 -0.45820313 0.86859375 0 0 Z " fill="#D49B6A" transform="translate(363,257)"/>
<path d="M0 0 C-0.33 0.99 -0.66 1.98 -1 3 C-0.67 3.99 -0.34 4.98 0 6 C-2.97 5.01 -5.94 4.02 -9 3 C-4.61538462 -1.38461538 -4.61538462 -1.38461538 0 0 Z " fill="#D88B4D" transform="translate(339,292)"/>
<path d="M0 0 C5.46875 4.4921875 5.46875 4.4921875 7 6 C7 6.66 7 7.32 7 8 C6.01 8 5.02 8 4 8 C3.67 9.32 3.34 10.64 3 12 C2.67 12 2.34 12 2 12 C1.34 8.04 0.68 4.08 0 0 Z " fill="#D28548" transform="translate(234,276)"/>
<path d="M0 0 C0.33 0 0.66 0 1 0 C1.33 5.28 1.66 10.56 2 16 C-0.26969744 13.73030256 -0.99131829 12.02604513 -2 9 C-2 7.68 -2 6.36 -2 5 C-1.34 5 -0.68 5 0 5 C0 3.35 0 1.7 0 0 Z " fill="#D6975D" transform="translate(209,247)"/>
<path d="M0 0 C3.63559661 3.43361902 6.36113346 6.7973607 9 11 C8.01 11 7.02 11 6 11 C6 10.34 6 9.68 6 9 C5.01 8.67 4.02 8.34 3 8 C3 7.01 3 6.02 3 5 C2.34 5 1.68 5 1 5 C1 4.34 1 3.68 1 3 C0.34 3 -0.32 3 -1 3 C-0.67 2.01 -0.34 1.02 0 0 Z " fill="#CE8D58" transform="translate(358,167)"/>
<path d="M0 0 C5.15464734 0.48324819 8.81550319 3.18610761 13 6 C12.01 6.495 12.01 6.495 11 7 C10.01 6.67 9.02 6.34 8 6 C8 5.34 8 4.68 8 4 C5.69 4 3.38 4 1 4 C0.67 2.68 0.34 1.36 0 0 Z " fill="#CD935B" transform="translate(328,147)"/>
<path d="M0 0 C0.66 0 1.32 0 2 0 C2.125 2.375 2.125 2.375 2 5 C1.34 5.66 0.68 6.32 0 7 C-2.4375 6.875 -2.4375 6.875 -5 6 C-6.8125 3.9375 -6.8125 3.9375 -8 2 C-5.36 2.66 -2.72 3.32 0 4 C0 2.68 0 1.36 0 0 Z " fill="#D09C70" transform="translate(366,132)"/>
<path d="M0 0 C0.66 0 1.32 0 2 0 C0.50902342 3.7952131 -1.75700849 5.61042731 -5 8 C-5.5534764 5.92446352 -6 4.15634036 -6 2 C-4.7934375 1.7834375 -4.7934375 1.7834375 -3.5625 1.5625 C-1.07896294 1.25864751 -1.07896294 1.25864751 0 0 Z " fill="#D18F4B" transform="translate(357,288)"/>
<path d="M0 0 C3.875 0.875 3.875 0.875 5 2 C5.04080783 3.99958364 5.04254356 6.00045254 5 8 C5.66 8.33 6.32 8.66 7 9 C6.34 9.66 5.68 10.32 5 11 C4.16151196 9.54462432 3.32936066 8.08559627 2.5 6.625 C1.80390625 5.40683594 1.80390625 5.40683594 1.09375 4.1640625 C0 2 0 2 0 0 Z " fill="#D39159" transform="translate(358,188)"/>
<path d="M0 0 C6 7.4 6 7.4 6 11 C5.34 11 4.68 11 4 11 C4 10.01 4 9.02 4 8 C3.360625 7.7525 2.72125 7.505 2.0625 7.25 C0 6 0 6 -0.8125 4 C-1 2 -1 2 0 0 Z " fill="#53585E" transform="translate(428,166)"/>
<path d="M0 0 C1.49828872 3.88235819 0.43110582 6.43449288 -0.9375 10.25 C-1.31777344 11.32765625 -1.69804687 12.4053125 -2.08984375 13.515625 C-2.39019531 14.33546875 -2.69054687 15.1553125 -3 16 C-3.33 16 -3.66 16 -4 16 C-4 13.69 -4 11.38 -4 9 C-3.34 9 -2.68 9 -2 9 C-2.04125 8.071875 -2.0825 7.14375 -2.125 6.1875 C-2 3 -2 3 0 0 Z " fill="#D79662" transform="translate(359,239)"/>
<path d="M0 0 C0.33 0 0.66 0 1 0 C1.40214229 6.16618181 -0.03181664 11.17745757 -2 17 C-2.33 16.01 -2.66 15.02 -3 14 C-3.66 13.67 -4.32 13.34 -5 13 C-4.34 12.67 -3.68 12.34 -3 12 C-2.39184816 10.15302626 -2.39184816 10.15302626 -2 8 C-1.33333333 5.33333333 -0.66666667 2.66666667 0 0 Z " fill="#5C6369" transform="translate(197,197)"/>
<path d="M0 0 C4.67692308 1.47692308 4.67692308 1.47692308 6.3125 4.125 C6.539375 4.74375 6.76625 5.3625 7 6 C6.01 6.66 5.02 7.32 4 8 C3.34 7.01 2.68 6.02 2 5 C1.01 4.34 0.02 3.68 -1 3 C-0.67 2.01 -0.34 1.02 0 0 Z " fill="#B0B19F" transform="translate(506,141)"/>
<path d="M0 0 C1.32 0.33 2.64 0.66 4 1 C2.37554381 1.98006859 0.75041739 2.95902636 -0.875 3.9375 C-1.77992188 4.48277344 -2.68484375 5.02804688 -3.6171875 5.58984375 C-5.05201636 6.43898017 -6.50875448 7.25437724 -8 8 C-8.33 6.35 -8.66 4.7 -9 3 C-4.545 2.505 -4.545 2.505 0 2 C0 1.34 0 0.68 0 0 Z " fill="#D1A070" transform="translate(240,126)"/>
<path d="M0 0 C5.19209404 -0.21192221 9.126739 0.4087311 14 2 C14 2.66 14 3.32 14 4 C9.30976546 3.43393721 4.65499974 2.81462495 0 2 C0 1.34 0 0.68 0 0 Z " fill="#D79D6A" transform="translate(304,113)"/>
<path d="M0 0 C0.33 0 0.66 0 1 0 C1.125 5.75 1.125 5.75 0 8 C-3.0625 8.625 -3.0625 8.625 -6 9 C-6 7.68 -6 6.36 -6 5 C-3 4 -3 4 0 5 C0 3.35 0 1.7 0 0 Z " fill="#727167" transform="translate(414,32)"/>
<path d="M0 0 C2.97 0.495 2.97 0.495 6 1 C2.267612 4.57011026 -2.0949989 5.10913442 -7 6 C-3.25 3 -3.25 3 -1 3 C-0.67 2.01 -0.34 1.02 0 0 Z " fill="#D1935B" transform="translate(317,287)"/>
<path d="M0 0 C2.31 0 4.62 0 7 0 C6.01 0.66 5.02 1.32 4 2 C3.4328125 2.43699219 2.865625 2.87398437 2.28125 3.32421875 C1.39953125 3.99904297 1.39953125 3.99904297 0.5 4.6875 C-0.0878125 5.14511719 -0.675625 5.60273438 -1.28125 6.07421875 C-1.8484375 6.37972656 -2.415625 6.68523437 -3 7 C-3.99 6.67 -4.98 6.34 -6 6 C-5.34 5.67 -4.68 5.34 -4 5 C-4 4.34 -4 3.68 -4 3 C-2.68 3 -1.36 3 0 3 C0 2.01 0 1.02 0 0 Z " fill="#CB8F52" transform="translate(253,160)"/>
<path d="M0 0 C1.66611905 -0.042721 3.33382885 -0.04063832 5 0 C6 1 6 1 6.09765625 2.84765625 C6.06510417 4.8984375 6.03255208 6.94921875 6 9 C4.66666667 7 3.33333333 5 2 3 C1.01 3.495 1.01 3.495 0 4 C0 2.68 0 1.36 0 0 Z " fill="#62676C" transform="translate(167,157)"/>
<path d="M0 0 C2 0 2 0 3.625 1.5 C4.07875 1.995 4.5325 2.49 5 3 C5.33 2.34 5.66 1.68 6 1 C6.99 1.66 7.98 2.32 9 3 C8.34 3 7.68 3 7 3 C6.34 4.32 5.68 5.64 5 7 C3.02 5.68 1.04 4.36 -1 3 C-0.67 2.01 -0.34 1.02 0 0 Z " fill="#A7A8A1" transform="translate(500,150)"/>
<path d="M0 0 C4.38889325 0.66498383 7.9811485 2.18757677 12 4 C10.3125 5.125 10.3125 5.125 8 6 C5.25 5.125 5.25 5.125 3 4 C3 3.34 3 2.68 3 2 C2.01 2 1.02 2 0 2 C0 1.34 0 0.68 0 0 Z " fill="#D3A16E" transform="translate(244,328)"/>
<path d="M0 0 C-9.41002278 3.25968109 -9.41002278 3.25968109 -14 4 C-13.67 3.01 -13.34 2.02 -13 1 C-11.07421875 0.234375 -11.07421875 0.234375 -8.6875 -0.25 C-7.90761719 -0.42015625 -7.12773437 -0.5903125 -6.32421875 -0.765625 C-3.92348133 -1.00771617 -2.28190412 -0.7310448 0 0 Z " fill="#D0A374" transform="translate(331,310)"/>
<path d="M0 0 C0.66 0 1.32 0 2 0 C1.00102287 2.99693138 0.34869747 4.02709413 -2 6 C-2.66 6 -3.32 6 -4 6 C-4 6.99 -4 7.98 -4 9 C-5.32 8.67 -6.64 8.34 -8 8 C-8 7.34 -8 6.68 -8 6 C-6.02678947 4.6273318 -4.02456848 3.29572383 -2 2 C-1.34 1.34 -0.68 0.68 0 0 Z " fill="#CB9260" transform="translate(345,283)"/>
<path d="M0 0 C1.32 0.33 2.64 0.66 4 1 C4 1.66 4 2.32 4 3 C4.639375 3.268125 5.27875 3.53625 5.9375 3.8125 C8 5 8 5 9 8 C4.58848129 6.65203595 2.61191481 4.77276583 0 1 C0 0.67 0 0.34 0 0 Z " fill="#CB9159" transform="translate(242,271)"/>
<path d="M0 0 C-0.33 1.65 -0.66 3.3 -1 5 C-3.31 5.66 -5.62 6.32 -8 7 C-8 6.34 -8 5.68 -8 5 C-2.52380952 0 -2.52380952 0 0 0 Z " fill="#E67921" transform="translate(238,169)"/>
<path d="M0 0 C0.33 0.66 0.66 1.32 1 2 C-1.33214148 3.20628008 -3.49642139 4.1654738 -6 5 C-6.33 3.35 -6.66 1.7 -7 0 C-3.88407501 -1.03864166 -2.9737344 -1.09036928 0 0 Z " fill="#46463E" transform="translate(414,30)"/>
<path d="M0 0 C0.66 0.33 1.32 0.66 2 1 C1.55090939 2.48199902 1.09043436 3.96055236 0.625 5.4375 C0.36976563 6.26121094 0.11453125 7.08492188 -0.1484375 7.93359375 C-1 10 -1 10 -3 11 C-3.75 8.875 -3.75 8.875 -4 6 C-2.0625 2.6875 -2.0625 2.6875 0 0 Z " fill="#CE9564" transform="translate(375,260)"/>
<path d="M0 0 C0.99 0.33 1.98 0.66 3 1 C1.35 2.98 -0.3 4.96 -2 7 C-3.32 6.34 -4.64 5.68 -6 5 C-5.01 4.67 -4.02 4.34 -3 4 C-2.67 3.01 -2.34 2.02 -2 1 C-1.34 0.67 -0.68 0.34 0 0 Z " fill="#61676B" transform="translate(428,214)"/>
<path d="M0 0 C0.33 0.99 0.66 1.98 1 3 C1.99 3.33 2.98 3.66 4 4 C4 4.66 4 5.32 4 6 C2.53932801 5.54917531 1.08151968 5.08906463 -0.375 4.625 C-1.18710937 4.36976563 -1.99921875 4.11453125 -2.8359375 3.8515625 C-5 3 -5 3 -7 1 C-3.535 0.505 -3.535 0.505 0 0 Z " fill="#CF9A69" transform="translate(324,155)"/>
<path d="M0 0 C5.94 1.485 5.94 1.485 12 3 C11.01 4.485 11.01 4.485 10 6 C6.40992874 4.66654496 3.20429093 3.1056769 0 1 C0 0.67 0 0.34 0 0 Z " fill="#D69E72" transform="translate(229,328)"/>
<path d="M0 0 C-0.98093954 2.45234885 -1.68703828 3.7809268 -3.875 5.3125 C-6.37345514 6.12082372 -7.52928976 5.71847013 -10 5 C-8.71186658 4.16121545 -7.41936744 3.32913217 -6.125 2.5 C-5.40570313 2.0359375 -4.68640625 1.571875 -3.9453125 1.09375 C-2 0 -2 0 0 0 Z " fill="#D29965" transform="translate(358,319)"/>
<path d="M0 0 C-2.5162178 2.60608273 -5.05134359 4.89381685 -8 7 C-8 5.02 -8 3.04 -8 1 C-5.07175348 0.02391783 -3.04386724 -0.08226668 0 0 Z " fill="#D19057" transform="translate(248,167)"/>
<path d="M0 0 C0.33 0.66 0.66 1.32 1 2 C1.66 2.33 2.32 2.66 3 3 C3 4.65 3 6.3 3 8 C3.66 8 4.32 8 5 8 C5 8.99 5 9.98 5 11 C3.046875 10.2890625 3.046875 10.2890625 1 9 C0.390625 6.8359375 0.390625 6.8359375 0.25 4.375 C0.19328125 3.55773437 0.1365625 2.74046875 0.078125 1.8984375 C0.05234375 1.27195312 0.0265625 0.64546875 0 0 Z " fill="#484C52" transform="translate(403,287)"/>
<path d="M0 0 C1.25 1.5625 1.25 1.5625 2 4 C-0.00142531 8.29935807 -1.04860326 10.3657355 -5 13 C-5 12.01 -5 11.02 -5 10 C-4.34 10 -3.68 10 -3 10 C-2.67 8.68 -2.34 7.36 -2 6 C-1.34 6 -0.68 6 0 6 C0 4.02 0 2.04 0 0 Z " fill="#CD8F59" transform="translate(370,268)"/>
<path d="M0 0 C2.0625 1.75 2.0625 1.75 4 4 C3.75 6.25 3.75 6.25 3 8 C2.01 7.67 1.02 7.34 0 7 C-1.17755913 4.05610218 -1.03348696 3.10046087 0 0 Z " fill="#E57A26" transform="translate(218,192)"/>
<path d="M0 0 C3.96 0 7.92 0 12 0 C12 0.33 12 0.66 12 1 C7.8803623 2.29243536 4.33168317 3.26252625 0 3 C0 2.01 0 1.02 0 0 Z " fill="#D49052" transform="translate(276,151)"/>
<path d="M0 0 C1.8871875 0.0309375 1.8871875 0.0309375 3.8125 0.0625 C0.65009418 2.17077055 -0.69407469 2.40067465 -4.375 2.6875 C-5.72658203 2.79964844 -5.72658203 2.79964844 -7.10546875 2.9140625 C-8.13607422 2.98753906 -8.13607422 2.98753906 -9.1875 3.0625 C-6.30623588 0.18123588 -3.90053134 -0.06394314 0 0 Z " fill="#CB9469" transform="translate(323.1875,341.9375)"/>
<path d="M0 0 C0.33 0.99 0.66 1.98 1 3 C-0.41377782 3.36552803 -1.83120576 3.71695495 -3.25 4.0625 C-4.03890625 4.25972656 -4.8278125 4.45695312 -5.640625 4.66015625 C-8 5 -8 5 -12 4 C-8.04 2.68 -4.08 1.36 0 0 Z " fill="#D59C6D" transform="translate(336,330)"/>
<path d="M0 0 C3.63 0.33 7.26 0.66 11 1 C11.33 1.99 11.66 2.98 12 4 C10.3733152 3.71788123 8.74867104 3.42397625 7.125 3.125 C5.76761719 2.88136719 5.76761719 2.88136719 4.3828125 2.6328125 C2 2 2 2 0 0 Z " fill="#D39C6A" transform="translate(258,310)"/>
<path d="M0 0 C0 3 0 3 -1.5 4.6875 C-1.995 5.120625 -2.49 5.55375 -3 6 C-3.99 5.67 -4.98 5.34 -6 5 C-5.25 3.0625 -5.25 3.0625 -4 1 C-1.875 0.25 -1.875 0.25 0 0 Z " fill="#575E63" transform="translate(423,292)"/>
<path d="M0 0 C1.83836919 3.67673838 2.93651813 7.04992447 4 11 C2.68 10.67 1.36 10.34 0 10 C0 6.7 0 3.4 0 0 Z " fill="#D38E59" transform="translate(218,243)"/>
<path d="M0 0 C1.96446905 1.6344795 2.92317791 2.46429394 3.29296875 5.04296875 C3.1953125 7.02864583 3.09765625 9.01432292 3 11 C2.01 11.495 2.01 11.495 1 12 C0.03929566 9.11788698 -0.10581883 7.30149956 -0.0625 4.3125 C-0.05347656 3.50425781 -0.04445313 2.69601563 -0.03515625 1.86328125 C-0.02355469 1.24839844 -0.01195312 0.63351563 0 0 Z " fill="#E29357" transform="translate(368,234)"/>
<path d="M0 0 C0.33 0 0.66 0 1 0 C1.33 4.29 1.66 8.58 2 13 C-0.59381229 9.10928156 -0.63187808 6.63833615 -1 2 C-0.67 1.34 -0.34 0.68 0 0 Z " fill="#D69865" transform="translate(205,235)"/>
<path d="M0 0 C0.99 0.33 1.98 0.66 3 1 C1.515 6.445 1.515 6.445 0 12 C-0.33 12 -0.66 12 -1 12 C-1.14285714 3.42857143 -1.14285714 3.42857143 0 0 Z " fill="#D2A16E" transform="translate(219,202)"/>
<path d="M0 0 C0 3.86695678 -1.41909971 6.5088452 -3 10 C-3.33 10 -3.66 10 -4 10 C-4.33 7.69 -4.66 5.38 -5 3 C-4.34 3 -3.68 3 -3 3 C-3 2.34 -3 1.68 -3 1 C-2.01 0.67 -1.02 0.34 0 0 Z " fill="#D6A16B" transform="translate(226,191)"/>
<path d="M0 0 C4.571279 0.54855348 8.67435795 1.41744803 13 3 C10.64561267 4.42944945 9.51967567 5.08661261 6.75 4.625 C6.1725 4.41875 5.595 4.2125 5 4 C5 3.34 5 2.68 5 2 C3.35 1.67 1.7 1.34 0 1 C0 0.67 0 0.34 0 0 Z " fill="#D79B6E" transform="translate(256,333)"/>
<path d="M0 0 C0.598125 0.226875 1.19625 0.45375 1.8125 0.6875 C0.8534375 1.491875 0.8534375 1.491875 -0.125 2.3125 C-2.57279404 5.13117193 -2.85464612 7.02610732 -3.1875 10.6875 C-3.5175 10.6875 -3.8475 10.6875 -4.1875 10.6875 C-5.5245565 3.27291393 -5.5245565 3.27291393 -4 0.625 C-2.1875 -0.3125 -2.1875 -0.3125 0 0 Z " fill="#596266" transform="translate(422.1875,221.3125)"/>
<path d="M0 0 C1.46726798 3.81489674 0.43336419 6.29011622 -1 10 C-1.66 10 -2.32 10 -3 10 C-2.49287967 6.28111761 -1.88391785 3.26545761 0 0 Z " fill="#CE9860" transform="translate(233,197)"/>
<path d="M0 0 C0.33 1.32 0.66 2.64 1 4 C0.01 4.33 -0.98 4.66 -2 5 C-1.67 5.99 -1.34 6.98 -1 8 C-2.32 8.33 -3.64 8.66 -5 9 C-3.7508258 5.54074837 -2.32472205 2.85306797 0 0 Z " fill="#D6A575" transform="translate(239,188)"/>
<path d="M0 0 C2.31 0.33 4.62 0.66 7 1 C6.67 2.65 6.34 4.3 6 6 C4.66666667 6 3.33333333 6 2 6 C2 4.35 2 2.7 2 1 C1.34 0.67 0.68 0.34 0 0 Z " fill="#26333A" transform="translate(164,178)"/>
<path d="M0 0 C2.31 0.33 4.62 0.66 7 1 C7.33 1.99 7.66 2.98 8 4 C10.01508358 4.73323796 10.01508358 4.73323796 12 5 C10.3125 5.75 10.3125 5.75 8 6 C5.4375 4.1875 5.4375 4.1875 3 2 C2.01 1.34 1.02 0.68 0 0 Z " fill="#CF975D" transform="translate(328,161)"/>
<path d="M0 0 C0.66 0.33 1.32 0.66 2 1 C2 2.32 2 3.64 2 5 C-1.71888239 4.49287967 -4.73454239 3.88391785 -8 2 C-6 1 -6 1 -2.875 1.9375 C-1.92625 2.288125 -0.9775 2.63875 0 3 C0 2.01 0 1.02 0 0 Z " fill="#CF7D36" transform="translate(364,131)"/>
<path d="M0 0 C1.65 0.33 3.3 0.66 5 1 C4.67 1.99 4.34 2.98 4 4 C2.0625 4.75 2.0625 4.75 0 5 C-0.66 4.67 -1.32 4.34 -2 4 C-1.34 2.68 -0.68 1.36 0 0 Z " fill="#D08643" transform="translate(224,128)"/>
<path d="M0 0 C-2.06756277 2.7972908 -3.14440371 3.02692273 -6.6875 3.6875 C-7.780625 3.790625 -8.87375 3.89375 -10 4 C-7.16124653 -0.25813021 -4.8137938 -0.13010254 0 0 Z " fill="#CA915E" transform="translate(254,114)"/>
<path d="M0 0 C0.33 0.66 0.66 1.32 1 2 C1.66 2.33 2.32 2.66 3 3 C0.66785852 4.20628008 -1.49642139 5.1654738 -4 6 C-4.99 5.34 -5.98 4.68 -7 4 C-6.01 4 -5.02 4 -4 4 C-4 3.34 -4 2.68 -4 2 C-2.68 1.34 -1.36 0.68 0 0 Z " fill="#DB9153" transform="translate(328,113)"/>
<path d="M0 0 C0.66 0 1.32 0 2 0 C3.46726798 3.81489674 2.43336419 6.29011622 1 10 C0.67 10 0.34 10 0 10 C0 6.7 0 3.4 0 0 Z " fill="#242F35" transform="translate(404,279)"/>
<path d="M0 0 C2.42130331 2.42130331 2.52840504 3.80111377 3.125 7.125 C3.29257812 8.03507813 3.46015625 8.94515625 3.6328125 9.8828125 C3.81457031 10.93082031 3.81457031 10.93082031 4 12 C1 10 1 10 0.48828125 7.6171875 C0.40126953 6.25980469 0.40126953 6.25980469 0.3125 4.875 C0.24675781 3.96492187 0.18101562 3.05484375 0.11328125 2.1171875 C0.07589844 1.41851562 0.03851563 0.71984375 0 0 Z " fill="#DCA476" transform="translate(356,206)"/>
<path d="M0 0 C1.19156292 4.76625167 0.3415946 5.87879351 -2 10 C-2.99 9.67 -3.98 9.34 -5 9 C-3.35 6.03 -1.7 3.06 0 0 Z " fill="#555B5F" transform="translate(434,203)"/>
<path d="M0 0 C0.66 0 1.32 0 2 0 C2 0.66 2 1.32 2 2 C2.928125 2.37125 2.928125 2.37125 3.875 2.75 C6.35068687 4.20628639 6.95125002 5.37812506 8 8 C7.01 8.495 7.01 8.495 6 9 C4.99712471 7.68969568 3.99777175 6.37669473 3 5.0625 C2.443125 4.33160156 1.88625 3.60070312 1.3125 2.84765625 C0 1 0 1 0 0 Z " fill="#CA925E" transform="translate(348,175)"/>
<path d="M0 0 C2.76276177 0.52268466 5.3260876 1.10869587 8 2 C8.6875 4.0625 8.6875 4.0625 9 6 C5.88802644 4.50164236 2.91164984 2.86022073 0 1 C0 0.67 0 0.34 0 0 Z " fill="#D0A271" transform="translate(348,128)"/>
<path d="M0 0 C0.66 1.32 1.32 2.64 2 4 C0.68 4.33 -0.64 4.66 -2 5 C-2 4.34 -2 3.68 -2 3 C-2.99 2.67 -3.98 2.34 -5 2 C-3.35 1.34 -1.7 0.68 0 0 Z " fill="#DC7E2B" transform="translate(351,122)"/>
<path d="M0 0 C1.65 0.33 3.3 0.66 5 1 C4.01 1.495 4.01 1.495 3 2 C2.34786708 4.02463255 2.34786708 4.02463255 2 6 C1.01 5.67 0.02 5.34 -1 5 C-0.67 3.35 -0.34 1.7 0 0 Z " fill="#D68945" transform="translate(340,332)"/>
<path d="M0 0 C0 0.66 0 1.32 0 2 C-0.99 2.33 -1.98 2.66 -3 3 C-3.99 4.485 -3.99 4.485 -5 6 C-5.99 5.67 -6.98 5.34 -8 5 C-7.67 4.34 -7.34 3.68 -7 3 C-6.34 3 -5.68 3 -5 3 C-5 2.34 -5 1.68 -5 1 C-3 0 -3 0 0 0 Z " fill="#CF9B6F" transform="translate(351,296)"/>
<path d="M0 0 C0.66 0 1.32 0 2 0 C2 1.98 2 3.96 2 6 C1.01 6.33 0.02 6.66 -1 7 C-1.66 6.34 -2.32 5.68 -3 5 C-1.625 2.5 -1.625 2.5 0 0 Z " fill="#2E383E" transform="translate(419,260)"/>
<path d="M0 0 C2.31 1.98 4.62 3.96 7 6 C5.68 6.33 4.36 6.66 3 7 C1 4 1 4 0 0 Z " fill="#D7965C" transform="translate(337,178)"/>
<path d="M0 0 C4.42857143 5.14285714 4.42857143 5.14285714 5 9 C2 8 2 8 0.8125 6.1875 C0 4 0 4 0 0 Z " fill="#D5A064" transform="translate(367,178)"/>
<path d="M0 0 C1.35432675 1.31200404 2.68733482 2.64631404 4 4 C4 4.33 4 4.66 4 5 C2.35 5 0.7 5 -1 5 C-1.33 6.32 -1.66 7.64 -2 9 C-1.125 2.25 -1.125 2.25 0 0 Z " fill="#60686F" transform="translate(393,174)"/>
<path d="M0 0 C2 1 2 1 2.6875 2.5625 C3.14931685 6.16467146 2.5382496 9.41166932 2 13 C1.67 13 1.34 13 1 13 C0.67 8.71 0.34 4.42 0 0 Z " fill="#73787D" transform="translate(188,172)"/>
<path d="M0 0 C2.4375 1.25 2.4375 1.25 3.4375 4.25 C2.4475 4.745 2.4475 4.745 1.4375 5.25 C0.7775 4.59 0.1175 3.93 -0.5625 3.25 C-1.5525 2.92 -2.5425 2.59 -3.5625 2.25 C-3.8925 1.59 -4.2225 0.93 -4.5625 0.25 C-2.5625 -0.75 -2.5625 -0.75 0 0 Z " fill="#B3B3AC" transform="translate(96.5625,134.75)"/>
<path d="M0 0 C2.64 0.33 5.28 0.66 8 1 C8.33 2.32 8.66 3.64 9 5 C5.22454612 3.90931332 2.52956528 3.0916909 0 0 Z " fill="#D28F60" transform="translate(334,121)"/>
<path d="M0 0 C0.66 0.33 1.32 0.66 2 1 C0 4 0 4 -2.1640625 4.51171875 C-2.97617187 4.56972656 -3.78828125 4.62773437 -4.625 4.6875 C-5.85089844 4.78611328 -5.85089844 4.78611328 -7.1015625 4.88671875 C-7.72804688 4.92410156 -8.35453125 4.96148437 -9 5 C-6.06626269 3.04417512 -3.21783702 1.43775696 0 0 Z " fill="#CB9769" transform="translate(346,325)"/>
<path d="M0 0 C0.99 0.33 1.98 0.66 3 1 C0.59563974 4.60654039 -0.94679607 4.85452932 -5 6 C-5.33 5.34 -5.66 4.68 -6 4 C-4.02 3.67 -2.04 3.34 0 3 C0 2.01 0 1.02 0 0 Z " fill="#D09466" transform="translate(340,301)"/>
<path d="M0 0 C0.33 0.66 0.66 1.32 1 2 C-0.375 4 -0.375 4 -2 6 C-2.66 6 -3.32 6 -4 6 C-3.67 4.35 -3.34 2.7 -3 1 C-2.01 0.67 -1.02 0.34 0 0 Z " fill="#CD833E" transform="translate(251,177)"/>
<path d="M0 0 C0.66 0.33 1.32 0.66 2 1 C0.25 5.875 0.25 5.875 -2 7 C-2.6875 5.1875 -2.6875 5.1875 -3 3 C-1.5625 1.25 -1.5625 1.25 0 0 Z " fill="#B7B7B3" transform="translate(513,135)"/>
<path d="M0 0 C2.125 0.9375 2.125 0.9375 4 2 C3.67 2.99 3.34 3.98 3 5 C2.01 5 1.02 5 0 5 C-0.66 3.68 -1.32 2.36 -2 1 C-1.34 0.67 -0.68 0.34 0 0 Z " fill="#94948F" transform="translate(521,129)"/>
<path d="M0 0 C1.5 1.375 1.5 1.375 3 3 C3 3.66 3 4.32 3 5 C3.66 5 4.32 5 5 5 C5 5.66 5 6.32 5 7 C3.68 6.67 2.36 6.34 1 6 C0.67 4.02 0.34 2.04 0 0 Z " fill="#CF8E57" transform="translate(229,269)"/>
<path d="M0 0 C0.33 0.66 0.66 1.32 1 2 C1.99 2 2.98 2 4 2 C4.33 3.98 4.66 5.96 5 8 C2.5 5.6875 2.5 5.6875 0 3 C0 2.01 0 1.02 0 0 Z " fill="#D57D34" transform="translate(363,176)"/>
<path d="M0 0 C0.66 0.33 1.32 0.66 2 1 C0.515 3.475 0.515 3.475 -1 6 C-2.32 5.34 -3.64 4.68 -5 4 C-3.35 2.68 -1.7 1.36 0 0 Z " fill="#D8A981" transform="translate(254,173)"/>
<path d="M0 0 C0 0.66 0 1.32 0 2 C-1.32 2 -2.64 2 -4 2 C-4 2.66 -4 3.32 -4 4 C-5.65 4 -7.3 4 -9 4 C-6.31059578 0.90718514 -4.07621501 0 0 0 Z " fill="#CE9969" transform="translate(267,143)"/>
<path d="" fill="#FFFFFF" transform="translate(0,0)"/>
</svg>
