<?xml version="1.0" encoding="UTF-8"?>
<svg version="1.1" xmlns="http://www.w3.org/2000/svg" width="632" height="395">
<path d="M0 0 C3.81316472 2.32105679 5.5187752 1.46275629 9.875 0.75 C19.12406709 0.04404988 27.76713562 -0.29691783 35.875 4.75 C37.3909375 5.554375 37.3909375 5.554375 38.9375 6.375 C39.576875 6.82875 40.21625 7.2825 40.875 7.75 C40.875 8.41 40.875 9.07 40.875 9.75 C41.4525 9.976875 42.03 10.20375 42.625 10.4375 C44.875 11.75 44.875 11.75 46.6328125 14.265625 C49.44218078 17.37844421 50.88794459 17.46074586 55 17.8125 C65.4531501 19.08984682 73.43302027 22.31452533 80.30859375 30.4453125 C83.72171255 34.96237774 86.875 39.96086066 86.875 45.75 C87.865 45.87375 87.865 45.87375 88.875 46 C94.01508712 47.28502178 98.48609606 49.82406404 102.875 52.75 C102.875 53.41 102.875 54.07 102.875 54.75 C103.865 55.08 104.855 55.41 105.875 55.75 C111.59473355 62.34969255 114.9692333 70.6536071 115 79.4375 C115.21313889 82.69970919 115.78857495 83.65533659 118.046875 86.12890625 C119.80188333 87.66834275 121.59532229 89.16541405 123.4296875 90.609375 C129.23624427 95.69243108 131.56269161 102.87321183 132.16796875 110.38671875 C132.31742927 117.53947207 132.03773317 123.29275312 128.875 129.75 C129.865 130.08 130.855 130.41 131.875 130.75 C133.2265625 132.5 133.2265625 132.5 134.5 134.75 C134.92539062 135.471875 135.35078125 136.19375 135.7890625 136.9375 C136.875 139.75 136.875 139.75 137.875 148.75 C145.135 148.75 152.395 148.75 159.875 148.75 C164.99564337 158.99128675 160.46565936 177.0901415 158.5625 187.6875 C158.34964355 188.87714355 158.13678711 190.06678711 157.91748047 191.29248047 C156.78923975 197.18067048 155.42477366 202.33436504 152.875 207.75 C152.3773589 209.48923051 151.91584267 211.23941932 151.5 213 C149.9273267 218.94389856 147.57722963 224.24080316 144.875 229.75 C144.57932129 230.36568848 144.28364258 230.98137695 143.97900391 231.61572266 C138.65410918 242.70180119 132.83259757 253.12840315 125.2890625 262.890625 C123.83465524 264.80305002 122.48126557 266.7671556 121.125 268.75 C120.3825 269.74 119.64 270.73 118.875 271.75 C118.215 271.75 117.555 271.75 116.875 271.75 C116.875 272.41 116.875 273.07 116.875 273.75 C116.215 273.75 115.555 273.75 114.875 273.75 C114.60558594 274.33394531 114.33617187 274.91789062 114.05859375 275.51953125 C109.79833329 283.54794288 100.47733772 292.88255409 91.875 295.75 C91.875 296.41 91.875 297.07 91.875 297.75 C89.94140625 299.22265625 89.94140625 299.22265625 87.4375 300.8125 C84.5031857 302.58678892 84.5031857 302.58678892 81.875 304.75 C81.24950779 308.05079021 80.68140229 311.35386735 80.15625 314.671875 C79.42234004 318.91918373 78.56486366 322.24628016 75.875 325.75 C75.215 325.75 74.555 325.75 73.875 325.75 C73.545 326.74 73.215 327.73 72.875 328.75 C67.60194708 332.45538853 63.4236763 332.87500206 57.06988525 332.89717102 C56.38607528 332.90084771 55.70226532 332.9045244 54.99773383 332.9083125 C52.70714043 332.91932264 50.41659243 332.92318862 48.12597656 332.92700195 C46.48321388 332.93326859 44.8404526 332.93991557 43.19769287 332.94691467 C37.80368025 332.96793246 32.40966741 332.97831445 27.015625 332.98828125 C25.15722387 332.99232956 23.29882289 332.99644651 21.44042206 333.00063133 C12.70950095 333.01967744 3.97858827 333.03391008 -4.75234962 333.0422433 C-14.82461893 333.05201602 -24.8966685 333.07833889 -34.96886039 333.11874419 C-42.75838778 333.14891832 -50.54785222 333.16371338 -58.33743691 333.16702431 C-62.98789236 333.16937317 -67.63811289 333.17831241 -72.28850555 333.20348549 C-76.6650746 333.22679416 -81.0412545 333.23098827 -85.41786957 333.22072411 C-87.02063289 333.22022933 -88.62341556 333.22653274 -90.22612 333.24028015 C-100.33353912 333.32210003 -107.48833222 332.8483445 -115.4375 326.0625 C-118.57067569 322.25143406 -118.71012214 318.10300579 -119.25 313.375 C-119.84705198 308.60928216 -120.3498261 305.61615675 -123.62109375 301.9609375 C-126.70917249 299.73437372 -129.89052087 297.7558481 -133.125 295.75 C-135.85004141 293.43884257 -138.45191866 291.03183436 -141.06640625 288.59765625 C-143.18861493 286.60434369 -143.18861493 286.60434369 -146.125 284.75 C-146.125 284.09 -146.125 283.43 -146.125 282.75 C-146.785 282.75 -147.445 282.75 -148.125 282.75 C-148.125 282.09 -148.125 281.43 -148.125 280.75 C-148.96224609 280.43095703 -148.96224609 280.43095703 -149.81640625 280.10546875 C-152.8937781 278.29861929 -154.86070266 275.80741293 -157.0625 273.0625 C-157.50126465 272.52447754 -157.9400293 271.98645508 -158.39208984 271.43212891 C-167.125 260.64975747 -167.125 260.64975747 -167.125 257.75 C-167.785 257.75 -168.445 257.75 -169.125 257.75 C-169.9603125 256.265 -169.9603125 256.265 -170.8125 254.75 C-172.33403091 252.0819634 -173.9169903 249.46823998 -175.5625 246.875 C-180.24116208 239.41210344 -183.99187183 231.98190709 -187.125 223.75 C-187.51558594 222.80769531 -187.90617188 221.86539063 -188.30859375 220.89453125 C-196.40731498 200.9883286 -203.6608282 174.45497015 -201.125 152.75 C-200.135 150.77 -200.135 150.77 -199.125 148.75 C-191.865 148.75 -184.605 148.75 -177.125 148.75 C-176.795 145.78 -176.465 142.81 -176.125 139.75 C-174.96875 137.078125 -174.96875 137.078125 -173.625 135 C-170.19173135 129.61056665 -169.89771845 125.96738643 -171.25 119.75 C-172.73419436 110.76350813 -171.25400035 102.66057591 -166.4375 94.875 C-164.22631689 91.79375236 -161.93872387 89.82687777 -158.875 87.625 C-154.79908622 84.32875912 -154.44241714 81.4344529 -153.875 76.3125 C-153.75898438 75.00152344 -153.64296875 73.69054687 -153.5234375 72.33984375 C-152.58114607 63.84998277 -147.45687662 57.28656845 -141.125 51.75 C-131.40426078 45.75 -131.40426078 45.75 -126.125 45.75 C-126.021875 45.069375 -125.91875 44.38875 -125.8125 43.6875 C-123.47200843 33.68721786 -118.01079164 27.41299478 -109.40625 22.03515625 C-104.03912023 19.01155061 -99.86734647 17.72188023 -93.6875 17.6875 C-90.0123393 17.45970078 -88.5497836 17.1303295 -85.7734375 14.64453125 C-84.29115577 12.87155469 -82.83154517 11.07939202 -81.39453125 9.26953125 C-77.26338702 4.68332122 -71.87710223 2.66736741 -66.125 0.75 C-63.36441343 0.65263491 -60.63489004 0.61084672 -57.875 0.625 C-56.76705078 0.61919922 -56.76705078 0.61919922 -55.63671875 0.61328125 C-52.0530947 0.61960157 -48.78364339 0.80404243 -45.2265625 1.3671875 C-42.05633158 2.11919693 -42.05633158 2.11919693 -39.75 0 C-38.88375 -0.7425 -38.0175 -1.485 -37.125 -2.25 C-25.04516486 -7.36069948 -11.03514034 -7.94530105 0 0 Z " fill="#F6A676" transform="translate(336.125,34.25)"/>
<path d="M0 0 C2.7406202 1.70679194 4.58420968 3.28214626 6.875 5.625 C8.90120156 7.96538381 8.90120156 7.96538381 11.4375 8.375 C14.03162027 7.8320446 15.5831557 7.07868725 17.875 5.8125 C23.29319296 2.97149995 27.83524483 2.9713977 33.70703125 4.47265625 C41.17131611 7.05773841 45.18179312 11.06357729 48.78125 18.0078125 C50.92987765 21.20397865 50.92987765 21.20397865 54.8828125 21.40625 C56.33882892 21.39441111 57.79478551 21.36224685 59.25 21.3125 C66.86025276 21.41518828 72.31677883 22.48055297 78.125 27.8125 C82.40223651 32.56837964 83.77528683 37.44768652 84.5703125 43.7109375 C84.97694196 46.19258426 84.97694196 46.19258426 88.125 47.8125 C89.49079383 48.10869625 90.86802862 48.3544613 92.25 48.5625 C99.31190483 50.06919305 105.09926564 53.66455192 109.1875 59.6875 C112.00206371 65.29741539 111.47562153 71.22581208 111.203125 77.3359375 C110.92988206 80.78958168 110.92988206 80.78958168 112.125 83.8125 C112.99125 84.080625 113.8575 84.34875 114.75 84.625 C120.37412316 86.60385815 123.93701043 89.8963878 127.0625 94.9375 C129.24208903 101.02951903 129.37549364 108.79358506 126.625 114.6875 C125.8825 116.234375 125.8825 116.234375 125.125 117.8125 C124.29150049 120.76909873 124.29150049 120.76909873 125.125 123.8125 C126.7521853 125.99479279 128.49760998 127.93505097 130.3984375 129.8828125 C133.45028028 133.2936956 134.125 135.17107588 134.125 139.8125 C60.205 140.1425 -13.715 140.4725 -89.875 140.8125 C-90.205 142.4625 -90.535 144.1125 -90.875 145.8125 C-92.6437398 145.94763292 -94.41543055 146.04455586 -96.1875 146.125 C-97.66669922 146.21201172 -97.66669922 146.21201172 -99.17578125 146.30078125 C-100.06652344 146.13964844 -100.95726562 145.97851562 -101.875 145.8125 C-102.35356445 144.58176758 -102.35356445 144.58176758 -102.84179688 143.32617188 C-104.58470713 140.63660316 -104.58470713 140.63660316 -107.0735321 140.32865906 C-110.09252894 140.13462321 -113.080161 140.09443424 -116.10546875 140.10546875 C-117.76380486 140.08278679 -117.76380486 140.08278679 -119.4556427 140.05964661 C-122.99146673 140.01661227 -126.52643966 140.00791602 -130.0625 140 C-132.45770517 139.97686808 -134.85288992 139.95150549 -137.24804688 139.92382812 C-143.12370584 139.8608204 -148.99903009 139.82601105 -154.875 139.8125 C-153.9705785 132.22032269 -153.9705785 132.22032269 -150.375 128.75 C-148.20335763 126.40820834 -146.91852738 124.91788207 -145.6875 121.9375 C-145.92571996 117.9671673 -147.37307067 115.02125213 -148.93359375 111.39453125 C-150.9184846 105.95049451 -150.65984275 100.99159924 -148.375 95.6875 C-145.42185107 90.42227718 -140.70522673 86.01676553 -135.1484375 83.65234375 C-132.42514245 81.88241045 -132.42514245 81.88241045 -132.37890625 77.8984375 C-132.38391985 76.32801154 -132.40419189 74.75758069 -132.4375 73.1875 C-132.28594909 64.40538615 -130.67081786 59.5126407 -124.30859375 53.27734375 C-120.10919386 49.80651444 -115.49202916 48.7035655 -110.23046875 47.5859375 C-107.53326811 46.96883244 -107.53326811 46.96883244 -105.875 43.8125 C-105.44411334 42.09173329 -105.05232383 40.36097378 -104.6875 38.625 C-102.84080981 31.58332782 -99.31478159 27.01839215 -93.20703125 23.1015625 C-88.94508789 21.45274502 -85.38545896 21.61937738 -80.875 21.6875 C-74.7957835 21.69838822 -74.7957835 21.69838822 -69.61328125 18.96484375 C-68.14856958 16.65013311 -68.14856958 16.65013311 -67.015625 14.171875 C-64.59738242 9.16975678 -60.42460147 6.42127201 -55.375 4.4375 C-49.175124 3.33037929 -44.68720503 3.55430457 -38.96484375 6.05859375 C-36.1749407 7.06504476 -33.85226599 7.65340945 -30.875 7.8125 C-28.18002196 6.28241297 -28.18002196 6.28241297 -25.8125 4 C-18.26938972 -2.73279196 -9.31697524 -4.95451192 0 0 Z " fill="#FDF8CE" transform="translate(326.875,43.1875)"/>
<path d="M0 0 C3.81316472 2.32105679 5.5187752 1.46275629 9.875 0.75 C19.12406709 0.04404988 27.76713562 -0.29691783 35.875 4.75 C37.3909375 5.554375 37.3909375 5.554375 38.9375 6.375 C39.576875 6.82875 40.21625 7.2825 40.875 7.75 C40.875 8.41 40.875 9.07 40.875 9.75 C41.4525 9.976875 42.03 10.20375 42.625 10.4375 C44.875 11.75 44.875 11.75 46.6328125 14.265625 C49.44218078 17.37844421 50.88794459 17.46074586 55 17.8125 C65.4531501 19.08984682 73.43302027 22.31452533 80.30859375 30.4453125 C83.72171255 34.96237774 86.875 39.96086066 86.875 45.75 C87.865 45.87375 87.865 45.87375 88.875 46 C94.01508712 47.28502178 98.48609606 49.82406404 102.875 52.75 C102.875 53.41 102.875 54.07 102.875 54.75 C103.865 55.08 104.855 55.41 105.875 55.75 C111.59473355 62.34969255 114.9692333 70.6536071 115 79.4375 C115.21313889 82.69970919 115.78857495 83.65533659 118.046875 86.12890625 C119.80188333 87.66834275 121.59532229 89.16541405 123.4296875 90.609375 C129.23624427 95.69243108 131.56269161 102.87321183 132.16796875 110.38671875 C132.31742927 117.53947207 132.03773317 123.29275312 128.875 129.75 C129.865 130.08 130.855 130.41 131.875 130.75 C133.2265625 132.5 133.2265625 132.5 134.5 134.75 C134.92539062 135.471875 135.35078125 136.19375 135.7890625 136.9375 C136.875 139.75 136.875 139.75 137.875 148.75 C145.135 148.75 152.395 148.75 159.875 148.75 C164.99564337 158.99128675 160.46565936 177.0901415 158.5625 187.6875 C158.34964355 188.87714355 158.13678711 190.06678711 157.91748047 191.29248047 C156.78923975 197.18067048 155.42477366 202.33436504 152.875 207.75 C152.3773589 209.48923051 151.91584267 211.23941932 151.5 213 C149.9273267 218.94389856 147.57722963 224.24080316 144.875 229.75 C144.57932129 230.36568848 144.28364258 230.98137695 143.97900391 231.61572266 C138.65410918 242.70180119 132.83259757 253.12840315 125.2890625 262.890625 C123.83465524 264.80305002 122.48126557 266.7671556 121.125 268.75 C120.3825 269.74 119.64 270.73 118.875 271.75 C118.215 271.75 117.555 271.75 116.875 271.75 C116.875 272.41 116.875 273.07 116.875 273.75 C116.215 273.75 115.555 273.75 114.875 273.75 C114.60558594 274.33394531 114.33617187 274.91789062 114.05859375 275.51953125 C109.79833329 283.54794288 100.47733772 292.88255409 91.875 295.75 C91.875 296.41 91.875 297.07 91.875 297.75 C89.94140625 299.22265625 89.94140625 299.22265625 87.4375 300.8125 C84.5031857 302.58678892 84.5031857 302.58678892 81.875 304.75 C81.24950779 308.05079021 80.68140229 311.35386735 80.15625 314.671875 C79.42234004 318.91918373 78.56486366 322.24628016 75.875 325.75 C75.215 325.75 74.555 325.75 73.875 325.75 C73.545 326.74 73.215 327.73 72.875 328.75 C67.60194708 332.45538853 63.4236763 332.87500206 57.06988525 332.89717102 C56.38607528 332.90084771 55.70226532 332.9045244 54.99773383 332.9083125 C52.70714043 332.91932264 50.41659243 332.92318862 48.12597656 332.92700195 C46.48321388 332.93326859 44.8404526 332.93991557 43.19769287 332.94691467 C37.80368025 332.96793246 32.40966741 332.97831445 27.015625 332.98828125 C25.15722387 332.99232956 23.29882289 332.99644651 21.44042206 333.00063133 C12.70950095 333.01967744 3.97858827 333.03391008 -4.75234962 333.0422433 C-14.82461893 333.05201602 -24.8966685 333.07833889 -34.96886039 333.11874419 C-42.75838778 333.14891832 -50.54785222 333.16371338 -58.33743691 333.16702431 C-62.98789236 333.16937317 -67.63811289 333.17831241 -72.28850555 333.20348549 C-76.6650746 333.22679416 -81.0412545 333.23098827 -85.41786957 333.22072411 C-87.02063289 333.22022933 -88.62341556 333.22653274 -90.22612 333.24028015 C-100.33353912 333.32210003 -107.48833222 332.8483445 -115.4375 326.0625 C-118.57067569 322.25143406 -118.71012214 318.10300579 -119.25 313.375 C-119.84705198 308.60928216 -120.3498261 305.61615675 -123.62109375 301.9609375 C-126.70917249 299.73437372 -129.89052087 297.7558481 -133.125 295.75 C-135.85004141 293.43884257 -138.45191866 291.03183436 -141.06640625 288.59765625 C-143.18861493 286.60434369 -143.18861493 286.60434369 -146.125 284.75 C-146.125 284.09 -146.125 283.43 -146.125 282.75 C-146.785 282.75 -147.445 282.75 -148.125 282.75 C-148.125 282.09 -148.125 281.43 -148.125 280.75 C-148.96224609 280.43095703 -148.96224609 280.43095703 -149.81640625 280.10546875 C-152.8937781 278.29861929 -154.86070266 275.80741293 -157.0625 273.0625 C-157.50126465 272.52447754 -157.9400293 271.98645508 -158.39208984 271.43212891 C-167.125 260.64975747 -167.125 260.64975747 -167.125 257.75 C-167.785 257.75 -168.445 257.75 -169.125 257.75 C-169.9603125 256.265 -169.9603125 256.265 -170.8125 254.75 C-172.33403091 252.0819634 -173.9169903 249.46823998 -175.5625 246.875 C-180.24116208 239.41210344 -183.99187183 231.98190709 -187.125 223.75 C-187.51558594 222.80769531 -187.90617188 221.86539063 -188.30859375 220.89453125 C-196.40731498 200.9883286 -203.6608282 174.45497015 -201.125 152.75 C-200.135 150.77 -200.135 150.77 -199.125 148.75 C-191.865 148.75 -184.605 148.75 -177.125 148.75 C-176.795 145.78 -176.465 142.81 -176.125 139.75 C-174.96875 137.078125 -174.96875 137.078125 -173.625 135 C-170.19173135 129.61056665 -169.89771845 125.96738643 -171.25 119.75 C-172.73419436 110.76350813 -171.25400035 102.66057591 -166.4375 94.875 C-164.22631689 91.79375236 -161.93872387 89.82687777 -158.875 87.625 C-154.79908622 84.32875912 -154.44241714 81.4344529 -153.875 76.3125 C-153.75898438 75.00152344 -153.64296875 73.69054687 -153.5234375 72.33984375 C-152.58114607 63.84998277 -147.45687662 57.28656845 -141.125 51.75 C-131.40426078 45.75 -131.40426078 45.75 -126.125 45.75 C-126.021875 45.069375 -125.91875 44.38875 -125.8125 43.6875 C-123.47200843 33.68721786 -118.01079164 27.41299478 -109.40625 22.03515625 C-104.03912023 19.01155061 -99.86734647 17.72188023 -93.6875 17.6875 C-90.0123393 17.45970078 -88.5497836 17.1303295 -85.7734375 14.64453125 C-84.29115577 12.87155469 -82.83154517 11.07939202 -81.39453125 9.26953125 C-77.26338702 4.68332122 -71.87710223 2.66736741 -66.125 0.75 C-63.36441343 0.65263491 -60.63489004 0.61084672 -57.875 0.625 C-56.76705078 0.61919922 -56.76705078 0.61919922 -55.63671875 0.61328125 C-52.0530947 0.61960157 -48.78364339 0.80404243 -45.2265625 1.3671875 C-42.05633158 2.11919693 -42.05633158 2.11919693 -39.75 0 C-38.88375 -0.7425 -38.0175 -1.485 -37.125 -2.25 C-25.04516486 -7.36069948 -11.03514034 -7.94530105 0 0 Z M-36.75 14.0625 C-39.74748541 16.74196777 -39.74748541 16.74196777 -43.0625 16.8125 C-44.72895396 16.2343425 -46.39212596 15.64380648 -48.03125 14.9921875 C-55.05673945 12.20901283 -60.96266577 11.78627549 -68.125 14.75 C-72.73011947 18.08851615 -76.48388821 21.26826091 -78.84765625 26.48046875 C-81.125 29.75 -81.125 29.75 -82.99682617 30.32397461 C-85.31107934 30.48632821 -87.55691072 30.46189303 -89.875 30.375 C-96.8063863 30.44591108 -102.01985624 30.54093474 -107.125 35.75 C-107.96224609 36.60271484 -107.96224609 36.60271484 -108.81640625 37.47265625 C-112.71588429 42.04867024 -114.1903515 46.58620664 -115.38671875 52.4296875 C-116.125 54.75 -116.125 54.75 -119.125 56.75 C-120.51192678 57.04544002 -121.90987212 57.29146771 -123.3125 57.5 C-129.97358621 58.90803448 -134.85365317 62.71783693 -139.0625 68 C-141.70731608 72.42812855 -141.34100304 76.87894662 -141.375 81.875 C-141.46891781 89.9462645 -141.46891781 89.9462645 -143.96484375 93.00390625 C-146.3125 94.4375 -146.3125 94.4375 -148.765625 95.6015625 C-153.29173139 97.80466727 -156.027162 101.85373437 -158.5 106.125 C-159.96361663 112.27218984 -159.58990176 117.13059768 -157.0625 122.9375 C-155.81660998 125.84607058 -155.12891034 127.68482768 -154.9375 130.875 C-156.44710167 134.5298251 -158.70406718 136.79864886 -161.53125 139.52734375 C-163.65792701 142.49322419 -163.69883404 145.17254465 -164.125 148.75 C-163.19205612 148.76213028 -163.19205612 148.76213028 -162.24026489 148.77450562 C-155.78414984 148.86036507 -149.32834846 148.95985976 -142.87255859 149.06738281 C-140.46115372 149.10573647 -138.04969038 149.1405779 -135.63818359 149.171875 C-132.17784687 149.21738703 -128.71791492 149.27540404 -125.2578125 149.3359375 C-123.63276291 149.35326431 -123.63276291 149.35326431 -121.97488403 149.37094116 C-120.9739975 149.39081085 -119.97311096 149.41068054 -118.94189453 149.43115234 C-118.05809113 149.44447601 -117.17428772 149.45779968 -116.26370239 149.4715271 C-114.125 149.75 -114.125 149.75 -112.125 151.75 C-111.75 154.1875 -111.75 154.1875 -112.125 156.75 C-114.48296861 159.17543173 -115.91942376 159.72419483 -119.30145264 160.14872742 C-120.55387756 160.15983047 -121.80630249 160.17093353 -123.09667969 160.18237305 C-124.13631111 160.19766052 -124.13631111 160.19766052 -125.19694519 160.21325684 C-127.48033751 160.24337191 -129.76331023 160.2526501 -132.046875 160.26171875 C-133.63300977 160.27856661 -135.2191312 160.29671701 -136.80523682 160.31611633 C-140.97430248 160.36361111 -145.14331403 160.39342369 -149.31256104 160.41955566 C-153.56915979 160.44936392 -157.82557216 160.49589331 -162.08203125 160.54101562 C-170.42959591 160.62704276 -178.77717755 160.69439049 -187.125 160.75 C-187.13613406 162.82046296 -187.14405661 164.89094334 -187.15063477 166.96142578 C-187.15539322 168.11442169 -187.16015167 169.2674176 -187.16505432 170.45535278 C-187.11482605 174.58685267 -186.73167539 178.55294725 -186.0625 182.625 C-185.93456055 183.40963623 -185.80662109 184.19427246 -185.67480469 185.00268555 C-182.8825123 200.7208369 -177.9428812 215.82724653 -170.125 229.75 C-169.64417969 230.67296875 -169.16335937 231.5959375 -168.66796875 232.546875 C-162.20634686 244.864898 -154.66236343 255.88765364 -145.4375 266.265625 C-144.21196591 267.6516457 -143.011205 269.05946169 -141.8125 270.46875 C-133.21145178 280.42139151 -122.71276975 287.89446247 -112.1171875 295.5625 C-109.125 297.75 -109.125 297.75 -108.125 298.75 C-107.95505187 302.05832367 -107.82788348 305.35957107 -107.78320312 308.671875 C-107.58747492 313.62425365 -106.72643634 316.31256349 -103.125 319.75 C-99.77644407 320.86618531 -97.25994857 320.8814631 -93.73039246 320.89044189 C-92.75284507 320.89489858 -92.75284507 320.89489858 -91.75554925 320.8994453 C-89.56773277 320.9081298 -87.37997103 320.90964033 -85.19213867 320.91113281 C-83.62509545 320.91576117 -82.05805335 320.92078585 -80.49101257 320.92617798 C-76.23059308 320.9393024 -71.97018935 320.94574703 -67.7097528 320.95018864 C-65.04812581 320.95311932 -62.38650313 320.95722413 -59.72487831 320.96169281 C-51.39761093 320.97536791 -43.07035339 320.98503448 -34.74307555 320.9888947 C-25.12982754 320.9933755 -15.51672172 321.01092433 -5.90351695 321.0398953 C1.5267274 321.06151041 8.95693175 321.07159889 16.38720721 321.07293582 C20.82518299 321.07398398 25.26302511 321.07989409 29.70096779 321.09775543 C33.87638397 321.11423316 38.05156599 321.11639312 42.2270031 321.10761642 C43.75803377 321.10684589 45.28907702 321.11119103 46.82007599 321.12107468 C48.91347606 321.13379458 51.00604681 321.12791803 53.09944153 321.11749268 C54.85514324 321.11969252 54.85514324 321.11969252 56.64631367 321.1219368 C60.30791305 320.70012947 62.72232384 319.62744229 65.875 317.75 C68.50350973 314.38581408 68.27483785 310.30166209 68.4375 306.1875 C68.75665188 299.10504435 68.75665188 299.10504435 69.875 295.75 C71.52822719 295.05067027 73.19802667 294.39029891 74.875 293.75 C82.77561552 288.46429825 89.98627322 282.28297093 96.875 275.75 C97.77089844 274.90695312 98.66679687 274.06390625 99.58984375 273.1953125 C126.49944163 247.15376617 143.1051315 210.71648087 147.875 173.75 C147.875 169.46 147.875 165.17 147.875 160.75 C66.695 160.42 -14.485 160.09 -98.125 159.75 C-99.125 151.75 -99.125 151.75 -99.125 149.75 C-25.205 149.42 48.715 149.09 124.875 148.75 C123.81944521 142.41667128 122.40739317 139.00101615 117.625 134.75 C115.875 132.75 115.875 132.75 115.4375 129.9375 C115.875 126.75 115.875 126.75 117.375 123.625 C119.98633867 117.99000604 119.90210223 111.27812517 118.18359375 105.375 C115.49651078 99.4386828 111.62004487 95.81751745 105.5 93.4375 C104.63375 93.210625 103.7675 92.98375 102.875 92.75 C102.25876319 87.97416472 101.86019922 83.61544862 102.1875 78.8125 C102.23517974 72.69042194 99.72651601 68.38501498 95.875 63.75 C91.03876556 59.34576036 85.35699832 57.80901473 79.09765625 56.328125 C76.875 55.75 76.875 55.75 75.875 54.75 C75.6029379 53.23295806 75.35760919 51.71109017 75.125 50.1875 C73.64172696 42.76053999 70.84758141 37.76778363 64.625 33.3125 C59.73587406 30.52606582 55.64521573 30.49177347 50.1875 30.5 C42.72922583 30.48547089 42.72922583 30.48547089 39.40234375 27.62109375 C37.70834522 25.06334212 36.28052195 22.47401468 34.875 19.75 C30.06214108 14.93714108 24.13511925 12.65050596 17.375 12.3125 C13.20980183 12.43458339 10.31536809 13.70977348 6.796875 15.875 C4.27237341 17.02436658 2.62302261 17.11326893 -0.125 16.75 C-2.15234375 15.32421875 -2.15234375 15.32421875 -4.0625 13.4375 C-9.94533182 8.03579197 -14.35802493 6.15224874 -22.3828125 6.40234375 C-28.40776456 7.16619095 -32.40445969 9.99211399 -36.75 14.0625 Z " fill="#100E0D" transform="translate(336.125,34.25)"/>
<path d="M0 0 C7.92 0 15.84 0 24 0 C25.76691092 36.66340151 7.8334828 77.16812511 -16.46679688 104.09155273 C-18.47487822 106.26367002 -20.51607227 108.40117247 -22.57568359 110.52441406 C-23.88672047 111.88264288 -25.17313558 113.26452452 -26.45703125 114.6484375 C-31.20907157 119.6447784 -36.27953392 123.91178636 -41.8125 128 C-42.44712158 128.46937988 -43.08174316 128.93875977 -43.7355957 129.42236328 C-46.43479097 131.36315712 -48.77160116 132.91098935 -51.88671875 134.125 C-52.93279297 134.558125 -52.93279297 134.558125 -54 135 C-55.55278884 139.65836652 -55.3403878 144.45140069 -55.5234375 149.3359375 C-56.01710555 153.13151648 -56.5771542 155.06483439 -59 158 C-62.94517528 160.00874115 -66.24952547 160.25298173 -70.6418457 160.26069641 C-71.29595838 160.26452196 -71.95007105 160.26834751 -72.62400532 160.27228898 C-74.80801322 160.28257845 -76.99175623 160.27863467 -79.17578125 160.2746582 C-80.74474327 160.27900687 -82.31370317 160.28419054 -83.88265991 160.29014587 C-88.13878612 160.30352904 -92.3948235 160.30411541 -96.65096664 160.30158257 C-100.20477291 160.30051261 -103.75856121 160.30539678 -107.31236362 160.310188 C-115.69556078 160.32128037 -124.07871312 160.32172181 -132.46191406 160.31567383 C-141.11034918 160.30963049 -149.75862176 160.32195478 -158.40702915 160.3432439 C-165.83390878 160.36085384 -173.26073664 160.3668623 -180.68763638 160.36360615 C-185.12274534 160.36179251 -189.5577383 160.36443774 -193.99282837 160.37832069 C-198.16253733 160.3908849 -202.33199254 160.38896838 -206.50169754 160.37590981 C-208.03153188 160.37354156 -209.56138401 160.3762876 -211.09119797 160.38453293 C-213.18047849 160.39498143 -215.26890452 160.38691614 -217.3581543 160.3742218 C-218.52694626 160.37438954 -219.69573822 160.37455729 -220.89994812 160.37473011 C-224.37428341 159.95475712 -226.21941498 159.09386608 -229 157 C-231.42130331 153.36804504 -231.21022785 151.61650652 -231.125 147.3125 C-231.10695312 146.13300781 -231.08890625 144.95351563 -231.0703125 143.73828125 C-231.04710937 142.83464844 -231.02390625 141.93101562 -231 141 C-227.7 141 -224.4 141 -221 141 C-220.566875 139.824375 -220.566875 139.824375 -220.125 138.625 C-219 136 -219 136 -217 134 C-214.48494148 133.74552441 -214.48494148 133.74552441 -211.24368286 133.73930359 C-209.40553009 133.72867638 -209.40553009 133.72867638 -207.53024292 133.71783447 C-206.16485559 133.72012851 -204.79946861 133.72263824 -203.43408203 133.7253418 C-202.00186903 133.72099649 -200.56965836 133.71581395 -199.13745117 133.70985413 C-195.24070502 133.69643182 -191.34405567 133.69588913 -187.4472909 133.69841743 C-184.19675024 133.69948517 -180.94622933 133.69460871 -177.6956929 133.689812 C-170.02741965 133.67870519 -162.35919538 133.6782857 -154.69091797 133.68432617 C-146.77585566 133.69036516 -138.86097115 133.67805962 -130.94593918 133.6567561 C-124.15522283 133.63914965 -117.36456311 133.63313731 -110.57382476 133.63639385 C-106.51596553 133.63820872 -102.45823305 133.63555048 -98.40039444 133.62167931 C-94.58365398 133.6091214 -90.76719082 133.61102553 -86.95045471 133.62409019 C-85.54920738 133.62646017 -84.14794066 133.6237062 -82.74671555 133.61546707 C-80.83459721 133.60503439 -78.92240018 133.61488351 -77.01028442 133.6257782 C-75.40473033 133.62552659 -75.40473033 133.62552659 -73.7667408 133.62526989 C-70.62059046 134.0513876 -69.20891224 134.73702767 -67 137 C-67 137.99 -67 138.98 -67 140 C-66.01 140 -65.02 140 -64 140 C-63.75121094 139.41347656 -63.50242187 138.82695312 -63.24609375 138.22265625 C-61.82588804 135.68943667 -60.28816254 134.29014647 -58.0625 132.4375 C-55.11693957 129.96809867 -55.11693957 129.96809867 -52.37109375 127.28515625 C-51 126 -51 126 -49 126 C-48.7834375 125.4740625 -48.566875 124.948125 -48.34375 124.40625 C-46.12588603 120.43472615 -42.97628306 117.18227604 -39.98828125 113.77734375 C-37.57795985 110.99222706 -35.4110758 108.42689837 -34 105 C-33.34 105 -32.68 105 -32 105 C-31.92007813 104.48050781 -31.84015625 103.96101563 -31.7578125 103.42578125 C-30.69078675 100.01019883 -28.76829082 97.1924407 -26.875 94.1875 C-9.45264776 65.53449519 -2.69886754 33.06112736 0 0 Z " fill="#F07C4B" transform="translate(460,195)"/>
<path d="M0 0 C5.65191928 0.70648991 9.80640155 3.23183907 14 7 C17.00459945 11.30848223 19.03423459 15.75969205 19.625 21 C19.74875 21.99 19.8725 22.98 20 24 C22.87164601 25.91443068 23.89510906 26.26377986 27.125 26.75 C34.18690483 28.25669305 39.97426564 31.85205192 44.0625 37.875 C46.87706371 43.48491539 46.35062153 49.41331208 46.078125 55.5234375 C45.80488206 58.97708168 45.80488206 58.97708168 47 62 C47.86625 62.268125 48.7325 62.53625 49.625 62.8125 C55.24912316 64.79135815 58.81201043 68.0838878 61.9375 73.125 C64.11708903 79.21701903 64.25049364 86.98108506 61.5 92.875 C60.7575 94.421875 60.7575 94.421875 60 96 C59.16650049 98.95659873 59.16650049 98.95659873 60 102 C61.6271853 104.18229279 63.37260998 106.12255097 65.2734375 108.0703125 C68.32528028 111.4811956 69 113.35857588 69 118 C-3.93 118 -76.86 118 -152 118 C-152 117.67 -152 117.34 -152 117 C-79.4 117 -6.8 117 68 117 C66.98363023 115.76078789 66.98363023 115.76078789 64.86694336 115.88647461 C63.49227905 115.89432983 63.49227905 115.89432983 62.08984375 115.90234375 C60.60581055 115.90717773 60.60581055 115.90717773 59.09179688 115.91210938 C57.53041992 115.92467773 57.53041992 115.92467773 55.9375 115.9375 C54.37032227 115.94426758 54.37032227 115.94426758 52.77148438 115.95117188 C50.18096546 115.96300073 47.59047578 115.98093681 45 116 C44.34 112.7 43.68 109.4 43 106 C42.01 105.67 41.02 105.34 40 105 C38.62109562 102.24219123 38.93996944 100.07801074 39.0078125 96.99609375 C39.03294922 95.17174805 39.03294922 95.17174805 39.05859375 93.31054688 C39.10239842 90.75570401 39.15430431 88.20098548 39.21484375 85.64648438 C39.33482501 75.2790126 38.38972448 67.56996166 31 60 C29.94619141 59.40058594 29.94619141 59.40058594 28.87109375 58.7890625 C27 57 27 57 26.53125 53.671875 C26.51578125 51.73054688 26.51578125 51.73054688 26.5 49.75 C26.33342723 43.70723029 25.49224123 39.95672949 22 35 C22 34.01 22 33.02 22 32 C21.34 32 20.68 32 20 32 C20 30.68 20 29.36 20 28 C19.38125 27.690625 18.7625 27.38125 18.125 27.0625 C16.75 26.375 15.375 25.6875 14 25 C14 24.34 14 23.68 14 23 C13.34 23 12.68 23 12 23 C12 22.34 12 21.68 12 21 C9.69 20.67 7.38 20.34 5 20 C4.89042969 19.40832031 4.78085937 18.81664063 4.66796875 18.20703125 C3.72599329 13.51247061 2.59978134 10.06922296 0 6 C-0.75 3.25 -0.75 3.25 -1 1 C-0.67 0.67 -0.34 0.34 0 0 Z " fill="#F1E694" transform="translate(392,65)"/>
<path d="M0 0 C1.22680984 -0.00845947 2.45361969 -0.01691895 3.71760559 -0.02563477 C5.07936228 -0.01980166 6.44111767 -0.01365714 7.8028717 -0.00723267 C9.23523357 -0.01129723 10.6675923 -0.01663847 12.09994507 -0.02316284 C15.9925518 -0.03685731 19.88492041 -0.03152879 23.77753139 -0.02202559 C27.84893744 -0.0144385 31.92032289 -0.02147208 35.99172974 -0.02618408 C42.83050706 -0.03164504 49.66918725 -0.02444178 56.50794983 -0.01016235 C64.41565839 0.00615834 72.32313484 0.00088132 80.23083776 -0.01564157 C87.0173367 -0.02925456 93.80376574 -0.03117683 100.59027392 -0.02332556 C104.64475436 -0.01864716 108.69912572 -0.0180286 112.75359917 -0.02793503 C116.56626563 -0.03659951 120.37863288 -0.0305925 124.19126701 -0.01325226 C125.59089664 -0.00928433 126.99055143 -0.01042673 128.39017105 -0.01704025 C130.30006259 -0.025233 132.21000913 -0.01313927 134.11987305 0 C135.18894362 0.00113108 136.2580142 0.00226215 137.35948086 0.00342751 C140.50761926 0.43342699 141.89600567 1.13793067 144.12342834 3.38095093 C144.57488953 6.47668474 144.79098261 8.41894898 142.96895695 11.04464149 C140.33258014 12.9535879 138.39524666 12.75852981 135.1574707 12.76190186 C133.28767799 12.77459106 133.28767799 12.77459106 131.38011169 12.78753662 C129.99629081 12.78170357 128.61247122 12.77555905 127.22865295 12.76913452 C125.77334194 12.77319896 124.318034 12.77854011 122.86273193 12.7850647 C118.90827921 12.79875828 114.95406089 12.79343165 110.99960399 12.78392744 C106.8658692 12.77634282 102.73215475 12.78337298 98.59841919 12.78808594 C91.65709318 12.79354638 84.71586288 12.78634369 77.77455139 12.77206421 C69.74183614 12.75573068 61.70934923 12.76103007 53.6766395 12.77754343 C46.78656363 12.79114244 39.89655664 12.79308594 33.00647169 12.78522742 C28.88833945 12.78054297 24.77031466 12.77994724 20.65218925 12.78983688 C16.78207607 12.79848154 12.91225835 12.79253089 9.0421772 12.77515411 C7.61913164 12.77117609 6.19606135 12.77234571 4.77302551 12.77894211 C2.83615995 12.78709489 0.89924026 12.77507586 -1.03759766 12.76190186 C-2.12326051 12.76077078 -3.20892336 12.7596397 -4.32748508 12.75847435 C-5.16868365 12.63389162 -6.00988222 12.50930889 -6.87657166 12.38095093 C-9.18939753 8.91171212 -9.30135751 7.45889518 -8.87657166 3.38095093 C-6.4512035 -0.12096081 -4.07581508 0.00431373 0 0 Z " fill="#0C0605" transform="translate(248.87657165527344,328.6190490722656)"/>
<path d="M0 0 C0.66 0 1.32 0 2 0 C1.88602456 2.43847451 1.75929026 4.87513174 1.625 7.3125 C1.5940625 8.00279297 1.563125 8.69308594 1.53125 9.40429688 C1.31875081 13.06990789 1.08066139 14.87900792 -1 18 C-3.68240547 18.36914349 -3.68240547 18.36914349 -7.16287231 18.36076355 C-8.47822968 18.36488754 -9.79358704 18.36901154 -11.14880371 18.3732605 C-12.61499226 18.36264228 -14.08117877 18.35173784 -15.54736328 18.34057617 C-17.08458439 18.33973035 -18.6218067 18.34020416 -20.1590271 18.34190369 C-24.34069892 18.34276683 -28.52211425 18.32508963 -32.70372629 18.30418181 C-37.07060869 18.28546807 -41.43749653 18.28366877 -45.80441284 18.28010559 C-54.07757311 18.27076949 -62.35061489 18.24613462 -70.62372291 18.21605712 C-80.04074392 18.18256171 -89.45777049 18.16603935 -98.87483621 18.15097082 C-118.24995806 18.11958637 -137.62496951 18.06679556 -157 18 C-157.36587637 10.56051391 -157.36587637 10.56051391 -155.86547852 8.26194 C-153.19028849 6.45225456 -151.1809945 6.62354414 -147.96484375 6.62145996 C-146.70293213 6.61325729 -145.44102051 6.60505463 -144.14086914 6.59660339 C-142.739745 6.60256206 -141.33862195 6.60878116 -139.9375 6.61523438 C-138.46410705 6.61113003 -136.99071734 6.60566996 -135.51733398 6.59895325 C-132.34320974 6.58721832 -129.16925943 6.58474736 -125.99511719 6.58930969 C-120.978425 6.59610797 -115.96196256 6.58027153 -110.9453125 6.56091309 C-99.39076529 6.51980123 -87.83622418 6.50850629 -76.28161621 6.49738312 C-65.69275075 6.48688396 -55.10399525 6.47014789 -44.51519775 6.42928743 C-39.5258156 6.41089608 -34.53669501 6.40705122 -29.54728699 6.41422272 C-26.44635539 6.41574148 -23.3455554 6.40498041 -20.24465942 6.39084435 C-18.80429581 6.386832 -17.36390739 6.38798317 -15.92355347 6.39461708 C-13.96076483 6.40296438 -11.99792117 6.39129839 -10.03515625 6.37854004 C-8.9356665 6.37782753 -7.83617676 6.37711502 -6.70336914 6.37638092 C-3.99431896 6.21792897 -3.99431896 6.21792897 -2.18530273 4.66384125 C-0.80186845 2.89374594 -0.80186845 2.89374594 0 0 Z " fill="#F37B49" transform="translate(393,335)"/>
<path d="M0 0 C1 2 2 4 3 6 C51.51 6.33 100.02 6.66 150 7 C150 7.33 150 7.66 150 8 C149.22878374 8.00331015 148.45756748 8.00662029 147.66298103 8.01003075 C128.91889165 8.09116409 110.1748853 8.18322451 91.43091011 8.28752708 C82.36655499 8.33770154 73.30220913 8.38414379 64.23779297 8.421875 C56.33951905 8.45476146 48.44131603 8.49457393 40.54312027 8.54279006 C36.35903266 8.56808848 32.17499229 8.58985975 27.99084854 8.60334396 C24.05595948 8.61613416 20.12123214 8.63815521 16.18643188 8.66738319 C14.73921324 8.67648289 13.29196854 8.68215475 11.84472275 8.68421364 C9.87480838 8.6875192 7.90492954 8.70414173 5.93508911 8.7215271 C4.83078112 8.72705786 3.72647312 8.73258862 2.58870125 8.73828697 C-0.16237726 8.74077995 -0.16237726 8.74077995 -2 11 C-2.33 13.64 -2.66 16.28 -3 19 C50.46 19 103.92 19 159 19 C156.22824148 21.77175852 154.60319732 21.25389015 150.71891785 21.26069641 C150.06736845 21.26452196 149.41581905 21.26834751 148.74452573 21.27228898 C146.55120114 21.28264571 144.35813704 21.27862184 142.16479492 21.2746582 C140.5962754 21.2790033 139.027758 21.28418577 137.45924377 21.29014587 C133.19054379 21.30357129 128.92193216 21.30411045 124.65321517 21.30158257 C121.09210344 21.30051491 117.53100974 21.30539116 113.96990186 21.310188 C105.56805571 21.32129618 97.16625425 21.32171373 88.7644043 21.31567383 C80.09387838 21.30963659 71.42351485 21.32193567 62.75301665 21.3432439 C55.31345877 21.36085549 47.87395259 21.36686182 40.43437463 21.36360615 C35.9891607 21.36179189 31.5440625 21.36444337 27.09886742 21.37832069 C22.91688684 21.39088667 18.73515925 21.38896667 14.5531826 21.37590981 C13.01851313 21.37354149 11.48382594 21.37628784 9.94917679 21.38453293 C7.85316808 21.39498142 5.75801114 21.38691594 3.66203308 21.3742218 C2.48934466 21.37438954 1.31665625 21.37455729 0.10843182 21.37473011 C-3.37099409 20.95527563 -5.21612993 20.09753739 -8 18 C-10.42130331 14.36804504 -10.21022785 12.61650652 -10.125 8.3125 C-10.09792969 6.54326172 -10.09792969 6.54326172 -10.0703125 4.73828125 C-10.04710937 3.83464844 -10.02390625 2.93101562 -10 2 C-6.7 2 -3.4 2 0 2 C0 1.34 0 0.68 0 0 Z " fill="#B96845" transform="translate(239,334)"/>
<path d="M0 0 C0.495 0.99 0.495 0.99 1 2 C1.66 2 2.32 2 3 2 C-0.14441761 10.17172001 -12.49515371 17.86055563 -20 22 C-20.66 22 -21.32 22 -22 22 C-23.55278884 26.65836652 -23.3403878 31.45140069 -23.5234375 36.3359375 C-24.0104192 40.0801083 -24.6752778 42.05828992 -27 45 C-30.47823115 46.15941038 -32.45895578 45.70820884 -36 45 C-35.67 44.01 -35.34 43.02 -35 42 C-34.87365445 39.89704854 -34.7724781 37.79252893 -34.6875 35.6875 C-34.09960989 27.88066518 -31.68757805 24.41780827 -25.9375 19.3125 C-25.26589844 18.75175781 -24.59429687 18.19101562 -23.90234375 17.61328125 C-21.9870337 16.04767894 -21.9870337 16.04767894 -20.37890625 14.29296875 C-19 13 -19 13 -17 13 C-16.6596875 12.0409375 -16.6596875 12.0409375 -16.3125 11.0625 C-15 9 -15 9 -12.375 8.25 C-11.199375 8.12625 -11.199375 8.12625 -10 8 C-10 8.99 -10 9.98 -10 11 C-9.01 11 -8.02 11 -7 11 C-7 10.34 -7 9.68 -7 9 C-7.66 8.67 -8.32 8.34 -9 8 C-8.01 8 -7.02 8 -6 8 C-6 7.34 -6 6.68 -6 6 C-5.38125 5.938125 -4.7625 5.87625 -4.125 5.8125 C-1.72238859 5.171081 -1.72238859 5.171081 -0.75 2.4375 C-0.5025 1.633125 -0.255 0.82875 0 0 Z " fill="#EF804F" transform="translate(428,308)"/>
<path d="M0 0 C5.64880325 0.70610041 9.81219403 3.22870276 14 7 C17.33163103 11.81663055 19.32678198 16.08630037 19 22 C17.1875 23.0625 17.1875 23.0625 15 24 C14.01 23.67 13.02 23.34 12 23 C12 22.34 12 21.68 12 21 C9.69 20.67 7.38 20.34 5 20 C4.89042969 19.40832031 4.78085937 18.81664063 4.66796875 18.20703125 C3.72599329 13.51247061 2.59978134 10.06922296 0 6 C-0.75 3.25 -0.75 3.25 -1 1 C-0.67 0.67 -0.34 0.34 0 0 Z " fill="#F9EE98" transform="translate(392,65)"/>
<path d="M0 0 C110.385 0.495 110.385 0.495 223 1 C223 1.33 223 1.66 223 2 C194.21982057 2.20042844 165.43957658 2.38376438 136.65915871 2.54658794 C123.29679318 2.62258605 109.9345106 2.70414816 96.57226562 2.79907227 C84.92971423 2.88168621 73.28715389 2.95382573 61.64446008 3.01323253 C55.47614298 3.04507627 49.3079601 3.08226969 43.13975906 3.13199425 C37.34016821 3.1785821 31.54067012 3.21121928 25.74093437 3.2329216 C23.60671607 3.24341003 21.47251635 3.25909861 19.338377 3.28024101 C16.43562692 3.30823825 13.53339076 3.3179188 10.63052368 3.32279968 C9.77644979 3.33542916 8.9223759 3.34805863 8.04242098 3.36107081 C5.69753456 3.35352612 5.69753456 3.35352612 2 3 C1.34 2.01 0.68 1.02 0 0 Z " fill="#F0AF8B" transform="translate(237,194)"/>
<path d="M0 0 C2.97 0 5.94 0 9 0 C9.08150744 2.06183633 9.1394194 4.12461349 9.1875 6.1875 C9.22230469 7.33605469 9.25710938 8.48460937 9.29296875 9.66796875 C8.97182233 13.32047407 8.24895533 15.13245089 6 18 C2.52176885 19.15941038 0.54104422 18.70820884 -3 18 C-2.505 16.515 -2.505 16.515 -2 15 C-1.6924828 11.64720828 -1.4910292 8.29380703 -1.28125 4.93359375 C-1 2 -1 2 0 0 Z " fill="#E6634F" transform="translate(395,335)"/>
<path d="M0 0 C0.33 0 0.66 0 1 0 C1.36422482 5.46337225 1.36422482 5.46337225 -0.13800526 7.67667103 C-2.79395417 9.5642672 -4.73709368 9.36899976 -7.97941589 9.36076355 C-9.85354408 9.36694954 -9.85354408 9.36694954 -11.76553345 9.3732605 C-13.15252901 9.36264306 -14.53952239 9.35173863 -15.92651367 9.34057617 C-17.38506554 9.33973008 -18.84361868 9.3402047 -20.3021698 9.34190369 C-24.26478724 9.34276576 -28.22713323 9.32510583 -32.18968749 9.30418181 C-36.32967621 9.2854503 -40.46967088 9.28366736 -44.60969543 9.28010559 C-52.45075082 9.27077474 -60.29168099 9.24614693 -68.13268119 9.21605712 C-77.05880269 9.18254543 -85.98493011 9.16603524 -94.91109884 9.15097082 C-113.27413693 9.11959825 -131.6370584 9.06681758 -150 9 C-150.33 8.34 -150.66 7.68 -151 7 C-101.83 7 -52.66 7 -2 7 C-1.34 4.69 -0.68 2.38 0 0 Z " fill="#1E0201" transform="translate(392,332)"/>
<path d="M0 0 C0.66 0 1.32 0 2 0 C0.375 5.75 0.375 5.75 -3 8 C-5.64927959 8.26171303 -5.64927959 8.26171303 -8.90348816 8.2784729 C-10.13607864 8.28963638 -11.36866913 8.30079987 -12.63861084 8.31230164 C-14.00671356 8.31466666 -15.37481662 8.3168423 -16.74291992 8.31884766 C-18.18177353 8.32814454 -19.62062173 8.33831285 -21.0594635 8.34928894 C-24.96824062 8.37663016 -28.87698162 8.3917505 -32.78582931 8.40471697 C-36.86981976 8.42032952 -40.95373624 8.44712569 -45.03767395 8.4727478 C-52.77239353 8.51956887 -60.50712696 8.55629684 -68.241916 8.58942068 C-77.04718411 8.62761858 -85.85237801 8.67703482 -94.65758359 8.72740483 C-112.7716681 8.83077417 -130.88579789 8.92001828 -149 9 C-149.33 8.34 -149.66 7.68 -150 7 C-149.25032046 6.99761165 -148.50064093 6.99522329 -147.72824383 6.99276257 C-129.50117819 6.93367029 -111.27424863 6.85815746 -93.047328 6.76428509 C-84.23298016 6.71928691 -75.41867309 6.67988161 -66.60424805 6.65356445 C-58.92311418 6.63061685 -51.24210889 6.59725534 -43.56107694 6.55129844 C-39.49263006 6.52732232 -35.42431087 6.50862241 -31.35579491 6.50238609 C-27.52835863 6.49635495 -23.70124925 6.47642726 -19.87393379 6.44572449 C-18.46745444 6.43691247 -17.06093242 6.4332282 -15.65442657 6.43499184 C-13.7374097 6.43663701 -11.82040657 6.41822668 -9.90348816 6.39872742 C-8.82959933 6.39411845 -7.75571051 6.38950949 -6.64927959 6.38476086 C-3.98787478 6.21164691 -3.98787478 6.21164691 -2.19353199 4.66257954 C-0.80050936 2.89545421 -0.80050936 2.89545421 0 0 Z " fill="#E68459" transform="translate(393,335)"/>
<path d="M0 0 C3.0625 0.25 3.0625 0.25 6.0625 2.25 C6.5 5.6875 6.5 5.6875 6.0625 9.25 C4.375 11.25 4.375 11.25 2.0625 12.25 C-1.30786311 12.00925978 -2.52548021 11.66201979 -4.9375 9.25 C-5.1875 5.75 -5.1875 5.75 -4.9375 2.25 C-2.9375 0.25 -2.9375 0.25 0 0 Z " fill="#0E0D0A" transform="translate(246.9375,113.75)"/>
<path d="M0 0 C3.0625 0.3125 3.0625 0.3125 4.9375 1.4375 C6.60913625 4.22356042 6.52626624 6.13238862 6.0625 9.3125 C4.375 11.25 4.375 11.25 2.0625 12.3125 C-1.30786311 12.07175978 -2.52548021 11.72451979 -4.9375 9.3125 C-5.1875 5.8125 -5.1875 5.8125 -4.9375 2.3125 C-2.9375 0.3125 -2.9375 0.3125 0 0 Z " fill="#0E0D0A" transform="translate(269.9375,90.6875)"/>
<path d="M0 0 C2.9375 0.8125 2.9375 0.8125 4.9375 2.8125 C5.25 6.3125 5.25 6.3125 4.9375 9.8125 C1.70496204 11.96752531 0.68599077 12.28106135 -3.0625 11.8125 C-4.875 10.6875 -4.875 10.6875 -6.0625 8.8125 C-6.45954314 5.63615485 -6.56183741 3.67246999 -4.9375 0.875 C-3.0625 -0.1875 -3.0625 -0.1875 0 0 Z " fill="#0C0B08" transform="translate(378.0625,144.1875)"/>
<path d="M0 0 C0.33 0.66 0.66 1.32 1 2 C1.66 2 2.32 2 3 2 C1.45052293 6.12237419 -1.53712159 8.39299772 -4.875 11.0625 C-5.40480469 11.49626953 -5.93460937 11.93003906 -6.48046875 12.37695312 C-7.97707306 13.59688989 -9.48818283 14.79896753 -11 16 C-12.11761719 16.89525391 -12.11761719 16.89525391 -13.2578125 17.80859375 C-15 19 -15 19 -17 19 C-17.33 17.68 -17.66 16.36 -18 15 C-16.02 15 -14.04 15 -12 15 C-11.67 13.68 -11.34 12.36 -11 11 C-9.68 11 -8.36 11 -7 11 C-7 10.34 -7 9.68 -7 9 C-7.66 8.67 -8.32 8.34 -9 8 C-8.01 8 -7.02 8 -6 8 C-6 7.34 -6 6.68 -6 6 C-5.38125 5.938125 -4.7625 5.87625 -4.125 5.8125 C-1.72238859 5.171081 -1.72238859 5.171081 -0.75 2.4375 C-0.5025 1.633125 -0.255 0.82875 0 0 Z " fill="#DC7852" transform="translate(428,308)"/>
<path d="M0 0 C4.34367366 3.9914839 7.75795246 7.49031074 8.1796875 13.60546875 C8.18666325 16.07837354 8.13174977 18.53091164 8 21 C7.01 20.67 6.02 20.34 5 20 C4.2653626 16.96962071 4.00921753 14.4561655 4.0625 11.3125 C4.38155851 7.91913072 4.38155851 7.91913072 2 6 C1.01 6 0.02 6 -1 6 C-0.67 4.02 -0.34 2.04 0 0 Z " fill="#E6E193" transform="translate(430,97)"/>
<path d="M0 0 C2.57585768 1.82194812 4.77124444 3.77124444 7 6 C6.625 7.8125 6.625 7.8125 6 10 C5.96213099 11.66623639 5.95372155 13.33397597 6 15 C5.34 14.34 4.68 13.68 4 13 C4 12.01 4 11.02 4 10 C3.34 10 2.68 10 2 10 C2 8.68 2 7.36 2 6 C1.38125 5.690625 0.7625 5.38125 0.125 5.0625 C-1.25 4.375 -2.625 3.6875 -4 3 C-3 1 -3 1 0 0 Z " fill="#FAF3A6" transform="translate(410,87)"/>
<path d="M0 0 C0.66 0.66 1.32 1.32 2 2 C0.57315404 5.10917296 -0.86828703 8.21136053 -2.3125 11.3125 C-2.71662109 12.19357422 -3.12074219 13.07464844 -3.53710938 13.98242188 C-3.93349609 14.82998047 -4.32988281 15.67753906 -4.73828125 16.55078125 C-5.09962158 17.33106689 -5.46096191 18.11135254 -5.83325195 18.9152832 C-7.00127463 21.00227748 -8.23005601 22.40816358 -10 24 C-10.1875 21.1875 -10.1875 21.1875 -10 18 C-9.01576771 16.98447708 -8.01311695 15.98670869 -7 15 C-6.08947047 13.40589785 -5.23835692 11.7769243 -4.4375 10.125 C-4.02371094 9.28195312 -3.60992187 8.43890625 -3.18359375 7.5703125 C-2.03478789 5.07554598 -0.99532259 2.55940095 0 0 Z " fill="#DA7B55" transform="translate(470,251)"/>
<path d="M0 0 C6.57142857 5 6.57142857 5 8 10 C7.38125 9.79375 6.7625 9.5875 6.125 9.375 C5.42375 9.25125 4.7225 9.1275 4 9 C3.34 9.66 2.68 10.32 2 11 C-0.26881841 7.91440696 -1.05451946 6.57790624 -0.6875 2.6875 C-0.460625 1.800625 -0.23375 0.91375 0 0 Z " fill="#EDEBDD" transform="translate(367,51)"/>
<path d="M0 0 C0.66 0.33 1.32 0.66 2 1 C0.52116808 2.64613412 -0.95807477 4.29189908 -2.4375 5.9375 C-3.26121094 6.85402344 -4.08492187 7.77054688 -4.93359375 8.71484375 C-8.36367122 12.50802961 -9.81713579 12.23171127 -15.0625 12.5625 C-16.99802734 12.68818359 -16.99802734 12.68818359 -18.97265625 12.81640625 C-19.97167969 12.87699219 -20.97070312 12.93757813 -22 13 C-20 11 -20 11 -17.71484375 10.9375 C-16.79832031 10.958125 -15.88179687 10.97875 -14.9375 11 C-9.51426517 10.66373082 -7.38570802 8.97012048 -3.8125 4.9375 C-2.51269444 3.31445033 -1.2315094 1.67546093 0 0 Z " fill="#777777" transform="translate(257,41)"/>
<path d="M0 0 C0.33 0 0.66 0 1 0 C1.02724423 2.83339965 1.04695589 5.66653117 1.0625 8.5 C1.07087891 9.29148438 1.07925781 10.08296875 1.08789062 10.8984375 C1.10891185 16.02761717 0.73937287 20.92336106 0 26 C-0.99 25.67 -1.98 25.34 -3 25 C-3.20086443 21.28400809 -3.1519437 20.22791555 -1 17 C-0.6373883 15.07255631 -0.6373883 15.07255631 -0.5859375 12.98828125 C-0.54726563 12.23095703 -0.50859375 11.47363281 -0.46875 10.69335938 C-0.4378125 9.90767578 -0.406875 9.12199219 -0.375 8.3125 C-0.33632813 7.51521484 -0.29765625 6.71792969 -0.2578125 5.89648438 C-0.16367506 3.93136525 -0.08075368 1.9657146 0 0 Z " fill="#FDF7B9" transform="translate(431,140)"/>
<path d="M0 0 C0.33 0 0.66 0 1 0 C1.67458659 3.52284107 1.79733403 6.48793343 1 10 C-1.88485049 13.86737203 -5.17986327 17.05661596 -9 20 C-9.66 20 -10.32 20 -11 20 C-9.57436257 16.55906357 -7.91163549 14.99857055 -4.9375 12.8125 C-1.6339766 10.06454202 -0.439487 8.36271126 0 4.0625 C0.0361585 2.70881617 0.04909846 1.35327628 0 0 Z " fill="#727272" transform="translate(182,109)"/>
<path d="M0 0 C-0.99 1.98 -1.98 3.96 -3 6 C-4.093125 5.773125 -5.18625 5.54625 -6.3125 5.3125 C-9.90531273 4.59853617 -9.90531273 4.59853617 -11.9375 6.4375 C-12.288125 6.953125 -12.63875 7.46875 -13 8 C-13.66 7.67 -14.32 7.34 -15 7 C-6.47802198 -0.35989011 -6.47802198 -0.35989011 0 0 Z " fill="#E5E3C4" transform="translate(242,65)"/>
<path d="M0 0 C0.66 0.66 1.32 1.32 2 2 C1.625 4.625 1.625 4.625 1 7 C-1.31 7 -3.62 7 -6 7 C-4.60667426 3.63279613 -3.0210714 2.0140476 0 0 Z " fill="#F0EDCB" transform="translate(205,95)"/>
<path d="M0 0 C3.63 0 7.26 0 11 0 C11.66 1.65 12.32 3.3 13 5 C12.01 5.495 12.01 5.495 11 6 C10.01 5.67 9.02 5.34 8 5 C8 4.01 8 3.02 8 2 C5.36 1.67 2.72 1.34 0 1 C0 0.67 0 0.34 0 0 Z " fill="#E2A57A" transform="translate(225,189)"/>
<path d="M0 0 C0.66 0.33 1.32 0.66 2 1 C-2.29 5.29 -6.58 9.58 -11 14 C-11 9.40845608 -8.09282279 7.18698368 -5 4 C-3.3719908 2.61973133 -1.71956118 1.26438322 0 0 Z " fill="#6F6F6F" transform="translate(225,57)"/>
<path d="M0 0 C0.66 0.33 1.32 0.66 2 1 C1.896875 1.86625 1.79375 2.7325 1.6875 3.625 C2.11458943 8.23756587 3.85042342 9.69294459 7 13 C6.01 13.495 6.01 13.495 5 14 C0.125 10.25 0.125 10.25 -1 8 C-0.83219837 5.30434798 -0.38844355 2.67594446 0 0 Z " fill="#EBE39A" transform="translate(450,160)"/>
<path d="M0 0 C0.94746094 -0.01675781 1.89492188 -0.03351562 2.87109375 -0.05078125 C5.5625 0.3125 5.5625 0.3125 9.5625 3.3125 C3.6225 2.9825 -2.3175 2.6525 -8.4375 2.3125 C-5.11533762 0.09772508 -3.88716677 0.01582293 0 0 Z " fill="#CCCAAF" transform="translate(316.4375,40.6875)"/>
<path d="M0 0 C1.32 0.66 2.64 1.32 4 2 C2.625 3.5 2.625 3.5 1 5 C0.34 5 -0.32 5 -1 5 C-1.33 5.99 -1.66 6.98 -2 8 C-2.99 7.01 -3.98 6.02 -5 5 C-4.34 5 -3.68 5 -3 5 C-2.5359375 4.0409375 -2.5359375 4.0409375 -2.0625 3.0625 C-1 1 -1 1 0 0 Z " fill="#E27A4E" transform="translate(407,325)"/>
<path d="M0 0 C0.33 0 0.66 0 1 0 C1.02578125 1.04800781 1.0515625 2.09601563 1.078125 3.17578125 C1.13440858 4.55472902 1.19175588 5.93363365 1.25 7.3125 C1.26417969 8.00279297 1.27835937 8.69308594 1.29296875 9.40429688 C1.36309412 11.69686723 1.36309412 11.69686723 2 15 C3.9291485 16.87606953 3.9291485 16.87606953 6 18 C6 18.66 6 19.32 6 20 C4 19 2 18 0 17 C0 11.39 0 5.78 0 0 Z " fill="#FDF6B2" transform="translate(418,107)"/>
<path d="M0 0 C2.31 1.98 4.62 3.96 7 6 C6.01 6.99 5.02 7.98 4 9 C3.67 8.34 3.34 7.68 3 7 C2.01 6.67 1.02 6.34 0 6 C0.66 6 1.32 6 2 6 C1.34 5.01 0.68 4.02 0 3 C0 2.01 0 1.02 0 0 Z " fill="#F1EFCD" transform="translate(329,45)"/>
<path d="M0 0 C0.94875 0.04125 1.8975 0.0825 2.875 0.125 C0.54166667 2.45833333 -1.79166667 4.79166667 -4.125 7.125 C-3.465 7.455 -2.805 7.785 -2.125 8.125 C-3.115 8.125 -4.105 8.125 -5.125 8.125 C-5.25 5.25 -5.25 5.25 -5.125 2.125 C-3.125 0.125 -3.125 0.125 0 0 Z " fill="#190704" transform="translate(245.125,329.875)"/>
<path d="M0 0 C4 2 4 2 5.8125 5.375 C7 9 7 9 6 13 C4.02 8.71 2.04 4.42 0 0 Z " fill="#FEF6B4" transform="translate(424,127)"/>
<path d="M0 0 C3.82097239 0.53069061 6.06171403 1.49701566 9 4 C6.03 3.505 6.03 3.505 3 3 C3 3.66 3 4.32 3 5 C1.68 4.34 0.36 3.68 -1 3 C-0.67 2.01 -0.34 1.02 0 0 Z " fill="#EFE89C" transform="translate(392,65)"/>
<path d="M0 0 C5.75 1.75 5.75 1.75 8 4 C8 4.99 8 5.98 8 7 C5.05043472 5.63055898 2.47531189 4.12169591 0 2 C0 1.34 0 0.68 0 0 Z " fill="#D99D78" transform="translate(207,315)"/>
<path d="M0 0 C0.33 0.66 0.66 1.32 1 2 C-0.93694542 5.80471422 -2.70921407 9.20283196 -6 12 C-6.66 11.67 -7.32 11.34 -8 11 C-5.36 7.37 -2.72 3.74 0 0 Z " fill="#2C0C04" transform="translate(457,280)"/>
<path d="M0 0 C0.66 0.33 1.32 0.66 2 1 C0.37660195 2.70884005 -1.29319053 4.37446717 -3 6 C-3.66 6 -4.32 6 -5 6 C-5.33 6.99 -5.66 7.98 -6 9 C-7.32 8.67 -8.64 8.34 -10 8 C-6.7 5.36 -3.4 2.72 0 0 Z " fill="#290A03" transform="translate(424,317)"/>
<path d="M0 0 C2.31 0 4.62 0 7 0 C7 0.99 7 1.98 7 3 C6.34 3 5.68 3 5 3 C4.67 3.99 4.34 4.98 4 6 C2.62437146 4.71034824 1.29233607 3.37310707 0 2 C0 1.34 0 0.68 0 0 Z " fill="#E9A379" transform="translate(183,290)"/>
<path d="M0 0 C1.65 1.65 3.3 3.3 5 5 C4.01 5.66 3.02 6.32 2 7 C0.62437146 5.71034824 -0.70766393 4.37310707 -2 3 C-2 2.34 -2 1.68 -2 1 C-1.34 0.67 -0.68 0.34 0 0 Z " fill="#E7A479" transform="translate(190,295)"/>
<path d="M0 0 C1 2 2 4 3 6 C3.99 6.66 4.98 7.32 6 8 C3.75 8.25 3.75 8.25 1 8 C-1.3125 6.125 -1.3125 6.125 -3 4 C-3 3.34 -3 2.68 -3 2 C-2.01 2 -1.02 2 0 2 C0 1.34 0 0.68 0 0 Z " fill="#D4784F" transform="translate(239,334)"/>
<path d="M0 0 C0.33 0 0.66 0 1 0 C1.49230769 7.38461538 1.49230769 7.38461538 -1 10.5 C-1.66 10.995 -2.32 11.49 -3 12 C-2.68950274 10.56206608 -2.3765224 9.1246682 -2.0625 7.6875 C-1.88847656 6.88699219 -1.71445312 6.08648437 -1.53515625 5.26171875 C-1 3 -1 3 0 0 Z " fill="#EE8555" transform="translate(451,247)"/>
<path d="M0 0 C-3.7277886 2.4851924 -6.91322812 3.38440535 -11.375 2.5625 C-11.91125 2.376875 -12.4475 2.19125 -13 2 C-8.50343896 -0.24828052 -4.92127034 -0.16682272 0 0 Z " fill="#E9E6C9" transform="translate(219,92)"/>
<path d="M0 0 C1.98 0.66 3.96 1.32 6 2 C6 3.98 6 5.96 6 8 C1.125 3.375 1.125 3.375 0 0 Z " fill="#DFA27E" transform="translate(177,282)"/>
<path d="M0 0 C0.66 0.33 1.32 0.66 2 1 C2.73075648 3.3140622 3.40138258 5.64828869 4 8 C3.34 8.66 2.68 9.32 2 10 C1.01 7.03 0.02 4.06 -1 1 C-0.67 0.67 -0.34 0.34 0 0 Z " fill="#DD9E7C" transform="translate(162,251)"/>
<path d="M0 0 C0 1.32 0 2.64 0 4 C-1.98 4 -3.96 4 -6 4 C-6 3.34 -6 2.68 -6 2 C-3 0 -3 0 0 0 Z " fill="#F67649" transform="translate(402,332)"/>
<path d="M0 0 C-1.0975223 2.99324263 -1.67682892 3.84610901 -4.625 5.25 C-5.40875 5.4975 -6.1925 5.745 -7 6 C-7 5.01 -7 4.02 -7 3 C-2.77777778 0 -2.77777778 0 0 0 Z " fill="#270A05" transform="translate(413,327)"/>
<path d="M0 0 C4.51478398 0.53115106 7.34666857 2.36620292 11 5 C10.34 5.66 9.68 6.32 9 7 C7.4972763 6.02501855 5.99788037 5.04490611 4.5 4.0625 C3.6646875 3.51722656 2.829375 2.97195313 1.96875 2.41015625 C1.3190625 1.94480469 0.669375 1.47945313 0 1 C0 0.67 0 0.34 0 0 Z " fill="#D79E7C" transform="translate(217,324)"/>
<path d="M0 0 C0.66 0.33 1.32 0.66 2 1 C-0.38957269 4.24299151 -2.2047869 6.50902342 -6 8 C-4.55746343 4.63408134 -2.66735273 2.48952921 0 0 Z " fill="#7D7D7D" transform="translate(195,86)"/>
<path d="M0 0 C0.33 0.66 0.66 1.32 1 2 C-0.4375 4.625 -0.4375 4.625 -2 7 C-3.32 6.34 -4.64 5.68 -6 5 C-4.02 3.35 -2.04 1.7 0 0 Z " fill="#F6F4D4" transform="translate(302,46)"/>
<path d="M0 0 C0.6875 1.8125 0.6875 1.8125 1 4 C-0.3125 5.75 -0.3125 5.75 -2 7 C-2.66 7 -3.32 7 -4 7 C-2.92598892 4.08482708 -2.22189824 2.22189824 0 0 Z " fill="#E5E4C6" transform="translate(183,133)"/>
</svg>
