<?xml version="1.0" encoding="UTF-8"?>
<svg version="1.1" xmlns="http://www.w3.org/2000/svg" width="543" height="460">
<path d="M0 0 C1.08152344 0.41507813 2.16304688 0.83015625 3.27734375 1.2578125 C14.73087119 5.85077811 27.92392417 11.58714274 34 23 C35.1964524 25.95358543 36.15947174 28.92752847 37 32 C37.28617187 32.95519531 37.28617187 32.95519531 37.578125 33.9296875 C38.27607902 37.35483222 38.01494229 40.76603092 37.9375 44.24609375 C37.91414311 46.94534895 37.91414311 46.94534895 38.48901367 49.31689453 C42.53894792 70.58243556 37.70591055 91.20646516 25.98046875 109.078125 C24.05166109 111.77771813 22.06364182 114.40243853 20 117 C19.48566406 117.65613281 18.97132813 118.31226563 18.44140625 118.98828125 C14.78573517 123.45632369 10.64434199 127.55858443 6 131 C5.34 131 4.68 131 4 131 C3.67 131.99 3.34 132.98 3 134 C2.01 134 1.02 134 0 134 C0 134.66 0 135.32 0 136 C-2.0897227 137.79539556 -4.17842082 139.47061442 -6.375 141.125 C-7.27992188 141.82689453 -7.27992188 141.82689453 -8.203125 142.54296875 C-12.73858874 146 -12.73858874 146 -15 146 C-15 146.66 -15 147.32 -15 148 C-21.625 151.875 -21.625 151.875 -25 153 C-25 153.66 -25 154.32 -25 155 C-26.32 155.33 -27.64 155.66 -29 156 C-29 156.66 -29 157.32 -29 158 C-29.886875 158.495 -30.77375 158.99 -31.6875 159.5 C-35.26427231 161.53767635 -38.75496132 163.70049441 -42.25 165.875 C-57.11848906 175.0568035 -72.81464431 182.91133498 -89.22265625 188.953125 C-91.72682217 189.89703002 -94.13562716 190.9377461 -96.5625 192.0625 C-100.99001267 194.08092489 -105.54495358 195.5725384 -110.171875 197.06640625 C-112.42654132 197.81069527 -114.61175289 198.61491692 -116.8125 199.5 C-121.75519885 201.38535936 -126.87342672 202.65551564 -131.99609375 203.94921875 C-134.53904581 204.59548375 -136.97380267 205.32094959 -139.47265625 206.14453125 C-148.81597523 209.02174482 -157.8985567 209.37674265 -167.625 209.375 C-168.94250244 209.37661133 -170.26000488 209.37822266 -171.61743164 209.37988281 C-177.57455481 209.31093019 -182.37080341 209.04917014 -188 207 C-189.40543269 206.65661658 -190.81691017 206.33661051 -192.234375 206.046875 C-205.76694973 203.13652211 -218.61311586 199.19344207 -231 193 C-232.15822266 192.54753906 -232.15822266 192.54753906 -233.33984375 192.0859375 C-244.56826311 187.50223621 -255.13467618 180.97926565 -265 174 C-265.96808594 173.34128906 -266.93617188 172.68257812 -267.93359375 172.00390625 C-278.27245504 164.80738543 -288.1545189 154.75421314 -291 142 C-291.34874588 138.22533872 -291.56131574 134.471987 -291.69140625 130.68359375 C-292.00951478 126.88642484 -292.87386305 123.63059595 -294 120 C-297.11662445 101.92357817 -294.17697663 85.66977828 -285 70 C-284.34 70 -283.68 70 -283 70 C-282.89429688 69.42378906 -282.78859375 68.84757812 -282.6796875 68.25390625 C-281.8986171 65.66380499 -280.77751302 64.07096831 -279.125 61.9375 C-278.61195313 61.26589844 -278.09890625 60.59429687 -277.5703125 59.90234375 C-274.67408304 56.39372746 -271.96392703 54.30873496 -267.9453125 52.09765625 C-265.97569602 50.98628631 -264.08710198 49.78916605 -262.1875 48.5625 C-253.82698918 43.33917134 -245.03530203 39.77244235 -235.8125 36.40625 C-232.84220123 35.32139478 -229.91704427 34.15950503 -227 32.9375 C-214.93673514 28.14362927 -202.5817758 25.10354111 -189.9375 22.3125 C-188.92668365 22.0869191 -188.92668365 22.0869191 -187.89544678 21.85678101 C-171.71777827 18.26657604 -155.33665286 16.53563673 -138.8840332 14.75 C-121.42265009 12.87469855 -121.42265009 12.87469855 -105 7 C-98.09693843 3.71089419 -91.36324815 1.05546503 -84 -1 C-82.948125 -1.350625 -81.89625 -1.70125 -80.8125 -2.0625 C-54.29306777 -10.90231074 -25.98865804 -9.99336339 0 0 Z " fill="#FDC6A0" transform="translate(406,121)"/>
<path d="M0 0 C1.08152344 0.41507813 2.16304688 0.83015625 3.27734375 1.2578125 C18.92929919 7.53438479 18.92929919 7.53438479 24 13 C23.05125 13.4125 22.1025 13.825 21.125 14.25 C17.99283376 16.0040131 17.13499394 16.70851757 16 20 C13.65543074 18.84487075 11.34348264 17.64835614 9.0390625 16.4140625 C-10.46115232 6.19541446 -31.29423338 3.84279758 -53 7 C-52.01 8.65 -51.02 10.3 -50 12 C-50.99 12.33 -51.98 12.66 -53 13 C-53 13.66 -53 14.32 -53 15 C-61.28519856 12.29241877 -61.28519856 12.29241877 -64.75 10.875 C-74.39432582 7.12442885 -82.93323633 9.22838985 -92.09741211 13.1862793 C-105.95331754 19.11233253 -119.40480613 23.09523955 -134.609375 23.59375 C-136.99454318 23.83803613 -136.99454318 23.83803613 -138.7109375 25.1015625 C-141.20334641 28.77220107 -141.73698095 33.28935161 -142.7421875 37.5546875 C-144.17663293 41.48382064 -145.7581446 43.39263618 -149 46 C-149.99 46 -150.98 46 -152 46 C-152 44.68 -152 43.36 -152 42 C-152.66 42 -153.32 42 -154 42 C-154.103125 40.741875 -154.20625 39.48375 -154.3125 38.1875 C-154.64327185 35.55064273 -154.81938388 34.25450453 -156.375 32.0625 C-168.14044662 24.36970798 -192.7729534 32.25063457 -206 35 C-212.31469683 36.36171675 -217.46563749 37.64045579 -223 41 C-225.04821989 41.80801335 -227.11216998 42.576908 -229.1875 43.3125 C-234.43638818 45.279352 -239.02473428 47.60831826 -243.74609375 50.609375 C-245.75528732 51.84901609 -247.72779877 52.84251177 -249.875 53.8125 C-257.64074022 57.57674882 -265.35003312 63.49550076 -271 70 C-272.31548358 74.23070097 -272.33279925 78.50240339 -271.375 82.8125 C-269.60214493 85.63295124 -267.40902382 87.70848954 -265 90 C-263.97186389 91.31175986 -262.95915568 92.6369893 -262 94 C-262.66 94 -263.32 94 -264 94 C-264 95.65 -264 97.3 -264 99 C-264.515625 98.835 -265.03125 98.67 -265.5625 98.5 C-268.75195119 97.8457536 -271.75385905 97.87750412 -275 98 C-275.33 98.33 -275.66 98.66 -276 99 C-276 101.03005482 -275.99642412 103.06064427 -275.9375 105.08984375 C-276 107 -276 107 -277 109 C-276.34 109.33 -275.68 109.66 -275 110 C-275 110.99 -275 111.98 -275 113 C-275.99 113.99 -275.99 113.99 -277 115 C-277 115.66 -277 116.32 -277 117 C-276.401875 117.28875 -275.80375 117.5775 -275.1875 117.875 C-273 119 -273 119 -270 121 C-270 121.66 -270 122.32 -270 123 C-269.01 123 -268.02 123 -267 123 C-266.67 123.99 -266.34 124.98 -266 126 C-265.34 126.33 -264.68 126.66 -264 127 C-264 127.66 -264 128.32 -264 129 C-263.030625 129.268125 -262.06125 129.53625 -261.0625 129.8125 C-259.5465625 130.4003125 -259.5465625 130.4003125 -258 131 C-257.67 131.99 -257.34 132.98 -257 134 C-255.18703385 134.62092718 -255.18703385 134.62092718 -253 135 C-251.3255761 135.6469365 -249.65697379 136.30959426 -248 137 C-248 137.66 -248 138.32 -248 139 C-246.5459375 139.37125 -246.5459375 139.37125 -245.0625 139.75 C-240.50589822 141.03854722 -236.28158597 142.99998479 -232 145 C-232 145.66 -232 146.32 -232 147 C-231.21302734 147.20302734 -231.21302734 147.20302734 -230.41015625 147.41015625 C-223.76047968 149.25790332 -217.48826125 151.7743728 -211.15454102 154.48657227 C-206.82606964 156.32254335 -202.54091571 157.74483288 -198 159 C-196.948125 159.495 -195.89625 159.99 -194.8125 160.5 C-179.93087637 166.92912249 -158.58295996 165.36491168 -143 162 C-140.99721452 161.00559047 -138.99755503 160.00487506 -137 159 C-132.70328066 157.6103428 -128.32599878 156.49825846 -123.96289062 155.33789062 C-118.73133909 153.9042261 -113.88976152 152.18237552 -108.97143555 149.89428711 C-106.55395193 148.79766265 -104.11184686 147.9842119 -101.5625 147.25 C-100.32693359 146.88648438 -100.32693359 146.88648438 -99.06640625 146.515625 C-97 146 -97 146 -95 146 C-95 145.34 -95 144.68 -95 144 C-93.80117188 143.67128906 -93.80117188 143.67128906 -92.578125 143.3359375 C-81.35559031 140.09562819 -71.65849013 134.95343954 -61.48828125 129.31640625 C-59.31238103 128.16526281 -57.15405387 127.17368986 -54.875 126.25 C-51.89189608 125.31873938 -51.89189608 125.31873938 -51 123 C-48.4375 122.375 -48.4375 122.375 -46 122 C-46 121.34 -46 120.68 -46 120 C-43.91796875 118.4921875 -43.91796875 118.4921875 -41.1875 116.875 C-40.29417969 116.33617187 -39.40085937 115.79734375 -38.48046875 115.2421875 C-36 114 -36 114 -33 114 C-33 113.34 -33 112.68 -33 112 C-27.25 109 -27.25 109 -25 109 C-25 108.34 -25 107.68 -25 107 C-24.01 107 -23.02 107 -22 107 C-22 106.01 -22 105.02 -22 104 C-21.113125 103.566875 -20.22625 103.13375 -19.3125 102.6875 C-14.47654543 100.2239005 -10.77972603 97.89784246 -7 94 C-6.113125 93.29875 -5.22625 92.5975 -4.3125 91.875 C-1.93242212 90.20909046 -1.93242212 90.20909046 -1 88 C-0.01 88 0.98 88 2 88 C2.66 86.68 3.32 85.36 4 84 C4.66 84 5.32 84 6 84 C6 83.34 6 82.68 6 82 C7.36027061 80.91875926 8.7207516 79.83778258 10.08203125 78.7578125 C13.39743146 75.71925834 16.06823349 72.14176079 18.8515625 68.62109375 C21 66 21 66 23.1328125 63.89453125 C24.91457058 62.08668048 26.05330118 60.47244067 27.25 58.25 C27.8275 57.1775 28.405 56.105 29 55 C29.66 55 30.32 55 31 55 C31.0825 54.38125 31.165 53.7625 31.25 53.125 C32 51 32 51 34.0625 49.75 C34.701875 49.5025 35.34125 49.255 36 49 C36 49.66 36 50.32 36 51 C36.99 51.33 37.98 51.66 39 52 C39.75421737 77.71881227 36.39644191 96.36135752 20 117 C19.48566406 117.65613281 18.97132813 118.31226563 18.44140625 118.98828125 C14.78573517 123.45632369 10.64434199 127.55858443 6 131 C5.34 131 4.68 131 4 131 C3.67 131.99 3.34 132.98 3 134 C2.01 134 1.02 134 0 134 C0 134.66 0 135.32 0 136 C-2.0897227 137.79539556 -4.17842082 139.47061442 -6.375 141.125 C-7.27992188 141.82689453 -7.27992188 141.82689453 -8.203125 142.54296875 C-12.73858874 146 -12.73858874 146 -15 146 C-15 146.66 -15 147.32 -15 148 C-21.625 151.875 -21.625 151.875 -25 153 C-25 153.66 -25 154.32 -25 155 C-26.32 155.33 -27.64 155.66 -29 156 C-29 156.66 -29 157.32 -29 158 C-29.886875 158.495 -30.77375 158.99 -31.6875 159.5 C-35.26427231 161.53767635 -38.75496132 163.70049441 -42.25 165.875 C-57.11848906 175.0568035 -72.81464431 182.91133498 -89.22265625 188.953125 C-91.72682217 189.89703002 -94.13562716 190.9377461 -96.5625 192.0625 C-100.99001267 194.08092489 -105.54495358 195.5725384 -110.171875 197.06640625 C-112.42654132 197.81069527 -114.61175289 198.61491692 -116.8125 199.5 C-121.75519885 201.38535936 -126.87342672 202.65551564 -131.99609375 203.94921875 C-134.53904581 204.59548375 -136.97380267 205.32094959 -139.47265625 206.14453125 C-148.81597523 209.02174482 -157.8985567 209.37674265 -167.625 209.375 C-168.94250244 209.37661133 -170.26000488 209.37822266 -171.61743164 209.37988281 C-177.57455481 209.31093019 -182.37080341 209.04917014 -188 207 C-189.40543269 206.65661658 -190.81691017 206.33661051 -192.234375 206.046875 C-205.76694973 203.13652211 -218.61311586 199.19344207 -231 193 C-232.15822266 192.54753906 -232.15822266 192.54753906 -233.33984375 192.0859375 C-244.56826311 187.50223621 -255.13467618 180.97926565 -265 174 C-265.96808594 173.34128906 -266.93617188 172.68257812 -267.93359375 172.00390625 C-278.27245504 164.80738543 -288.1545189 154.75421314 -291 142 C-291.34874588 138.22533872 -291.56131574 134.471987 -291.69140625 130.68359375 C-292.00951478 126.88642484 -292.87386305 123.63059595 -294 120 C-297.11662445 101.92357817 -294.17697663 85.66977828 -285 70 C-284.34 70 -283.68 70 -283 70 C-282.89429688 69.42378906 -282.78859375 68.84757812 -282.6796875 68.25390625 C-281.8986171 65.66380499 -280.77751302 64.07096831 -279.125 61.9375 C-278.61195313 61.26589844 -278.09890625 60.59429687 -277.5703125 59.90234375 C-274.67408304 56.39372746 -271.96392703 54.30873496 -267.9453125 52.09765625 C-265.97569602 50.98628631 -264.08710198 49.78916605 -262.1875 48.5625 C-253.82698918 43.33917134 -245.03530203 39.77244235 -235.8125 36.40625 C-232.84220123 35.32139478 -229.91704427 34.15950503 -227 32.9375 C-214.93673514 28.14362927 -202.5817758 25.10354111 -189.9375 22.3125 C-188.92668365 22.0869191 -188.92668365 22.0869191 -187.89544678 21.85678101 C-171.71777827 18.26657604 -155.33665286 16.53563673 -138.8840332 14.75 C-121.42265009 12.87469855 -121.42265009 12.87469855 -105 7 C-98.09693843 3.71089419 -91.36324815 1.05546503 -84 -1 C-82.948125 -1.350625 -81.89625 -1.70125 -80.8125 -2.0625 C-54.29306777 -10.90231074 -25.98865804 -9.99336339 0 0 Z " fill="#FEB98E" transform="translate(406,121)"/>
<path d="M0 0 C2 2 2 2 2.375 5.0625 C1.97116753 9.30274095 0.76964369 12.01247273 -1.03125 15.80078125 C-3.00793371 20.2881721 -3.47999944 23.61333495 -1.875 28.25 C1.21666153 32.78443691 4.41958284 33.95550382 9.625 35.0625 C10.38039063 35.19785156 11.13578125 35.33320313 11.9140625 35.47265625 C14 36 14 36 17 38 C17.5 41.4375 17.5 41.4375 17 45 C12.49875506 49.0711897 6.67923559 48.62228725 0.9375 48.9375 C-13.29763481 49.98709011 -23.63700919 54.04701863 -36.01953125 60.87890625 C-52.94639628 70.05899218 -75.44107011 72.31085637 -94.0625 67.1875 C-99.75858214 65.31274913 -105.1479294 63.05181962 -109.6875 59.0625 C-110.24824219 58.57910156 -110.80898437 58.09570312 -111.38671875 57.59765625 C-116.25434141 52.77717764 -116.96703494 48.72487323 -117 42 C-115.6525986 34.7577175 -108.45521514 30.18890316 -102.75537109 26.24560547 C-95.77135553 21.54337433 -88.62584674 17.58232463 -81 14 C-79.24826723 13.10755972 -77.49818477 12.21187055 -75.75 11.3125 C-59.16431334 3.03292522 -16.59099223 -11.8878066 0 0 Z " fill="#FC4F3F" transform="translate(250,153)"/>
<path d="M0 0 C10.44793978 4.50924764 22.84229852 0.66023726 33.40185547 -1.86450195 C42.50641264 -3.98839492 51.13473384 -5.45656995 59.58203125 -0.71484375 C61.140625 0.35546875 61.140625 0.35546875 63.140625 2.35546875 C63.296875 5.5390625 63.296875 5.5390625 62.140625 9.35546875 C59.60944364 12.12356989 56.67828286 14.23404754 53.640625 16.41796875 C52.86203125 17.00384766 52.0834375 17.58972656 51.28125 18.19335938 C43.92609357 23.67928317 36.29209418 28.71730667 28.453125 33.48046875 C25.33785349 35.37473641 22.29307834 37.24416715 19.34765625 39.39453125 C15.23711542 41.90791919 11.11839792 43.2499792 6.515625 44.60546875 C5.63060303 44.86851807 4.74558105 45.13156738 3.83374023 45.40258789 C-3.55212414 47.48460445 -10.55398172 48.53444503 -18.14453125 46.84765625 C-21.10044448 46.31176407 -23.9901074 46.20166021 -26.98876953 46.11669922 C-59.01559911 45.12060215 -59.01559911 45.12060215 -68.0625 36.41015625 C-68.65546875 35.73210937 -69.2484375 35.0540625 -69.859375 34.35546875 C-70.99632812 33.15277344 -70.99632812 33.15277344 -72.15625 31.92578125 C-75.45803591 28.17996206 -77.62123231 25.47290752 -78.671875 20.54296875 C-77.53512777 16.08342192 -75.00071604 13.77587609 -71.1784668 11.24047852 C-66.2128797 8.35103484 -61.02128441 5.87043166 -55.859375 3.35546875 C-54.69946045 2.76668945 -54.69946045 2.76668945 -53.51611328 2.16601562 C-36.398759 -6.39087585 -17.46338299 -8.87932879 0 0 Z " fill="#FC4F3F" transform="translate(333.859375,198.64453125)"/>
<path d="M0 0 C5.25135996 4.98173023 7.21928524 9.90572821 7.4375 17.125 C6.93924609 28.49942496 2.11523703 34.24445019 -6 42.125 C-12.02064566 47.27895003 -17.07971136 49.3371482 -24.9140625 49.390625 C-27 49.125 -27 49.125 -30 47.125 C-35.48986551 45.78019574 -41.07150458 45.97684126 -46.6875 46 C-47.63689453 45.99613281 -48.58628906 45.99226563 -49.56445312 45.98828125 C-50.47517578 45.98957031 -51.38589844 45.99085938 -52.32421875 45.9921875 C-53.15010498 45.99331543 -53.97599121 45.99444336 -54.8269043 45.99560547 C-57.18190927 46.04159183 -57.18190927 46.04159183 -60 47.125 C-64.26694186 47.36049118 -68.53975497 47.31018164 -72.8125 47.3125 C-73.98876953 47.32474609 -75.16503906 47.33699219 -76.37695312 47.34960938 C-78.0872168 47.35250977 -78.0872168 47.35250977 -79.83203125 47.35546875 C-80.87077393 47.35957764 -81.9095166 47.36368652 -82.97973633 47.36791992 C-87.43199512 47.00982458 -90.92219025 46.34188198 -93.9375 42.9375 C-95.38068416 39.11730664 -95.18512906 37.02895454 -94 33.125 C-90.03544554 29.45954654 -85.75570785 26.54168084 -81.1875 23.6875 C-79.9565553 22.90960681 -78.72608696 22.13095931 -77.49609375 21.3515625 C-76.60446533 20.78743652 -76.60446533 20.78743652 -75.69482422 20.21191406 C-72.63944353 18.25245644 -69.65410341 16.18959428 -66.671875 14.12109375 C-65 13.125 -65 13.125 -63 13.125 C-62.505 11.64 -62.505 11.64 -62 10.125 C-60.37667033 8.73923077 -58.71275535 7.39858732 -57 6.125 C-57.43358827 0.9966974 -58.82067829 -1.3306517 -62.375 -5 C-65.11073305 -7.86048961 -67.69743956 -10.65141538 -70 -13.875 C-46.28086563 -16.88695357 -19.56167304 -15.3490313 0 0 Z " fill="#FC4F3F" transform="translate(422,140.875)"/>
<path d="M0 0 C1.08152344 0.41507813 2.16304688 0.83015625 3.27734375 1.2578125 C18.92929919 7.53438479 18.92929919 7.53438479 24 13 C23.05125 13.4125 22.1025 13.825 21.125 14.25 C17.99283376 16.0040131 17.13499394 16.70851757 16 20 C13.65543074 18.84487075 11.34348264 17.64835614 9.0390625 16.4140625 C-10.46115232 6.19541446 -31.29423338 3.84279758 -53 7 C-52.01 8.65 -51.02 10.3 -50 12 C-50.99 12.33 -51.98 12.66 -53 13 C-53 13.66 -53 14.32 -53 15 C-61.28519856 12.29241877 -61.28519856 12.29241877 -64.75 10.875 C-74.39432582 7.12442885 -82.93323633 9.22838985 -92.09741211 13.1862793 C-105.95331754 19.11233253 -119.40480613 23.09523955 -134.609375 23.59375 C-136.99454318 23.83803613 -136.99454318 23.83803613 -138.7109375 25.1015625 C-141.20334641 28.77220107 -141.73698095 33.28935161 -142.7421875 37.5546875 C-144.17663293 41.48382064 -145.7581446 43.39263618 -149 46 C-149.99 46 -150.98 46 -152 46 C-152 44.68 -152 43.36 -152 42 C-152.66 42 -153.32 42 -154 42 C-154.103125 40.741875 -154.20625 39.48375 -154.3125 38.1875 C-154.64327185 35.55064273 -154.81938388 34.25450453 -156.375 32.0625 C-168.14044662 24.36970798 -192.7729534 32.25063457 -206 35 C-212.31469683 36.36171675 -217.46563749 37.64045579 -223 41 C-225.04821989 41.80801335 -227.11216998 42.576908 -229.1875 43.3125 C-234.43638818 45.279352 -239.02473428 47.60831826 -243.74609375 50.609375 C-245.75528732 51.84901609 -247.72779877 52.84251177 -249.875 53.8125 C-256.84937188 57.19315277 -263.32525241 62.27946501 -268.73828125 67.78515625 C-271 70 -271 70 -273 70 C-273.33 68.02 -273.66 66.04 -274 64 C-274.66 64 -275.32 64 -276 64 C-276 64.66 -276 65.32 -276 66 C-277.2065625 66.4021875 -277.2065625 66.4021875 -278.4375 66.8125 C-279.7059375 67.4003125 -279.7059375 67.4003125 -281 68 C-281.33 68.99 -281.66 69.98 -282 71 C-282.99 71.495 -282.99 71.495 -284 72 C-284.74023321 73.97395523 -285.38761101 75.98271862 -286 78 C-286.49597677 79.50133509 -286.99620415 81.00127063 -287.5 82.5 C-288.39045545 85.16237184 -289.26588295 87.82719139 -290.125 90.5 C-291 93 -291 93 -292 94 C-292.08631874 95.34267413 -292.10706473 96.68974322 -292.09765625 98.03515625 C-292.09443359 98.84404297 -292.09121094 99.65292969 -292.08789062 100.48632812 C-292.07951172 101.33646484 -292.07113281 102.18660156 -292.0625 103.0625 C-292.05798828 103.91650391 -292.05347656 104.77050781 -292.04882812 105.65039062 C-292.03700373 107.76695663 -292.01906769 109.88348685 -292 112 C-291.67 110.35 -291.34 108.7 -291 107 C-290.67 107 -290.34 107 -290 107 C-289.34 119.87 -288.68 132.74 -288 146 C-290 145 -290 145 -291 142 C-291.27445014 138.28838858 -291.44566881 134.5768907 -291.62109375 130.859375 C-291.99853419 127.01493012 -292.86018664 123.68110929 -294 120 C-297.11662445 101.92357817 -294.17697663 85.66977828 -285 70 C-284.34 70 -283.68 70 -283 70 C-282.89429688 69.42378906 -282.78859375 68.84757812 -282.6796875 68.25390625 C-281.8986171 65.66380499 -280.77751302 64.07096831 -279.125 61.9375 C-278.61195313 61.26589844 -278.09890625 60.59429687 -277.5703125 59.90234375 C-274.67408304 56.39372746 -271.96392703 54.30873496 -267.9453125 52.09765625 C-265.97569602 50.98628631 -264.08710198 49.78916605 -262.1875 48.5625 C-253.82698918 43.33917134 -245.03530203 39.77244235 -235.8125 36.40625 C-232.84220123 35.32139478 -229.91704427 34.15950503 -227 32.9375 C-214.93673514 28.14362927 -202.5817758 25.10354111 -189.9375 22.3125 C-188.92668365 22.0869191 -188.92668365 22.0869191 -187.89544678 21.85678101 C-171.71777827 18.26657604 -155.33665286 16.53563673 -138.8840332 14.75 C-121.42265009 12.87469855 -121.42265009 12.87469855 -105 7 C-98.09693843 3.71089419 -91.36324815 1.05546503 -84 -1 C-82.948125 -1.350625 -81.89625 -1.70125 -80.8125 -2.0625 C-54.29306777 -10.90231074 -25.98865804 -9.99336339 0 0 Z " fill="#FCC8A4" transform="translate(406,121)"/>
<path d="M0 0 C0.54527344 0.53882813 1.09054687 1.07765625 1.65234375 1.6328125 C1.65234375 2.9528125 1.65234375 4.2728125 1.65234375 5.6328125 C2.31234375 5.6328125 2.97234375 5.6328125 3.65234375 5.6328125 C3.83337361 9.61546936 3.83689761 12.26085849 1.65234375 15.6328125 C-0.5625 17.34375 -0.5625 17.34375 -3.28515625 19.0078125 C-4.26355469 19.60851562 -5.24195313 20.20921875 -6.25 20.828125 C-10.12352348 23.08483099 -14.05385809 25.21334717 -18.03515625 27.2734375 C-20.22786548 28.56239495 -21.62409872 29.79216547 -23.34765625 31.6328125 C-24.6780202 32.74055506 -26.01153022 33.84452685 -27.34765625 34.9453125 C-30.76423058 37.88182073 -32.40539674 40.55406752 -34.34765625 44.6328125 C-36.53515625 45.5078125 -36.53515625 45.5078125 -38.34765625 45.6328125 C-38.34765625 46.2928125 -38.34765625 46.9528125 -38.34765625 47.6328125 C-56.58793078 53.84226766 -70.25748282 51.20428188 -88.34765625 45.6328125 C-89.51296875 45.30023438 -90.67828125 44.96765625 -91.87890625 44.625 C-94.34765625 43.6328125 -94.34765625 43.6328125 -96.34765625 40.6328125 C-96.91015625 37.9453125 -96.91015625 37.9453125 -96.34765625 34.6328125 C-94.921875 32.95703125 -94.921875 32.95703125 -93.09765625 31.1328125 C-88.74335007 26.61204391 -87.70166262 21.82625995 -86.3671875 15.8046875 C-85.20872811 12.20059162 -84.47340655 10.76400589 -81.34765625 8.6328125 C-78.4962633 8.11704152 -75.90544167 7.80745471 -73.03515625 7.6328125 C-59.17584258 6.43221242 -41.5427253 3.39203136 -30.34765625 -5.3671875 C-19.27179508 -8.13615279 -9.39338245 -6.13379846 0 0 Z " fill="#FC4F3F" transform="translate(350.34765625,135.3671875)"/>
<path d="M0 0 C1.10085937 -0.01417969 2.20171875 -0.02835938 3.3359375 -0.04296875 C6.79780737 0.19960883 9.45312711 0.78241596 12.625 2.1875 C14 5.3125 14 5.3125 14.625 8.1875 C9.23192358 14.90056017 3.18262286 16.42469634 -4.93896484 17.85644531 C-9.43335005 18.6589799 -12.46766327 19.71678619 -16.375 22.1875 C-17.695 22.1875 -19.015 22.1875 -20.375 22.1875 C-20.375 22.8475 -20.375 23.5075 -20.375 24.1875 C-21.1175 24.868125 -21.86 25.54875 -22.625 26.25 C-28.46195869 31.93771827 -29.81135541 39.02317706 -30.19921875 46.90234375 C-30.375 49.1875 -30.375 49.1875 -31.375 51.1875 C-40.49270641 52.13983297 -45.70352904 49.87868728 -53.375 45.1875 C-55.19859409 44.25160818 -57.03161271 43.33377684 -58.875 42.4375 C-61.54876461 41.13534191 -63.8883754 39.84524973 -66.375 38.1875 C-66.375 37.5275 -66.375 36.8675 -66.375 36.1875 C-66.890625 36.105 -67.40625 36.0225 -67.9375 35.9375 C-71.41955732 34.86609775 -74.24700885 33.05226395 -77.375 31.1875 C-77.375 30.5275 -77.375 29.8675 -77.375 29.1875 C-78.07625 28.94644531 -78.7775 28.70539063 -79.5 28.45703125 C-82.85102659 26.97729804 -85.45802313 25.08877709 -88.375 22.875 C-89.385625 22.11574219 -90.39625 21.35648438 -91.4375 20.57421875 C-98.90066344 14.51039846 -98.90066344 14.51039846 -100.15234375 11.01953125 C-100.30614037 9.08019334 -100.34311204 7.13266531 -100.375 5.1875 C-98.375 3.1875 -98.375 3.1875 -95.5625 2.75 C-88.72599701 2.90831902 -82.08897154 6.58400752 -75.9140625 9.25 C-59.48792661 15.31503479 -40.23180674 14.84257518 -24.02636719 8.22900391 C-20.46979319 6.58908725 -17.02468992 4.78804979 -13.59765625 2.89453125 C-8.82862224 0.36838839 -5.38565601 0.03138494 0 0 Z " fill="#FB5041" transform="translate(229.375,214.8125)"/>
<path d="M0 0 C0 0.66 0 1.32 0 2 C0.99 2 1.98 2 3 2 C3 2.66 3 3.32 3 4 C3.804375 4.268125 4.60875 4.53625 5.4375 4.8125 C7.23596843 5.41198948 9.03441284 6.01213486 10.82226562 6.64257812 C17.79677025 9.06175413 24.91260535 10.86676659 32.0625 12.6875 C33.30966797 13.00783203 34.55683594 13.32816406 35.84179688 13.65820312 C38.89380903 14.44166985 41.94654147 15.22219312 45 16 C45 16.66 45 17.32 45 18 C39.42933542 20.9372595 33.99674578 23.11664703 28 25 C25.91530969 25.68337425 23.83202357 26.37104364 21.75 27.0625 C20.77546875 27.38347656 19.8009375 27.70445312 18.796875 28.03515625 C16.06515562 28.934299 16.06515562 28.934299 13.7578125 29.98828125 C-3.65045868 36.3746017 -23.29546356 37.63677903 -40.328125 29.94921875 C-43.54101868 28.25787838 -44.82270737 27.5318779 -46 24 C-46.66 24 -47.32 24 -48 24 C-51.00090664 18.9824841 -50.57082834 13.66261717 -50 8 C-47.75331801 2.22281774 -43.248384 -0.05233462 -37.91796875 -2.7421875 C-24.96021433 -8.32772555 -11.63948905 -7.75965937 0 0 Z " fill="#FB5040" transform="translate(259,242)"/>
<path d="M0 0 C0.66 0.33 1.32 0.66 2 1 C1.29148388 2.63410952 0.55728463 4.25709862 -0.1875 5.875 C-0.59355469 6.77992188 -0.99960938 7.68484375 -1.41796875 8.6171875 C-3.32843128 11.49467427 -4.82889939 11.84781615 -8 13 C-8.33 13.99 -8.66 14.98 -9 16 C-9.66 16.33 -10.32 16.66 -11 17 C-11.74023321 18.97395523 -12.38761101 20.98271862 -13 23 C-13.49597677 24.50133509 -13.99620415 26.00127063 -14.5 27.5 C-15.39045545 30.16237184 -16.26588295 32.82719139 -17.125 35.5 C-18 38 -18 38 -19 39 C-19.08631874 40.34267413 -19.10706473 41.68974322 -19.09765625 43.03515625 C-19.09443359 43.84404297 -19.09121094 44.65292969 -19.08789062 45.48632812 C-19.07951172 46.33646484 -19.07113281 47.18660156 -19.0625 48.0625 C-19.05798828 48.91650391 -19.05347656 49.77050781 -19.04882812 50.65039062 C-19.03700373 52.76695663 -19.01906769 54.88348685 -19 57 C-18.67 55.35 -18.34 53.7 -18 52 C-17.67 52 -17.34 52 -17 52 C-16.34 64.87 -15.68 77.74 -15 91 C-17 90 -17 90 -18 87 C-18.27445014 83.28838858 -18.44566881 79.5768907 -18.62109375 75.859375 C-18.99853419 72.01493012 -19.86018664 68.68110929 -21 65 C-24.11662445 46.92357817 -21.17697663 30.66977828 -12 15 C-11.34 15 -10.68 15 -10 15 C-9.89429687 14.42378906 -9.78859375 13.84757813 -9.6796875 13.25390625 C-8.8986171 10.66380499 -7.77751302 9.07096831 -6.125 6.9375 C-5.35542969 5.93009766 -5.35542969 5.93009766 -4.5703125 4.90234375 C-3.12963875 3.15704993 -1.63051076 1.56704776 0 0 Z " fill="#F7D8C2" transform="translate(133,176)"/>
<path d="M0 0 C-0.85722656 0.31453125 -1.71445313 0.6290625 -2.59765625 0.953125 C-8.7324366 3.24934493 -14.38945825 5.63367495 -20 9 C-20.66 9 -21.32 9 -22 9 C-21.58551214 4.30247086 -19.55624031 1.01191782 -16 -2 C-9.21979023 -4.68870388 -6.11539229 -3.05769615 0 0 Z " fill="#FEC4A0" transform="translate(183,162)"/>
<path d="M0 0 C0.33 0 0.66 0 1 0 C1.66 12.87 2.32 25.74 3 39 C1 38 1 38 0 35 C-0.25790633 31.786917 -0.44196144 28.57999983 -0.60546875 25.36132812 C-0.76700335 21.55484783 -0.76700335 21.55484783 -2 18 C-2.40144948 11.76352901 -2.581299 5.80792276 0 0 Z " fill="#F7C7A8" transform="translate(115,228)"/>
<path d="M0 0 C0.96550781 0.00902344 1.93101562 0.01804688 2.92578125 0.02734375 C5.28412099 0.05069365 7.64192286 0.08343953 10 0.125 C6.83224409 2.23683727 5.76225313 2.41595143 2.09765625 2.6171875 C1.13005371 2.680271 0.16245117 2.74335449 -0.83447266 2.80834961 C-1.85847168 2.87159424 -2.8824707 2.93483887 -3.9375 3 C-13.53735307 3.70908851 -22.35735217 4.56338701 -30.6796875 9.81640625 C-31.44539062 10.24824219 -32.21109375 10.68007812 -33 11.125 C-33.66 10.795 -34.32 10.465 -35 10.125 C-33.35 9.465 -31.7 8.805 -30 8.125 C-30 7.465 -30 6.805 -30 6.125 C-26.17010894 4.32269832 -23.21878192 3.92877759 -19 4.125 C-19 3.465 -19 2.805 -19 2.125 C-12.53546326 0.18868829 -6.72378423 -0.12056441 0 0 Z " fill="#F06652" transform="translate(255,198.875)"/>
<path d="M0 0 C-1.0625 1.5 -1.0625 1.5 -3 3 C-5.33333333 3 -7.66666667 3 -10 3 C-12.47493185 3.80735641 -14.65251352 4.8502107 -17 6 C-16.01732141 7.20561184 -16.01732141 7.20561184 -14.15234375 7.09765625 C-12.1015625 7.06510417 -10.05078125 7.03255208 -8 7 C-10.42755736 9.42755736 -12.89189508 10.57545191 -16 12 C-16.66 12 -17.32 12 -18 12 C-18.33 12.99 -18.66 13.98 -19 15 C-19.66 14.34 -20.32 13.68 -21 13 C-20.4740625 12.1028125 -20.4740625 12.1028125 -19.9375 11.1875 C-18.66695302 8.89186786 -18.66695302 8.89186786 -20 6 C-20.66 5.67 -21.32 5.34 -22 5 C-6.47590708 -2.24457669 -6.47590708 -2.24457669 0 0 Z " fill="#FEB998" transform="translate(231,232)"/>
<path d="M0 0 C1.63582031 -0.0299707 1.63582031 -0.0299707 3.3046875 -0.06054688 C10.6393117 -0.05616014 16.29801029 1.17862289 22.875 4.4375 C22.875 4.7675 22.875 5.0975 22.875 5.4375 C19.61498941 5.5927386 17.16580965 5.54071338 14.06982422 4.44189453 C10.64730924 3.36591817 7.96017347 3.2081174 4.3828125 3.2421875 C3.18398438 3.24863281 1.98515625 3.25507813 0.75 3.26171875 C-1.10625 3.28685547 -1.10625 3.28685547 -3 3.3125 C-4.26070313 3.32152344 -5.52140625 3.33054688 -6.8203125 3.33984375 C-9.9220704 3.36334192 -13.02343652 3.39619666 -16.125 3.4375 C-11.27562132 -0.87631622 -6.19232525 -0.03941874 0 0 Z " fill="#F36A57" transform="translate(310.125,193.5625)"/>
<path d="M0 0 C-0.33 0.66 -0.66 1.32 -1 2 C-1.56509277 2.02505615 -2.13018555 2.0501123 -2.71240234 2.07592773 C-5.26683742 2.19179956 -7.8208955 2.31456537 -10.375 2.4375 C-11.26445312 2.47681641 -12.15390625 2.51613281 -13.0703125 2.55664062 C-13.92109375 2.59853516 -14.771875 2.64042969 -15.6484375 2.68359375 C-16.43395996 2.72025146 -17.21948242 2.75690918 -18.02880859 2.79467773 C-20.07523496 2.890891 -20.07523496 2.890891 -22 4 C-23.3734635 4.15004973 -24.7528526 4.24838006 -26.1328125 4.31640625 C-26.93847656 4.35830078 -27.74414062 4.40019531 -28.57421875 4.44335938 C-29.41597656 4.48267578 -30.25773437 4.52199219 -31.125 4.5625 C-31.97449219 4.60568359 -32.82398438 4.64886719 -33.69921875 4.69335938 C-35.79928223 4.79954236 -37.89961948 4.90028497 -40 5 C-35.92176137 2.28117425 -32.10763635 2.03728827 -27.3125 1.375 C-25.91511597 1.17716919 -25.91511597 1.17716919 -24.48950195 0.9753418 C-16.27755158 -0.11036773 -8.27320373 -0.31594979 0 0 Z " fill="#F3D8C2" transform="translate(372,113)"/>
<path d="M0 0 C0.66 0 1.32 0 2 0 C-0.58209832 9.3770939 -5.55469895 17.04148308 -11 25 C-11.68707555 22.50935112 -12 20.62113708 -12 18 C-10.68 18 -9.36 18 -8 18 C-7.67 16.35 -7.34 14.7 -7 13 C-6.34 13 -5.68 13 -5 13 C-5.061875 12.236875 -5.12375 11.47375 -5.1875 10.6875 C-4.96125194 7.44461116 -4.30238001 7.12527385 -2 5 C-0.80972016 2.40084462 -0.80972016 2.40084462 0 0 Z " fill="#F5CAAE" transform="translate(439,211)"/>
<path d="M0 0 C-1.44424635 3.23861303 -3.25772247 5.61969163 -5.625 8.25 C-6.25664062 8.95640625 -6.88828125 9.6628125 -7.5390625 10.390625 C-8.02117187 10.92171875 -8.50328125 11.4528125 -9 12 C-8.34 12.33 -7.68 12.66 -7 13 C-6.01 14.485 -6.01 14.485 -5 16 C-5.33 16.99 -5.66 17.98 -6 19 C-8.76383547 16.14979467 -9.92501775 14.46655624 -10.5625 10.5 C-9.85550734 6.10093458 -8.40601046 4.7723341 -5 2 C-2 0 -2 0 0 0 Z " fill="#F35F4C" transform="translate(266,209)"/>
<path d="M0 0 C4.53916919 0.11796454 9.07810642 0.24219113 13.61694336 0.37231445 C15.16214289 0.41571985 16.70739214 0.45739071 18.25268555 0.49731445 C20.46939096 0.55488199 22.6858448 0.61861424 24.90234375 0.68359375 C25.94454323 0.70866249 25.94454323 0.70866249 27.00779724 0.73423767 C31.88612829 0.88612829 31.88612829 0.88612829 33 2 C34.51469448 2.23192865 36.03754562 2.41215238 37.5625 2.5625 C38.80193359 2.68818359 38.80193359 2.68818359 40.06640625 2.81640625 C40.70449219 2.87699219 41.34257812 2.93757812 42 3 C42 3.33 42 3.66 42 4 C40.10424749 4.02721176 38.20838021 4.04649136 36.3125 4.0625 C34.72888672 4.07990234 34.72888672 4.07990234 33.11328125 4.09765625 C30 4 30 4 27.6953125 3.52734375 C23.67697793 2.74114786 19.64738217 2.66981034 15.5625 2.5 C10.29666873 2.28008129 5.18809597 2.01231141 0 1 C0 0.67 0 0.34 0 0 Z " fill="#F36F5A" transform="translate(288,242)"/>
<path d="M0 0 C-2.27611995 3.41417993 -2.84329158 3.51652165 -6.625 4.5 C-9.94710602 5.40602891 -13.12178434 6.39298108 -16.3125 7.6875 C-19.56359122 8.84466806 -21.61514124 9.31733051 -25 9 C-21.57423283 7.26204983 -18.10654046 5.62309578 -14.625 4 C-12.97371094 3.2265625 -12.97371094 3.2265625 -11.2890625 2.4375 C-2.66413181 -1.33206591 -2.66413181 -1.33206591 0 0 Z " fill="#F7D5BE" transform="translate(320,122)"/>
<path d="M0 0 C0.33 0 0.66 0 1 0 C1.0885085 4.08319218 1.14089063 8.16613163 1.1875 12.25 C1.21263672 13.38953125 1.23777344 14.5290625 1.26367188 15.703125 C1.33073062 23.57135151 0.2838853 30.47116051 -2 38 C-2.33 38 -2.66 38 -3 38 C-3.05449838 36.27119018 -3.09301688 34.54187288 -3.125 32.8125 C-3.14820313 31.84957031 -3.17140625 30.88664062 -3.1953125 29.89453125 C-3 27 -3 27 -2.01367188 24.65039062 C-0.94075618 21.84509853 -0.69085189 19.68927876 -0.5859375 16.69921875 C-0.54726563 15.72275391 -0.50859375 14.74628906 -0.46875 13.74023438 C-0.4378125 12.73283203 -0.406875 11.72542969 -0.375 10.6875 C-0.33632813 9.66076172 -0.29765625 8.63402344 -0.2578125 7.57617188 C-0.16385103 5.05095735 -0.0781846 2.52574408 0 0 Z " fill="#F4D3B6" transform="translate(444,173)"/>
<path d="M0 0 C-5.14285714 5.57142857 -5.14285714 5.57142857 -9 6 C-9 5.67 -9 5.34 -9 5 C-12.24486056 4.84907625 -14.58901631 4.83364946 -17.625 6.0625 C-20.35352312 7.1395486 -21.27699322 6.82149783 -24 6 C-12.8671875 2.2890625 -12.8671875 2.2890625 -10.88964844 1.63769531 C-9.14664091 1.04948657 -7.41993592 0.41354596 -5.6953125 -0.2265625 C-3 -1 -3 -1 0 0 Z " fill="#F7D7BB" transform="translate(200,149)"/>
<path d="M0 0 C0.9583374 0.00523682 1.9166748 0.01047363 2.90405273 0.01586914 C4.45576172 0.02070313 4.45576172 0.02070313 6.03881836 0.02563477 C7.12743164 0.03401367 8.21604492 0.04239258 9.33764648 0.05102539 C10.97636719 0.05779297 10.97636719 0.05779297 12.64819336 0.06469727 C15.35723144 0.07652713 18.06616248 0.09300996 20.77514648 0.11352539 C20.77514648 0.44352539 20.77514648 0.77352539 20.77514648 1.11352539 C19.65495117 1.17411133 18.53475586 1.23469727 17.38061523 1.29711914 C15.90794665 1.38153963 14.43529105 1.46618688 12.96264648 1.55102539 C12.2246582 1.5903418 11.48666992 1.6296582 10.72631836 1.67016602 C7.54443307 1.85733574 4.8135227 2.10073332 1.77514648 3.11352539 C0.36689756 3.19374538 -1.04482582 3.22118516 -2.45532227 3.21118164 C-3.25776367 3.20795898 -4.06020508 3.20473633 -4.88696289 3.20141602 C-5.7203418 3.19303711 -6.5537207 3.1846582 -7.41235352 3.17602539 C-8.25733398 3.17151367 -9.10231445 3.16700195 -9.97290039 3.16235352 C-12.05691506 3.15057942 -14.14089328 3.13264429 -16.22485352 3.11352539 C-16.22485352 2.78352539 -16.22485352 2.45352539 -16.22485352 2.11352539 C-15.29801758 2.05293945 -14.37118164 1.99235352 -13.41625977 1.92993164 C-11.61995117 1.80424805 -11.61995117 1.80424805 -9.78735352 1.67602539 C-7.99491211 1.55420898 -7.99491211 1.55420898 -6.16625977 1.42993164 C-3.18719209 1.10947416 -2.78237499 0.14197349 0 0 Z " fill="#F7705D" transform="translate(360.224853515625,184.886474609375)"/>
<path d="M0 0 C-3.01490557 1.00496852 -5.04181692 1.10335303 -8.1875 1.0625 C-9.08855469 1.05347656 -9.98960937 1.04445312 -10.91796875 1.03515625 C-11.60503906 1.02355469 -12.29210937 1.01195312 -13 1 C-13.28875 1.61359375 -13.5775 2.2271875 -13.875 2.859375 C-15.22527699 5.42865206 -16.82247304 7.09466391 -19 9 C-19.66 9 -20.32 9 -21 9 C-19.06382979 2.29787234 -19.06382979 2.29787234 -16 0 C-13.22265625 -0.546875 -13.22265625 -0.546875 -10.0625 -0.75 C-9.02222656 -0.82734375 -7.98195313 -0.9046875 -6.91015625 -0.984375 C-4.35246365 -0.99810758 -2.41886892 -0.76937518 0 0 Z " fill="#F05D49" transform="translate(285,144)"/>
<path d="M0 0 C0 0.33 0 0.66 0 1 C-0.78246094 1.06058594 -1.56492188 1.12117187 -2.37109375 1.18359375 C-3.88896484 1.30927734 -3.88896484 1.30927734 -5.4375 1.4375 C-6.44683594 1.51871094 -7.45617187 1.59992188 -8.49609375 1.68359375 C-10.93640779 1.73211468 -10.93640779 1.73211468 -12 3 C-14.86267567 3.07325168 -17.700719 3.09238205 -20.5625 3.0625 C-21.36880859 3.05798828 -22.17511719 3.05347656 -23.00585938 3.04882812 C-25.00393756 3.03700518 -27.00197783 3.01906914 -29 3 C-20.83633648 -1.72532053 -9.1162105 -0.13233209 0 0 Z " fill="#F06350" transform="translate(245,150)"/>
<path d="M0 0 C2.33944736 0.28730055 4.6739143 0.61936779 7 1 C7 1.66 7 2.32 7 3 C2.35796103 5.53309233 -1.65155992 7.46515599 -7 8 C-7 7.34 -7 6.68 -7 6 C-6.01 6 -5.02 6 -4 6 C-4 5.34 -4 4.68 -4 4 C-2.68 4 -1.36 4 0 4 C-0.33 3.01 -0.66 2.02 -1 1 C-0.67 0.67 -0.34 0.34 0 0 Z " fill="#F2614E" transform="translate(297,257)"/>
<path d="M0 0 C0.33 0.66 0.66 1.32 1 2 C-1.31 2 -3.62 2 -6 2 C-6 1.34 -6 0.68 -6 0 C-11.94 0.33 -17.88 0.66 -24 1 C-23.67 0.34 -23.34 -0.32 -23 -1 C-15.48088553 -2.83393036 -7.32480994 -2.59654094 0 0 Z " fill="#F16853" transform="translate(343,131)"/>
<path d="M0 0 C0.66 0.33 1.32 0.66 2 1 C1 3 1 3 -0.99609375 3.81640625 C-2.20458984 4.18572266 -2.20458984 4.18572266 -3.4375 4.5625 C-6.79152852 5.59917007 -6.79152852 5.59917007 -10 7 C-11.70702735 7.06996014 -13.41668003 7.08440154 -15.125 7.0625 C-16.03507812 7.05347656 -16.94515625 7.04445312 -17.8828125 7.03515625 C-18.58148438 7.02355469 -19.28015625 7.01195312 -20 7 C-16.60479765 5.13972942 -13.14035111 4.04540653 -9.4375 2.9375 C-4.70403105 1.5152306 -4.70403105 1.5152306 0 0 Z " fill="#F0604B" transform="translate(307,136)"/>
<path d="M0 0 C1.75570312 0.01353516 1.75570312 0.01353516 3.546875 0.02734375 C4.43890625 0.03894531 5.3309375 0.05054688 6.25 0.0625 C6.25 0.3925 6.25 0.7225 6.25 1.0625 C4.65671875 1.19205078 4.65671875 1.19205078 3.03125 1.32421875 C-5.29672344 2.11468715 -10.80619325 3.12171443 -17.75 8.0625 C-19.953125 7.70703125 -19.953125 7.70703125 -21.75 7.0625 C-20.00318707 6.07765892 -18.2524149 5.09983813 -16.5 4.125 C-15.03820312 3.30708984 -15.03820312 3.30708984 -13.546875 2.47265625 C-8.85669758 0.10791596 -5.25447238 -0.05254472 0 0 Z " fill="#EE604D" transform="translate(229.75,214.9375)"/>
<path d="M0 0 C0 0.66 0 1.32 0 2 C-1.04800781 2.09087891 -1.04800781 2.09087891 -2.1171875 2.18359375 C-3.02726562 2.26738281 -3.93734375 2.35117188 -4.875 2.4375 C-5.77992188 2.51871094 -6.68484375 2.59992188 -7.6171875 2.68359375 C-10.01110861 2.86989285 -10.01110861 2.86989285 -12 4 C-14.37123246 4.23029956 -16.74741943 4.41119942 -19.125 4.5625 C-20.40632812 4.64628906 -21.68765625 4.73007813 -23.0078125 4.81640625 C-23.99523437 4.87699219 -24.98265625 4.93757812 -26 5 C-26 4.67 -26 4.34 -26 4 C-23.16888282 3.32246768 -20.33570624 2.65781273 -17.5 2 C-16.70851562 1.80921875 -15.91703125 1.6184375 -15.1015625 1.421875 C-9.93737043 0.23665059 -5.29774939 -0.19441282 0 0 Z " fill="#F6DBC2" transform="translate(240,140)"/>
<path d="M0 0 C3.3 0 6.6 0 10 0 C9.01 0.495 9.01 0.495 8 1 C7.795563 4.67986596 8.25434889 6.78360346 10 10 C8.89134015 9.08877273 7.78827781 8.17073341 6.6875 7.25 C6.07261719 6.73953125 5.45773437 6.2290625 4.82421875 5.703125 C3 4 3 4 0 0 Z " fill="#EE5844" transform="translate(352,127)"/>
<path d="M0 0 C0.66 0.33 1.32 0.66 2 1 C-0.75 5.875 -0.75 5.875 -3 7 C-3.28875 7.639375 -3.5775 8.27875 -3.875 8.9375 C-5.22909764 11.42001234 -6.42178493 11.96871397 -9 13 C-8.41273335 9.37036582 -6.95905107 7.49830783 -4.5 4.8125 C-3.8709375 4.11769531 -3.241875 3.42289063 -2.59375 2.70703125 C-1.74091381 1.79357681 -0.88366526 0.88366526 0 0 Z " fill="#FEB191" transform="translate(325,167)"/>
<path d="M0 0 C0.99 0.33 1.98 0.66 3 1 C2.360625 1.763125 1.72125 2.52625 1.0625 3.3125 C-1.14232781 5.88246713 -1.14232781 5.88246713 -2 9 C-4.0625 9.6875 -4.0625 9.6875 -6 10 C-6 10.66 -6 11.32 -6 12 C-7.32 11.67 -8.64 11.34 -10 11 C-9.67 10.34 -9.34 9.68 -9 9 C-7.68 9 -6.36 9 -5 9 C-5 8.01 -5 7.02 -5 6 C-4.34 6 -3.68 6 -3 6 C-2.814375 5.071875 -2.814375 5.071875 -2.625 4.125 C-2 2 -2 2 0 0 Z " fill="#EF5B47" transform="translate(318,171)"/>
<path d="M0 0 C0.33 0 0.66 0 1 0 C1.58576414 3.34722365 1.44507491 5.34815801 -0.48828125 8.1796875 C-2.25464581 10.23496055 -3.97642794 12.19618237 -6 14 C-6.66 14 -7.32 14 -8 14 C-6.59187652 9.51960711 -4.27650612 7.27650612 -1 4 C-0.13880866 1.82653432 -0.13880866 1.82653432 0 0 Z " fill="#F36652" transform="translate(262,158)"/>
<path d="M0 0 C0.66 0.33 1.32 0.66 2 1 C1.38125 1.2475 0.7625 1.495 0.125 1.75 C-2.35068687 3.20628639 -2.95125002 4.37812506 -4 7 C-4.66 7 -5.32 7 -6 7 C-6.33 7.99 -6.66 8.98 -7 10 C-8.65 9.67 -10.3 9.34 -12 9 C-8.11327187 5.81994972 -4.10047867 2.89445553 0 0 Z " fill="#F3604D" transform="translate(355,155)"/>
<path d="M0 0 C2.44989101 3.74235319 2.23086143 7.44225419 2.125 11.75 C2.11597656 12.44738281 2.10695313 13.14476562 2.09765625 13.86328125 C2.07419888 15.57566958 2.03833104 17.28788004 2 19 C1.34 19 0.68 19 0 19 C-1.35862973 15.09519751 -0.89469712 11.2898224 -0.5625 7.25 C-0.48418945 6.20392578 -0.48418945 6.20392578 -0.40429688 5.13671875 C-0.27525928 3.42403797 -0.13840386 1.71194934 0 0 Z " fill="#F4D3B6" transform="translate(442,153)"/>
<path d="M0 0 C-1.11328125 1.48828125 -1.11328125 1.48828125 -3 3 C-5.91796875 3.29296875 -5.91796875 3.29296875 -9.1875 3.1875 C-10.27417969 3.16042969 -11.36085937 3.13335937 -12.48046875 3.10546875 C-13.31191406 3.07066406 -14.14335937 3.03585938 -15 3 C-12.74829688 0.74829688 -11.67012422 0.48526 -8.625 -0.1875 C-7.85414063 -0.36667969 -7.08328125 -0.54585937 -6.2890625 -0.73046875 C-3.88917728 -1.01304909 -2.28329465 -0.73503321 0 0 Z " fill="#FEB08F" transform="translate(231,232)"/>
<path d="M0 0 C1.13116179 3.39348537 0.96678184 4.61626354 0 8 C-1.5 10.8125 -1.5 10.8125 -3 13 C-3.33 13 -3.66 13 -4 13 C-4.45732667 7.28341664 -3.52273754 4.51350747 0 0 Z " fill="#F4CEAF" transform="translate(117,202)"/>
<path d="M0 0 C-2.97280442 1.52433823 -5.97981157 2.89955928 -9.0625 4.1875 C-9.91972656 4.55230469 -10.77695312 4.91710937 -11.66015625 5.29296875 C-14 6 -14 6 -17 5 C-16.34 5 -15.68 5 -15 5 C-15 4.34 -15 3.68 -15 3 C-13.44033782 2.491217 -11.87710759 1.99336531 -10.3125 1.5 C-9.44238281 1.2215625 -8.57226562 0.943125 -7.67578125 0.65625 C-5.00608323 0.00149195 -2.73603316 -0.11831495 0 0 Z " fill="#F6CFB5" transform="translate(311,312)"/>
<path d="M0 0 C2.08465525 0.62057656 4.16767928 1.2466345 6.25 1.875 C7.99023438 2.39707031 7.99023438 2.39707031 9.765625 2.9296875 C12.35127072 3.78532389 14.62286874 4.6937546 17 6 C15.10333474 5.91227545 13.20761007 5.80408699 11.3125 5.6875 C10.25675781 5.62949219 9.20101563 5.57148438 8.11328125 5.51171875 C4.74104356 4.95743627 2.72145419 4.04487745 0 2 C0 1.34 0 0.68 0 0 Z " fill="#EF5E48" transform="translate(267,248)"/>
<path d="M0 0 C0 3.74814879 -1.36671178 4.5535328 -3.75390625 7.23828125 C-5.88553967 10.25196988 -6.31859301 13.40712679 -7 17 C-7.33 17 -7.66 17 -8 17 C-8.06356797 12.48667411 -8.11115345 8.51982287 -5.375 4.77734375 C-3.64681805 3.08051994 -1.90123845 1.49914886 0 0 Z " fill="#ED5A48" transform="translate(141,184)"/>
<path d="M0 0 C1.98 0.99 3.96 1.98 6 3 C3.08596738 4.94268841 0.14191424 6.46395304 -3 8 C-1.125 2.25 -1.125 2.25 0 0 Z " fill="#FDC29C" transform="translate(154,169)"/>
<path d="M0 0 C3.51005335 1.6380249 6.45543849 3.03134491 9 6 C7.02 6.66 5.04 7.32 3 8 C3 6.68 3 5.36 3 4 C2.01 3.67 1.02 3.34 0 3 C0 2.01 0 1.02 0 0 Z " fill="#F8D3B9" transform="translate(421,128)"/>
<path d="M0 0 C0.99 0.33 1.98 0.66 3 1 C1.92492371 2.29854721 0.83956264 3.58858361 -0.25 4.875 C-0.85328125 5.59429687 -1.4565625 6.31359375 -2.078125 7.0546875 C-3.97087634 8.97052118 -5.53657727 9.96449045 -8 11 C-8 10.01 -8 9.02 -8 8 C-7.01 8 -6.02 8 -5 8 C-5 7.01 -5 6.02 -5 5 C-4.34 4.67 -3.68 4.34 -3 4 C-2.67 3.01 -2.34 2.02 -2 1 C-1.34 0.67 -0.68 0.34 0 0 Z " fill="#F5D2B8" transform="translate(424,236)"/>
<path d="M0 0 C0 0.66 0 1.32 0 2 C-1.609375 3.32421875 -1.609375 3.32421875 -3.75 4.6875 C-4.44609375 5.14511719 -5.1421875 5.60273438 -5.859375 6.07421875 C-8.39090725 7.16906025 -9.46100862 6.9435441 -12 6 C-10.70903219 5.18639005 -9.41720125 4.37414954 -8.125 3.5625 C-7.04605469 2.88380859 -7.04605469 2.88380859 -5.9453125 2.19140625 C-2.36721311 0 -2.36721311 0 0 0 Z " fill="#F5D2BA" transform="translate(152,166)"/>
<path d="M0 0 C6 0.66666667 12 1.33333333 18 2 C18 2.33 18 2.66 18 3 C15.75026553 3.054138 13.50015617 3.09285491 11.25 3.125 C9.99703125 3.14820312 8.7440625 3.17140625 7.453125 3.1953125 C4.27179508 3.01537302 2.63478104 2.68998582 0 1 C0 0.67 0 0.34 0 0 Z " fill="#F5D7BE" transform="translate(373,114)"/>
<path d="M0 0 C0.66 0.33 1.32 0.66 2 1 C1.05208333 2.421875 0.10416667 3.84375 -0.84375 5.265625 C-1.41609375 6.12414062 -1.41609375 6.12414062 -2 7 C-3.33333333 9 -4.66666667 11 -6 13 C-6.33 12.34 -6.66 11.68 -7 11 C-6.328125 9.16015625 -6.328125 9.16015625 -5.25 7.0625 C-4.90453125 6.37285156 -4.5590625 5.68320313 -4.203125 4.97265625 C-2.99605034 2.99352409 -1.70292617 1.56101565 0 0 Z " fill="#FEB694" transform="translate(207,239)"/>
<path d="M0 0 C3.96 1.98 3.96 1.98 8 4 C8 4.66 8 5.32 8 6 C8.66 6.33 9.32 6.66 10 7 C7.36 6.67 4.72 6.34 2 6 C1.34 4.02 0.68 2.04 0 0 Z " fill="#FDB896" transform="translate(144,240)"/>
<path d="M0 0 C0.66 0 1.32 0 2 0 C2 0.66 2 1.32 2 2 C1.34 2 0.68 2 0 2 C0.350625 2.7425 0.70125 3.485 1.0625 4.25 C2.04509293 7.1322726 2.0326802 8.21176345 1 11 C0.34 10.67 -0.32 10.34 -1 10 C-1.484375 8.22265625 -1.484375 8.22265625 -1.75 6.0625 C-1.84796875 5.35222656 -1.9459375 4.64195312 -2.046875 3.91015625 C-2 2 -2 2 0 0 Z " fill="#F26854" transform="translate(131,218)"/>
<path d="M0 0 C4.80172134 1.10808954 7.91161335 2.04686508 11 6 C11 6.66 11 7.32 11 8 C6.99698968 6.23867546 3.3971023 3.73867517 0 1 C0 0.67 0 0.34 0 0 Z " fill="#F2C8AE" transform="translate(133,288)"/>
<path d="M0 0 C-4.02167317 2.96837781 -7.00088076 4.52389341 -12 5 C-12 4.34 -12 3.68 -12 3 C-10.68 3 -9.36 3 -8 3 C-7.67 2.01 -7.34 1.02 -7 0 C-4.05610218 -1.17755913 -3.10046087 -1.03348696 0 0 Z " fill="#F06750" transform="translate(356,236)"/>
<path d="M0 0 C2.31 0.33 4.62 0.66 7 1 C7.33 1.99 7.66 2.98 8 4 C10.50447516 5.21869929 10.50447516 5.21869929 13 6 C10 7 10 7 7.7734375 6.07421875 C6.58621094 5.38779297 6.58621094 5.38779297 5.375 4.6875 C4.57835937 4.23761719 3.78171875 3.78773438 2.9609375 3.32421875 C1 2 1 2 0 0 Z " fill="#EE6852" transform="translate(266,234)"/>
<path d="M0 0 C0.33 0.99 0.66 1.98 1 3 C-1.97 4.32 -4.94 5.64 -8 7 C-4.5 0 -4.5 0 0 0 Z " fill="#F35E4E" transform="translate(336,169)"/>
<path d="M0 0 C-1 2 -1 2 -4.3125 3.1875 C-7.57562063 3.90649268 -8.99282882 4.20286847 -12 3 C-8.62446616 -0.37553384 -4.59080647 -0.1311659 0 0 Z " fill="#F6D0BA" transform="translate(293,318)"/>
<path d="M0 0 C-3.19990508 2.74277578 -6.00499382 4.6302836 -10 6 C-10 5.01 -10 4.02 -10 3 C-6.62637846 0.39749195 -4.23092172 -0.36265043 0 0 Z " fill="#F5CBAE" transform="translate(362,287)"/>
<path d="M0 0 C-0.639375 0.268125 -1.27875 0.53625 -1.9375 0.8125 C-4.33131686 1.88667752 -4.33131686 1.88667752 -5 5 C-5.99 5 -6.98 5 -8 5 C-7.8125 3.125 -7.8125 3.125 -7 1 C-2.66666667 -1.33333333 -2.66666667 -1.33333333 0 0 Z " fill="#F5CDB2" transform="translate(414,250)"/>
<path d="M0 0 C0.99 0.33 1.98 0.66 3 1 C3 1.99 3 2.98 3 4 C4.43750191 5.68798827 4.43750191 5.68798827 6 7 C5.67 7.99 5.34 8.98 5 10 C2.08772731 6.71195019 0.50298788 4.40114397 0 0 Z " fill="#FEB794" transform="translate(246,176)"/>
<path d="M0 0 C-1.62366466 3.24732932 -4.75387839 3.70155136 -8 5 C-8.33 4.01 -8.66 3.02 -9 2 C-5.5647952 -0.29013653 -4.014669 -0.17842973 0 0 Z " fill="#F4C8AD" transform="translate(370,282)"/>
<path d="M0 0 C1.98 0.495 1.98 0.495 4 1 C3.67 1.99 3.34 2.98 3 4 C1.68 4 0.36 4 -1 4 C-0.67 2.68 -0.34 1.36 0 0 Z M-3 4 C-2.34 4.33 -1.68 4.66 -1 5 C-1.99 5.99 -2.98 6.98 -4 8 C-3.67 6.68 -3.34 5.36 -3 4 Z " fill="#F9CAA5" transform="translate(125,188)"/>
<path d="M0 0 C0.28875 0.61875 0.5775 1.2375 0.875 1.875 C1.93720042 4.13325765 1.93720042 4.13325765 4 6 C4 6.99 4 7.98 4 9 C4.66 9 5.32 9 6 9 C6 9.66 6 10.32 6 11 C3.59071265 10.03628506 2.23992991 9.34789837 0.75 7.1875 C-0.11081611 4.67678635 -0.14647297 2.63651351 0 0 Z " fill="#EA604B" transform="translate(327,176)"/>
<path d="M0 0 C1.65 0.33 3.3 0.66 5 1 C-0.14285714 5.42857143 -0.14285714 5.42857143 -4 6 C-4 5.34 -4 4.68 -4 4 C-3.01 4 -2.02 4 -1 4 C-0.67 2.68 -0.34 1.36 0 0 Z " fill="#F15948" transform="translate(363,227)"/>
<path d="M0 0 C0.99 0 1.98 0 3 0 C3 0.99 3 1.98 3 3 C3.99 3.33 4.98 3.66 6 4 C6 4.33 6 4.66 6 5 C4.02 5 2.04 5 0 5 C0 3.35 0 1.7 0 0 Z " fill="#FDC9A2" transform="translate(142,215)"/>
<path d="M0 0 C2.475 0.495 2.475 0.495 5 1 C5 1.66 5 2.32 5 3 C6.65 3.33 8.3 3.66 10 4 C9.67 4.66 9.34 5.32 9 6 C7.68397477 5.38245741 6.37226444 4.75571258 5.0625 4.125 C4.33160156 3.77695312 3.60070312 3.42890625 2.84765625 3.0703125 C1 2 1 2 0 0 Z " fill="#F3D0B9" transform="translate(152,301)"/>
<path d="M0 0 C0.66 0 1.32 0 2 0 C2.33 0.66 2.66 1.32 3 2 C5.02463255 2.65213292 5.02463255 2.65213292 7 3 C7.33 4.65 7.66 6.3 8 8 C3.83648025 6.61216008 2.66077051 4.45181039 0 1 C0 0.67 0 0.34 0 0 Z " fill="#F4D0B3" transform="translate(125,280)"/>
<path d="M0 0 C3.43595166 1.52708963 6.11912454 3.59927045 9 6 C8.67 6.66 8.34 7.32 8 8 C6.66102417 7.04956626 5.32894573 6.08940853 4 5.125 C3.2575 4.59132812 2.515 4.05765625 1.75 3.5078125 C1.1725 3.01023438 0.595 2.51265625 0 2 C0 1.34 0 0.68 0 0 Z " fill="#EC6551" transform="translate(135,231)"/>
<path d="M0 0 C-2.71182212 2.60334924 -3.89133813 2.99456691 -7.75 3.1875 C-8.8225 3.125625 -9.895 3.06375 -11 3 C-3.71428571 -1.85714286 -3.71428571 -1.85714286 0 0 Z " fill="#F5D6BB" transform="translate(176,157)"/>
<path d="M0 0 C1.65 0 3.3 0 5 0 C5 0.66 5 1.32 5 2 C5.66 2 6.32 2 7 2 C7.33 2.99 7.66 3.98 8 5 C4.62496331 3.8141763 2.35277269 2.72426311 0 0 Z " fill="#F5C4A9" transform="translate(144,296)"/>
<path d="M0 0 C-6.75 4 -6.75 4 -9 4 C-9 3.34 -9 2.68 -9 2 C-8.01 2 -7.02 2 -6 2 C-6 1.34 -6 0.68 -6 0 C-3.50907189 -1.24546405 -2.58919267 -0.7767578 0 0 Z " fill="#F6D6BF" transform="translate(351,294)"/>
<path d="M0 0 C-3.6441774 2.4294516 -5.71241272 2.16179575 -10 2 C-9.67 1.34 -9.34 0.68 -9 0 C-5.65506316 -0.99444068 -3.31044803 -1.10348268 0 0 Z " fill="#F3D5BE" transform="translate(332,119)"/>
<path d="M0 0 C0 0.66 0 1.32 0 2 C-4.38461538 5 -4.38461538 5 -7 5 C-7 4.01 -7 3.02 -7 2 C-4.35261084 0.5393715 -3.10551666 0 0 0 Z " fill="#F2C8AF" transform="translate(391,267)"/>
<path d="M0 0 C0.33 0.99 0.66 1.98 1 3 C-1.64 3.33 -4.28 3.66 -7 4 C-2.25 0 -2.25 0 0 0 Z " fill="#F0604C" transform="translate(220,241)"/>
<path d="M0 0 C3.3 0 6.6 0 10 0 C10.33 1.32 10.66 2.64 11 4 C10.484375 3.690625 9.96875 3.38125 9.4375 3.0625 C6.33334577 1.70940713 3.34884993 1.38640576 0 1 C0 0.67 0 0.34 0 0 Z " fill="#FDAC8C" transform="translate(255,187)"/>
</svg>
