<svg width="24" height="27" viewBox="0 0 24 27" fill="none" xmlns="http://www.w3.org/2000/svg">
<path d="M21.9049 6.248C20.5734 5.96317 19.3676 5.26047 18.4634 4.24234C17.5592 3.22421 17.0038 1.94388 16.8782 0.588V0H12.2849V18.2293C12.2821 19.0364 12.0264 19.8222 11.5539 20.4765C11.0814 21.1307 10.4158 21.6205 9.65057 21.8769C8.88536 22.1334 8.05903 22.1436 7.2877 21.9062C6.51637 21.6688 5.83881 21.1957 5.35024 20.5533C4.85409 19.9002 4.57886 19.1061 4.56446 18.286C4.55007 17.466 4.79726 16.6626 5.2702 15.9925C5.74313 15.3224 6.41722 14.8204 7.19471 14.5592C7.9722 14.298 8.81267 14.2913 9.59424 14.54V9.87333C7.85138 9.6324 6.0768 9.94226 4.51871 10.7596C2.96062 11.5769 1.69696 12.8607 0.90448 14.4316C0.111999 16.0024 -0.169664 17.7817 0.0988869 19.5205C0.367438 21.2594 1.17277 22.8708 2.40224 24.1293C3.57472 25.329 5.07809 26.1521 6.72045 26.4935C8.36281 26.8349 10.0697 26.6792 11.6231 26.0462C13.1766 25.4132 14.5062 24.3316 15.4422 22.9396C16.3782 21.5475 16.8781 19.9081 16.8782 18.2307V8.916C18.7346 10.2431 20.9603 10.9547 23.2422 10.9507V6.38667C22.7928 6.38722 22.3446 6.34075 21.9049 6.248Z" fill="black"/>
</svg>
